<svg width="100" height="100" viewBox="0 0 100 100" fill="none" xmlns="http://www.w3.org/2000/svg">
<rect width="100" height="100" rx="24" fill="white"/>
<path d="M41.3729 50.4685C41.4844 49.9389 41.5808 49.4057 41.7103 48.8805C42.1104 47.2586 42.6449 45.6779 43.2071 44.1066C43.9495 42.032 44.8246 40.0117 45.8224 38.0494C46.4593 36.7969 47.1711 35.5808 47.8853 34.3697C48.4654 33.386 49.0817 32.4223 49.7153 31.4719C50.1474 30.8238 50.6245 30.2043 51.1037 29.5893C51.8907 28.579 52.6763 27.5664 53.4995 26.5858C54.1168 25.8506 54.7921 25.1641 55.4419 24.4561C57.0659 22.6865 58.8536 21.0927 60.7219 19.5896C62.5248 18.1393 64.371 16.7472 66.3723 15.5735C66.9489 15.2353 67.4876 14.8294 68.0756 14.5143C69.462 13.7714 70.8421 13.0182 72.2677 12.3463C73.6684 11.6862 75.093 11.0921 76.543 10.559C77.757 10.1128 78.9907 9.71938 80.2201 9.31643C80.5989 9.19229 80.9927 9.11376 81.3775 9.01489C81.4743 9.34561 81.5104 29.0621 81.422 29.7684C81.2906 29.8381 81.1488 29.9271 80.9967 29.992C79.6849 30.5514 78.4747 31.2956 77.2613 32.0344C76.129 32.7239 75.0556 33.4998 74.0264 34.3311C72.6726 35.4246 71.3904 36.5949 70.2044 37.877C69.142 39.0254 68.1377 40.2145 67.2488 41.4986C66.6785 42.3224 66.1228 43.1588 65.6088 44.0183C65.1165 44.8416 64.6666 45.692 64.2341 46.5486C63.6628 47.6803 63.1582 48.843 62.7521 50.0461C62.7209 50.1384 62.6802 50.2277 62.6503 50.3204C62.6 50.476 62.4914 50.5401 62.3338 50.5371C62.2641 50.5358 62.1943 50.5386 62.1245 50.5386C55.2607 50.5378 48.3968 50.537 41.4822 50.5202C41.414 50.4891 41.3944 50.4772 41.3729 50.4685Z" fill="#EB0F2A"/>
<path d="M19.0183 29.7049C19.0122 29.5379 19.0008 29.3708 19.0008 29.2038C18.9999 22.6737 19 16.1436 19 9.61355C19 9.4346 19 9.25566 19 9.08817C19.3459 8.99658 70.4132 8.96185 71.2435 9.0549C61.1567 13.7455 53.0388 20.6481 46.6411 29.6811C37.3939 29.7035 28.2061 29.7042 19.0183 29.7049Z" fill="#FF6C00"/>
<path d="M39.8631 71.0705C40.0301 71.0644 40.1971 71.053 40.364 71.053C46.9195 71.0521 53.475 71.0523 60.0305 71.0523C60.2098 71.0523 60.3891 71.0522 60.5572 71.0522C60.6607 71.4074 60.6719 91.3663 60.5738 91.7881C53.6698 91.7881 46.7604 91.7881 39.8244 91.7881C39.8124 91.6417 39.7939 91.5203 39.7939 91.3988C39.7933 84.676 39.7943 77.9532 39.8111 71.1797C39.8423 71.1115 39.8543 71.092 39.8631 71.0705Z" fill="#EB0F2A"/>
<path d="M74.2606 67.5423C74.256 68.4753 74.256 68.4756 73.3856 68.476C72.5488 68.4764 71.7119 68.4764 70.875 68.4756C70.7496 68.4754 70.6239 68.4738 70.4987 68.4657C70.3036 68.4532 70.1896 68.3492 70.1759 68.1508C70.1672 68.0257 70.1647 67.9 70.1646 67.7746C70.1641 63.3253 70.1638 58.876 70.1647 54.4267C70.1648 53.7728 70.1904 53.7481 70.8532 53.7471C71.9272 53.7454 73.0012 53.7434 74.0751 53.7485C74.6754 53.7513 74.8474 54.0377 74.5694 54.5796C74.4361 54.8395 74.2682 55.0816 74.1193 55.3337C74.0804 55.3995 74.0541 55.4728 74.022 55.5426C74.0447 55.5587 74.0674 55.5748 74.0901 55.5908C74.1662 55.5056 74.2495 55.4258 74.3173 55.3345C75.3077 54.0015 76.6351 53.4812 78.2669 53.6909C79.1096 53.7993 79.8656 54.0926 80.4255 54.7607C80.9701 55.4106 81.2249 56.1942 81.368 57.0121C81.4372 57.4079 81.4621 57.8159 81.463 58.2186C81.4704 61.3707 81.4673 64.5229 81.467 67.6751C81.4669 68.4752 81.466 68.4756 80.648 68.476C79.7553 68.4763 78.8627 68.4785 77.97 68.4747C77.425 68.4723 77.3771 68.425 77.3767 67.8686C77.3745 64.7861 77.3771 61.7037 77.372 58.6212C77.3716 58.3728 77.3607 58.1146 77.2939 57.878C77.1463 57.3555 76.6438 57.0546 76.053 57.1119C75.4395 57.1715 74.9165 57.4244 74.5767 57.9495C74.4307 58.1751 74.3474 58.4519 74.2839 58.7169C74.2362 58.9158 74.2615 59.1331 74.2614 59.3422C74.2604 62.062 74.2607 64.7818 74.2606 67.5423Z" fill="#147350"/>
<path d="M53.3522 63.4324C53.3878 63.8019 53.4209 64.1335 53.454 64.465C53.4735 64.467 53.493 64.469 53.5125 64.4709C53.5496 64.0936 53.5704 63.7137 53.6271 63.3393C53.7732 62.3744 53.935 61.4117 54.0911 60.4483C54.4257 58.3836 54.7605 56.319 55.0962 54.2545C55.1141 54.1447 55.1372 54.0353 55.165 53.9275C55.2083 53.7593 55.3202 53.6689 55.4941 53.6567C55.5358 53.6538 55.5776 53.6488 55.6193 53.6488C56.7213 53.6482 57.8233 53.6428 58.9253 53.651C59.3096 53.6538 59.3714 53.7395 59.2918 54.1112C59.1283 54.8747 58.9604 55.6374 58.7864 56.3986C58.4416 57.9071 58.0918 59.4145 57.7436 60.9223C57.4361 62.254 57.1217 63.5841 56.8221 64.9175C56.6113 65.8561 56.4246 66.8001 56.2187 67.7399C56.1025 68.2702 56.0548 68.3059 55.52 68.3071C54.2088 68.3101 52.8975 68.3101 51.5862 68.3071C51.0639 68.3059 51.0298 68.2745 50.9135 67.7686C50.345 65.2953 49.7745 62.8224 49.2095 60.3483C48.7749 58.4452 48.3466 56.5407 47.9181 54.6362C47.8692 54.4188 47.8248 54.1989 47.8007 53.9777C47.775 53.7427 47.8334 53.6833 48.0714 53.654C48.1541 53.6438 48.2385 53.6464 48.3222 53.6463C49.2708 53.6458 50.2193 53.644 51.1679 53.6467C51.7521 53.6484 51.8015 53.6922 51.8934 54.266C52.2086 56.235 52.5196 58.2046 52.8384 60.1729C52.9766 61.0264 53.1327 61.877 53.2747 62.7299C53.3112 62.9494 53.3253 63.1728 53.3522 63.4324Z" fill="#147350"/>
<path d="M64.5534 63.1992C64.5525 63.7847 64.5458 64.3289 64.5527 64.8729C64.5579 65.2825 64.6348 65.3619 65.0483 65.3652C65.9831 65.3727 66.918 65.3683 67.8529 65.3689C68.0203 65.369 68.1879 65.3651 68.3551 65.3716C68.7489 65.3871 68.8256 65.453 68.831 65.8418C68.8403 66.5114 68.8403 67.1814 68.8304 67.851C68.8249 68.2166 68.7451 68.2848 68.3826 68.3052C68.2991 68.3099 68.2152 68.3083 68.1315 68.3083C65.8013 68.3084 63.4711 68.3092 61.141 68.3079C60.4884 68.3075 60.4636 68.2823 60.4635 67.617C60.4626 63.1939 60.463 58.7708 60.463 54.3476C60.463 54.3058 60.4628 54.2639 60.4635 54.2221C60.4726 53.7018 60.5208 53.6478 61.0467 53.6472C63.4467 53.6446 65.8466 53.6446 68.2465 53.6472C68.7752 53.6478 68.8296 53.7032 68.834 54.2181C68.8391 54.8041 68.8356 55.3902 68.8356 55.9762C68.8356 56.0739 68.8377 56.1717 68.8334 56.2692C68.8162 56.6596 68.7541 56.7325 68.3565 56.7356C67.3519 56.7437 66.3473 56.7386 65.3427 56.7402C64.5555 56.7414 64.5489 56.749 64.5491 57.5342C64.5493 57.9389 64.5476 58.3435 64.5494 58.7481C64.5523 59.3828 64.5871 59.4202 65.2063 59.4218C66.1412 59.4242 67.076 59.4225 68.0109 59.4227C68.1225 59.4227 68.2343 59.4204 68.3457 59.4248C68.7555 59.4409 68.827 59.5066 68.8323 59.927C68.8401 60.5408 68.84 61.1549 68.8324 61.7687C68.8272 62.1852 68.7577 62.255 68.3388 62.261C67.725 62.2697 67.111 62.2641 66.4971 62.2646C66.0227 62.2651 65.5482 62.2598 65.0739 62.2676C64.632 62.275 64.5637 62.3475 64.5514 62.7812C64.5478 62.9066 64.5525 63.0323 64.5534 63.1992Z" fill="#147350"/>
<path d="M42.3629 57.2697C42.3624 57.8252 42.3584 58.3414 42.3636 58.8575C42.3686 59.3542 42.4281 59.4176 42.9178 59.4202C43.9361 59.4255 44.9545 59.4209 45.9728 59.4231C46.6047 59.4245 46.6349 59.4552 46.6372 60.0849C46.6392 60.6289 46.6421 61.1731 46.6351 61.717C46.6291 62.1815 46.5586 62.2573 46.0992 62.2608C45.1367 62.2683 44.1742 62.2638 43.2116 62.2647C43.0721 62.2648 42.9322 62.2605 42.7933 62.2698C42.4618 62.292 42.3741 62.3682 42.3687 62.7073C42.3573 63.4326 42.3578 64.1581 42.3661 64.8834C42.3707 65.2882 42.4494 65.3626 42.8718 65.3653C43.9041 65.3721 44.9364 65.3672 45.9687 65.3693C46.6054 65.3707 46.6347 65.3999 46.6372 66.0263C46.6393 66.5842 46.6403 67.1423 46.6367 67.7002C46.6331 68.258 46.5891 68.3049 46.0441 68.307C45.0816 68.3108 44.119 68.3084 43.1565 68.3084C41.7754 68.3085 40.3944 68.3087 39.0134 68.3079C38.874 68.3079 38.7343 68.3061 38.5952 68.297C38.3979 68.2841 38.2905 68.1735 38.279 67.9764C38.2717 67.8512 38.2702 67.7255 38.2701 67.6C38.2692 63.164 38.2688 58.728 38.2685 54.292C38.2685 54.2223 38.2671 54.1523 38.2717 54.0828C38.2942 53.7416 38.3621 53.672 38.6996 53.6497C38.7969 53.6433 38.8948 53.6457 38.9924 53.6457C41.3081 53.6455 43.6238 53.6449 45.9395 53.646C46.6177 53.6463 46.6361 53.6662 46.6374 54.3583C46.6386 54.9721 46.6423 55.586 46.6347 56.1997C46.6291 56.6581 46.5569 56.733 46.0923 56.7368C45.1019 56.7448 44.1115 56.7407 43.121 56.7416C43.0374 56.7416 42.9536 56.739 42.87 56.7419C42.4572 56.7559 42.418 56.7942 42.3629 57.2697Z" fill="#147350"/>
<path d="M26.0458 59.4225C26.3385 59.4245 26.5901 59.416 26.8403 59.4314C27.1139 59.4482 27.2072 59.5226 27.2121 59.7817C27.2257 60.4927 27.2187 61.204 27.2156 61.9152C27.2146 62.1356 27.0871 62.2451 26.8734 62.2549C26.7063 62.2625 26.5389 62.2638 26.3716 62.264C25.479 62.2649 24.5864 62.2628 23.6938 62.2651C23.074 62.2668 23.0411 62.3015 23.0389 62.9382C23.0369 63.524 23.037 64.1098 23.0388 64.6955C23.0408 65.3458 23.0625 65.3671 23.7322 65.3682C24.6527 65.3696 25.5732 65.3683 26.4937 65.369C26.6192 65.3691 26.7447 65.372 26.8701 65.3769C27.0861 65.3854 27.2129 65.4976 27.2141 65.7152C27.2185 66.4682 27.2185 67.2212 27.2128 67.9741C27.2114 68.1693 27.0973 68.283 26.899 68.2966C26.7739 68.3053 26.6482 68.3078 26.5228 68.3078C24.2495 68.3084 21.9761 68.309 19.7028 68.3078C19.0375 68.3075 19.0093 68.2808 19.0092 67.6322C19.0082 63.1971 19.0082 58.762 19.0091 54.3268C19.0093 53.673 19.0365 53.6466 19.6977 53.6462C21.985 53.645 24.2723 53.6448 26.5596 53.6464C27.1896 53.6468 27.2216 53.6804 27.2239 54.3093C27.2261 54.909 27.2264 55.5087 27.2237 56.1084C27.2211 56.6968 27.1748 56.7415 26.5704 56.7422C25.622 56.7432 24.6737 56.7411 23.7253 56.7403C23.072 56.7398 23.0408 56.7694 23.0389 57.4233C23.0374 57.9394 23.0325 58.4555 23.0432 58.9714C23.0508 59.3367 23.1256 59.4136 23.4938 59.4176C24.3305 59.4269 25.1674 59.4218 26.0458 59.4225Z" fill="#147350"/>
<path d="M33.917 68.3083C32.425 68.3083 30.9749 68.3084 29.5248 68.3081C29.3993 68.3081 29.2735 68.3117 29.1485 68.3036C28.8135 68.2821 28.745 68.2111 28.7246 67.868C28.7179 67.7568 28.7207 67.645 28.7207 67.5334C28.7206 63.1692 28.7204 58.8049 28.7208 54.4407C28.7208 53.6469 28.7218 53.6464 29.5047 53.6458C30.3274 53.6451 31.15 53.6451 31.9727 53.6458C32.7483 53.6464 32.7499 53.6473 32.75 54.4054C32.7506 57.6541 32.7503 60.9029 32.7504 64.1517C32.7504 64.2911 32.7486 64.4306 32.7514 64.57C32.7611 65.048 32.8116 65.1077 33.2777 65.114C33.905 65.1224 34.5325 65.1172 35.1599 65.118C35.5782 65.1185 35.9965 65.1153 36.4148 65.1208C36.8457 65.1266 36.9166 65.1859 36.9213 65.598C36.9299 66.3508 36.93 67.1039 36.92 67.8567C36.9152 68.2207 36.8353 68.2991 36.4686 68.3032C35.6321 68.3126 34.7954 68.3075 33.917 68.3083Z" fill="#147350"/>
<path d="M68.2883 75.0429C67.8498 75.5164 67.3672 75.8517 66.7332 75.9134C65.5568 76.028 64.5777 75.3056 64.2819 74.1043C63.9545 72.775 64.8024 71.4222 66.1258 71.2205C67.1218 71.0688 67.9062 71.4794 68.4445 72.305C68.9572 73.0914 68.9969 73.9233 68.5026 74.7496C68.4458 74.8447 68.3733 74.9304 68.2883 75.0429ZM65.6382 72.0013C64.7062 72.5287 64.3819 73.6179 64.9047 74.4649C65.6437 75.6623 67.3086 75.5776 68.0353 74.3279C68.4535 73.6088 68.2105 72.4345 67.3509 72.0301C66.7949 71.7685 66.2568 71.7409 65.6382 72.0013Z" fill="#167350"/>
<path d="M19.0412 29.7317C28.2061 29.7042 37.3939 29.7034 46.6228 29.7007C46.5897 29.7279 46.5173 29.7734 46.4405 29.7826C46.3168 29.7975 46.1901 29.7895 46.0648 29.7895C37.2445 29.7896 28.4243 29.7898 19.6041 29.7883C19.4241 29.7883 19.2441 29.7689 19.0412 29.7317Z" fill="#C94724"/>
<path d="M41.3774 50.488C41.3946 50.4769 41.4144 50.489 41.444 50.5171C41.4559 50.5299 41.415 50.5323 41.415 50.5323C41.415 50.5323 41.3821 50.5079 41.3774 50.488Z" fill="#C32C31"/>
<path d="M39.8438 71.0751C39.8548 71.0922 39.8427 71.112 39.8144 71.1416C39.7911 71.1235 39.7985 71.0989 39.8438 71.0751Z" fill="#C32C31"/>
<path d="M65.7618 72.5453C66.028 72.1789 66.3876 72.3514 66.7031 72.329C66.9344 72.3126 67.1387 72.4115 67.2891 72.5981C67.5414 72.911 67.5211 73.3082 67.238 73.6246C66.949 73.9477 66.9489 73.9478 67.1787 74.3242C67.2078 74.3718 67.255 74.4154 67.2643 74.4663C67.2824 74.5653 67.3218 74.718 67.2753 74.7573C67.2084 74.814 67.0511 74.8308 66.9714 74.7894C66.8569 74.73 66.7638 74.6127 66.6862 74.5027C66.5539 74.315 66.4407 74.1138 66.2707 73.8397C66.2132 74.0203 66.1775 74.1027 66.1622 74.1888C66.1478 74.2703 66.1592 74.3559 66.1514 74.439C66.1373 74.5896 66.1458 74.7872 65.9339 74.7766C65.7289 74.7663 65.7374 74.5677 65.7374 74.4183C65.7373 73.8055 65.7461 73.1927 65.7618 72.5453ZM66.6522 73.2633C66.8276 73.1553 66.8527 72.9815 66.7668 72.8307C66.7085 72.7283 66.5685 72.6422 66.45 72.6154C66.3786 72.5993 66.2382 72.6914 66.1999 72.7696C66.1316 72.9092 66.1401 73.081 66.2861 73.1808C66.3715 73.2393 66.4904 73.2488 66.6522 73.2633Z" fill="#167350"/>
</svg>
