<svg width="100" height="100" viewBox="0 0 100 100" fill="none" xmlns="http://www.w3.org/2000/svg">
<rect width="100" height="100" rx="24" fill="#EC1C2D"/>
<path d="M53.9685 26C35.2795 26 20.1315 30.898 20.1315 36.9714C20.1315 42.0653 30.6892 46.3102 45.0502 47.551L50.952 29.4612L52.0012 47.8776C52.657 47.8776 53.3128 47.8776 54.0341 47.8776C72.7231 47.8776 87.8711 42.9796 87.8711 36.9061C87.8055 30.9633 72.6576 26 53.9685 26Z" fill="white"/>
<path d="M44.8534 48.2041C26.6234 48.4 12 54.147 12 61.2653C12 67.2735 22.3609 72.3021 36.5253 73.8694L44.8534 48.2041Z" fill="white"/>
<path d="M51.9356 48.4001L53.3783 74.0002C68.3951 72.694 79.543 67.4695 79.543 61.2655C79.6085 54.8655 67.6738 49.5104 51.9356 48.4001Z" fill="white"/>
</svg>
