<svg width="100" height="100" viewBox="0 0 100 100" fill="none" xmlns="http://www.w3.org/2000/svg">
<rect width="100" height="100" rx="24" fill="#004580"/>
<path d="M25.1462 51.1914C25.4016 51.2761 25.6987 51.402 26.0378 51.5691C26.6321 51.9056 27.1407 52.3658 27.5677 52.952C28.0785 53.7899 28.3316 54.795 28.3316 55.9672C28.3316 59.9898 25.8661 62 20.9393 62H11.383C11.1277 62 11 61.8741 11 61.6223V42.2671C11 42.0153 11.1277 41.8894 11.383 41.8894H21.4522C23.2376 41.8894 24.6795 42.3735 25.7846 43.3352C26.8875 44.299 27.4423 45.5776 27.4423 47.1689C27.4423 48.0915 27.2287 48.9077 26.8061 49.6197C26.379 50.3339 25.8264 50.8571 25.1462 51.1914ZM20.8138 59.1084C22.258 59.1084 23.319 58.8783 23.9993 58.4181C24.6773 57.9579 25.0185 57.1612 25.0185 56.0302C25.0185 54.8992 24.6773 54.1047 23.9993 53.6423C23.319 53.1821 22.2558 52.952 20.8138 52.952H14.8238C14.4826 52.952 14.3131 53.0779 14.3131 53.3297V58.7351C14.3131 58.9869 14.4826 59.1128 14.8238 59.1128H20.8138V59.1084ZM14.8238 44.7809C14.5685 44.7809 14.4408 44.9068 14.4408 45.1587V49.6827C14.4408 49.9345 14.5685 50.0604 14.8238 50.0604H20.6862C22.8942 50.0604 23.9993 49.1812 23.9993 47.4207C23.9993 45.6601 22.8942 44.7809 20.6862 44.7809H14.8238ZM45.7953 51.1914C46.0507 51.2761 46.3061 51.402 46.5592 51.5691C47.2372 51.9056 47.748 52.3658 48.0892 52.952C48.6836 53.7899 48.9808 54.795 48.9808 55.9672C48.9808 59.9898 46.5152 62 41.5885 62H32.03C31.7746 62 31.6469 61.8741 31.6469 61.6223V42.2671C31.6469 42.0153 31.7746 41.8894 32.03 41.8894H42.0992C43.7987 41.8894 45.2208 42.3735 46.3699 43.3352C47.5168 44.299 48.0914 45.5776 48.0914 47.1689C48.0914 48.0915 47.8779 48.9077 47.4552 49.6197C47.0259 50.3339 46.4734 50.8571 45.7953 51.1914ZM35.3431 44.7809C35.0877 44.7809 34.96 44.9068 34.96 45.1587V49.6827C34.96 49.9345 35.0877 50.0604 35.3431 50.0604H41.3331C43.5411 50.0604 44.6462 49.1812 44.6462 47.4207C44.6462 45.6601 43.5411 44.7809 41.3331 44.7809H35.3431ZM41.4608 59.1084C42.9049 59.1084 43.966 58.8783 44.6462 58.4181C45.3242 57.9579 45.6654 57.1612 45.6654 56.0302C45.6654 54.8992 45.3242 54.1047 44.6462 53.6423C43.966 53.1821 42.9027 52.952 41.4608 52.952H35.3431C35.0877 52.952 34.96 53.0779 34.96 53.3297V58.7351C34.96 58.9869 35.0877 59.1128 35.3431 59.1128H41.4608V59.1084ZM67.2061 42.1412C67.2898 41.974 67.3757 41.8894 67.4615 41.8894H70.7746C70.8583 41.8894 70.9441 41.9328 71.03 42.0153C71.1136 42.1 71.1136 42.1846 71.03 42.2671L60.4522 61.8741C60.3664 61.9588 60.2607 62 60.133 62C60.0054 62 59.8975 61.9588 59.8138 61.8741L49.2361 42.2671C49.1503 42.1846 49.1282 42.1 49.1723 42.0153C49.2141 41.9328 49.3198 41.8894 49.4915 41.8894H52.6769C52.8464 41.8894 52.9741 41.974 53.0599 42.1412L59.8138 54.7103C59.8138 54.795 59.8975 54.8362 60.0692 54.8362C60.2387 54.8362 60.3664 54.795 60.4522 54.7103L67.2061 42.1412ZM71.03 58.8588C70.9441 59.0281 70.8164 59.1106 70.6469 59.1106H67.3338C67.248 59.1106 67.1841 59.0694 67.1423 58.9847C67.0983 58.9022 67.0785 58.8176 67.0785 58.7329L77.6584 39.1259C77.742 39.0434 77.8697 39 78.0414 39C78.2109 39 78.3386 39.0434 78.4245 39.1259L89 58.7329C89 58.8176 88.978 58.9022 88.9362 58.9847C88.8921 59.0694 88.8283 59.1106 88.7446 59.1106H85.4315C85.2598 59.1106 85.1321 59.0281 85.0485 58.8588L78.4201 46.2897C78.3342 46.1225 78.2065 46.0378 78.037 46.0378C77.8653 46.0378 77.7376 46.1225 77.654 46.2897L71.03 58.8588Z" fill="white"/>
</svg>
