<svg width="100" height="100" viewBox="0 0 100 100" fill="none" xmlns="http://www.w3.org/2000/svg">
<rect width="100" height="100" rx="24" fill="#50B948"/>
<path d="M44.3138 18.5715C44.925 17.9559 45.451 17.3723 46.0444 16.8683C49.2112 14.1787 52.7505 14.3951 55.5192 17.5044C57.7054 19.9594 59.8096 22.4874 61.9549 24.9789C65.3871 28.9649 68.8234 32.9472 72.2567 36.9322C72.5097 37.2258 72.7525 37.5282 73 37.8265C72.9195 37.9182 72.839 38.01 72.7584 38.1018C72.4435 37.8511 72.117 37.6135 71.8157 37.3474C70.8308 36.4779 69.9041 35.5341 68.8647 34.7367C67.2301 33.4828 65.4117 33.3713 63.6887 34.4765C62.5978 35.1763 61.5556 36.0442 60.7144 37.0274C48.3172 51.5174 35.9576 66.0394 23.5887 80.5536C22.576 81.7418 21.6101 82.9751 20.5336 84.1025C19.2181 85.48 17.7379 85.2688 17.0499 83.4902C16.5738 82.2595 16.3529 80.8671 16.3184 79.539C16.1541 73.2124 16.077 66.8832 16.0011 60.5545C15.9631 57.3925 16.9186 54.529 18.5261 51.8012C22.7571 44.6216 27.7781 38.0237 33.1247 31.6627C36.7995 27.2908 40.5456 22.979 44.3138 18.5715Z" fill="#EC1D24"/>
<path d="M81.3154 85.4859C78.9291 82.8083 76.598 80.199 74.3192 77.5454C67.0476 69.0777 59.8053 60.5852 52.5181 52.1306C51.8942 51.4067 51.7883 50.954 52.4516 50.1909C55.586 46.5851 58.6367 42.9078 61.7711 39.3021C63.026 37.8586 64.5409 36.7201 66.4522 36.2016C67.8102 35.8332 69.0957 35.93 70.2154 36.8245C71.3413 37.724 72.5196 38.5904 73.4981 39.6342C77.7524 44.172 81.3262 49.1705 83.7279 54.9346C85.1974 58.4613 84.9975 62.1696 84.9833 65.8587C84.963 71.1524 84.9357 76.4461 84.8976 81.7397C84.8926 82.435 84.8482 83.1356 84.75 83.8236C84.4376 86.0131 83.4284 86.5175 81.3154 85.4859Z" fill="#FDDD01"/>
</svg>
