<svg width="100" height="100" viewBox="0 0 100 100" fill="none" xmlns="http://www.w3.org/2000/svg">
<rect width="100" height="100" rx="24" fill="#B20000"/>
<path d="M51.0811 21C59.0184 21.0583 65.4774 26.4561 66.9186 34.1898C68.5798 43.1038 62.2421 51.7396 53.235 52.8352C44.8626 53.8536 37.3301 48.5031 35.5794 40.2941C33.5719 30.8811 40.3149 21.8253 49.8954 21.0695C50.272 21.0398 50.6496 21.023 51.0811 21ZM61.1594 31.667C60.7747 30.6885 60.0113 30.2502 59.0082 30.1761C56.426 29.9854 53.8428 29.8072 51.2605 29.6164C48.8481 29.4382 46.4348 29.2689 44.0253 29.0565C43.1597 28.9801 42.8165 28.576 42.6836 27.7101C42.5999 27.1638 42.2483 26.8482 41.7828 26.9013C41.3051 26.9558 41.0312 27.3143 41.0634 27.8794C41.1325 29.0913 41.701 29.998 42.8488 30.4017C43.5513 30.6487 44.3141 30.7829 45.0594 30.8383C49.6207 31.1773 54.1846 31.479 58.7477 31.7936C59.5045 31.8458 59.6876 32.0421 59.6169 32.7896C59.4886 34.147 59.3522 35.5038 59.2009 36.8588C59.1081 37.6902 58.8914 37.8817 58.0367 37.9334C55.5086 38.0865 52.9802 38.2331 50.4519 38.3824C49.3603 38.4469 48.2687 38.5117 47.1577 38.5776C47.1306 38.4071 47.1039 38.2797 47.0908 38.1508C46.9225 36.4929 46.776 34.8325 46.5827 33.1775C46.4421 31.9737 45.554 31.2354 44.4706 31.3519C43.4021 31.4667 42.7032 32.3237 42.7931 33.5184C42.9054 35.0097 43.0914 36.4952 43.2259 37.985C43.3227 39.0575 43.9136 39.7113 44.8917 40.061C45.7461 40.3664 45.7885 40.4344 45.6826 41.392C43.5641 41.685 42.6156 42.5846 42.767 44.157C42.8902 45.4368 44.0594 46.4174 45.3656 46.3366C46.8373 46.2456 47.6398 45.1245 47.6157 43.1702C49.4323 43.1702 51.2484 43.1702 53.0692 43.1702C52.8671 44.9474 53.7572 46.2289 55.2327 46.3326C55.9241 46.3811 56.5447 46.2 57.0644 45.7289C57.8329 45.0321 58.0156 44.1469 57.7946 43.0698C58.3389 43.0698 58.809 43.0865 59.2773 43.0651C59.7455 43.0437 60.017 42.7622 60.0282 42.3026C60.0399 41.8188 59.7624 41.5285 59.2835 41.4567C59.1167 41.4317 58.9439 41.4444 58.7739 41.4443C55.2008 41.4438 51.6278 41.444 48.0547 41.444C47.8521 41.444 47.6496 41.444 47.4083 41.444C47.3726 41.0174 47.3415 40.646 47.3072 40.2366C47.515 40.215 47.6795 40.1911 47.8448 40.1816C51.2225 39.9874 54.6004 39.7949 57.9782 39.6017C59.821 39.4964 60.6447 38.72 60.8447 36.8918C60.9889 35.574 61.1414 34.2568 61.2569 32.9364C61.2908 32.5483 61.2108 32.1502 61.1594 31.667Z" fill="#0E69AF"/>
<path d="M53.1634 68.0452C52.0101 68.6128 51.5331 69.5997 51.5268 70.883C51.5152 73.2371 51.5247 75.5914 51.5229 77.9456C51.5221 78.8994 51.4345 78.9928 50.5646 78.9962C50.1375 78.9978 49.7104 78.9983 49.2833 78.9961C48.4479 78.9919 48.341 78.8821 48.3402 77.9848C48.3376 75.0217 48.3468 72.0587 48.3351 69.0957C48.331 68.0412 48.2911 66.9863 48.2465 65.9327C48.2222 65.3602 48.4749 65.1155 48.9653 65.0831C49.8663 65.0237 50.6406 65.354 51.31 65.992C54.164 64.2238 55.9118 64.404 57.8423 66.6851C57.963 66.5688 58.0889 66.4563 58.2058 66.3337C59.5719 64.9008 61.1745 64.4385 62.9737 65.0768C64.7423 65.7042 65.538 67.2371 65.8623 69.1237C65.9474 69.6192 65.9891 70.1305 65.9917 70.6349C66.0046 73.1107 65.9993 75.5868 65.9966 78.0627C65.9957 78.8519 65.8726 78.9863 65.1575 78.9952C64.6562 79.0014 64.1547 79.0018 63.6534 78.9951C62.9463 78.9856 62.8114 78.8423 62.8096 78.0553C62.8044 75.762 62.825 73.4684 62.7963 71.1755C62.7886 70.5556 62.7115 69.9143 62.5449 69.3236C62.1367 67.8768 60.6265 67.473 59.5997 68.4955C58.9791 69.1134 58.769 69.9056 58.7711 70.7973C58.7769 73.1921 58.7739 75.5869 58.7726 77.9817C58.7721 78.8871 58.6751 78.9912 57.8388 78.9959C57.3932 78.9985 56.9475 78.9989 56.5018 78.9958C55.7004 78.9903 55.592 78.8772 55.5911 78.0161C55.5886 75.7025 55.5994 73.3889 55.583 71.0754C55.5795 70.5729 55.5298 70.0593 55.4231 69.5713C55.1348 68.254 54.4383 67.7868 53.1634 68.0452Z" fill="#FFFEFE"/>
<path d="M21.0838 63.6652C19.6807 63.1641 18.2809 62.9986 16.8509 63.2487C14.5433 63.6524 12.9418 64.8651 12.2218 67.0099C11.773 68.347 11.6558 69.7203 11.9328 71.1034C12.5776 74.3223 14.9128 76.0635 18.4612 75.8814C19.4887 75.8287 20.5105 75.5489 21.5172 75.3073C22.2511 75.1311 22.4639 75.1871 22.6628 75.8624C22.7971 76.318 22.9094 76.7795 23.0469 77.2343C23.1871 77.6982 23.0244 78.0362 22.5464 78.1624C21.6057 78.4106 20.6612 78.664 19.7013 78.8251C18.1019 79.0935 16.4946 79.0613 14.915 78.6715C11.6907 77.876 9.50208 76.0231 8.55817 72.9721C7.456 69.4096 7.93402 66.0661 10.4587 63.1568C12.9617 60.2725 17.8194 59.2791 21.9121 60.7074C22.6891 60.9786 23.4203 61.3743 24.1545 61.7444C24.5944 61.9661 24.6808 62.3204 24.4392 62.7485C24.1938 63.183 23.9804 63.6336 23.736 64.0686C23.4299 64.6134 23.1333 64.6853 22.5693 64.396C22.0931 64.1516 21.6083 63.922 21.0838 63.6652Z" fill="#FEFCFC"/>
<path d="M77.6397 71.6439C77.7028 73.7873 77.7571 75.8739 77.8356 77.9595C77.8531 78.4229 77.6565 78.6275 77.2545 78.666C76.3047 78.7569 75.4393 78.5328 74.6641 77.8551C73.8655 78.477 72.9614 78.842 71.9535 78.9646C69.9463 79.2089 68.1303 78.1715 67.4613 76.3569C66.7634 74.464 67.4153 72.242 69.0324 71.062C70.1879 70.2189 71.5079 69.864 72.8881 69.7102C73.3409 69.6598 73.795 69.6227 74.2442 69.5799C74.3231 68.6945 73.8494 67.9845 73.0028 67.7879C71.8543 67.521 70.774 67.7925 69.7464 68.3438C68.9317 68.7809 68.7529 68.7109 68.4539 67.8221C68.4161 67.7097 68.3781 67.5973 68.3409 67.4846C67.9126 66.1858 67.935 66.0926 69.1233 65.5478C70.6422 64.8514 72.2297 64.6234 73.8704 64.9283C76.0797 65.3389 77.4198 67.0254 77.5934 69.6175C77.6372 70.2718 77.6257 70.9302 77.6397 71.6439ZM73.4093 72.439C72.6739 72.674 71.9036 72.8307 71.2137 73.1674C70.6055 73.4641 70.4733 74.1355 70.5355 74.8105C70.5841 75.3381 70.8042 75.7564 71.3013 75.967C72.4181 76.4403 73.9679 75.7174 74.2612 74.4971C74.4222 73.8269 74.3756 73.1022 74.4266 72.342C74.034 72.3797 73.7715 72.4049 73.4093 72.439Z" fill="#FEFDFD"/>
<path d="M24.5828 77.7858C22.7967 75.8516 23.0476 72.7391 25.1016 71.1524C26.2858 70.2376 27.6637 69.8688 29.103 69.7039C29.5559 69.652 30.0105 69.6162 30.4602 69.5734C30.5299 68.6843 30.0542 67.9871 29.2046 67.7885C28.054 67.5195 26.9738 67.7901 25.945 68.3402C25.1309 68.7756 24.9491 68.7043 24.6524 67.82C24.6147 67.7076 24.5774 67.5951 24.5403 67.4826C24.1129 66.1867 24.1343 66.096 25.3205 65.5505C26.8593 64.8429 28.469 64.6167 30.1282 64.941C32.3785 65.3807 33.7208 67.134 33.8149 69.8453C33.8823 71.7903 33.8391 73.7392 33.8709 75.6859C33.8819 76.359 33.958 77.0321 34.0261 77.7028C34.0978 78.4087 33.9181 78.6728 33.2353 78.6837C32.3734 78.6974 31.5756 78.466 30.9118 77.8714C28.7974 79.1726 26.6964 79.5991 24.5828 77.7858ZM27.3952 75.9044C27.5014 75.9464 27.6044 76.0052 27.7143 76.0278C29.3684 76.3672 31.1216 75.1286 30.5038 72.3625C29.5032 72.4303 28.4933 72.4639 27.5891 73.0169C26.5365 73.6607 26.4092 75.024 27.3952 75.9044Z" fill="#FEFDFD"/>
<path d="M86.4181 68.7802C87.1091 67.6123 87.7885 66.4917 88.4428 65.3538C88.6694 64.9598 88.9497 64.7812 89.3758 64.7968C90.0002 64.8198 90.628 64.7707 91.25 64.8194C91.4816 64.8376 91.805 64.9866 91.896 65.1819C91.9857 65.3743 91.9063 65.7551 91.7771 65.9601C90.6612 67.732 89.5248 69.4887 88.3752 71.2348C88.1546 71.5697 88.1365 71.8052 88.3607 72.1563C89.5301 73.9881 90.6832 75.8327 91.8133 77.6935C91.971 77.9533 92.1093 78.4076 92.0039 78.6266C91.8994 78.8434 91.4807 78.9492 91.1903 78.9748C90.6068 79.0263 90.0159 78.9674 89.4299 78.9973C88.9607 79.0212 88.6581 78.8336 88.407 78.393C87.6674 77.0946 86.8925 75.8201 86.0956 74.4759C85.9905 74.6263 85.8989 74.7402 85.8247 74.8665C85.1402 76.0325 84.4483 77.1936 83.7819 78.372C83.5384 78.8025 83.2453 79.0244 82.7668 78.9978C82.1811 78.9654 81.5902 79.0246 81.0064 78.9749C80.7339 78.9517 80.3472 78.8408 80.2426 78.6319C80.1404 78.4277 80.2573 77.9934 80.4055 77.7545C81.5524 75.9056 82.7202 74.0719 83.907 72.2533C84.1452 71.8882 84.1501 71.6466 83.9104 71.2781C82.7917 69.559 81.6922 67.8245 80.6178 66.0721C80.4615 65.8171 80.3539 65.3766 80.4525 65.1323C80.5318 64.9358 80.953 64.8378 81.2301 64.8168C81.8334 64.7712 82.4421 64.8188 83.0477 64.7969C83.4518 64.7823 83.7182 64.9502 83.9356 65.323C84.6068 66.4738 85.3008 67.6089 85.9874 68.7489C86.0972 68.9312 86.1999 69.21 86.4181 68.7802Z" fill="#FEFCFC"/>
<path d="M39.9586 70.4478C39.9587 73.0088 39.9601 75.5116 39.9581 78.0144C39.9574 78.8842 39.8439 78.9919 38.945 78.9964C38.3968 78.9992 37.8485 79.0036 37.3004 78.9952C36.5792 78.9841 36.4218 78.8248 36.4097 78.1201C36.4064 77.9261 36.4093 77.732 36.4093 77.538C36.4092 72.0668 36.409 66.5957 36.4094 61.1245C36.4095 60.161 36.5121 60.064 37.5253 60.0621C37.9923 60.0612 38.4593 60.0608 38.9263 60.0622C39.8672 60.0649 39.958 60.1529 39.9584 61.0769C39.9594 63.5215 39.9587 65.966 39.9587 68.4106C39.9586 69.0702 39.9587 69.7299 39.9586 70.4478Z" fill="#FEFBFB"/>
<path d="M43.3647 64.798C43.9907 64.7982 44.5604 64.7916 45.1298 64.8009C45.6182 64.8088 45.8779 65.0544 45.8776 65.5724C45.8749 69.799 45.8757 74.0257 45.8763 78.2523C45.8763 78.7322 45.6479 78.9901 45.1738 78.9949C44.4823 79.0018 43.7907 78.994 43.0991 78.9999C42.5658 79.0045 42.3212 78.7456 42.3266 78.2005C42.3369 77.1647 42.3294 76.1286 42.3294 75.0927C42.3294 72.0056 42.3281 68.9185 42.3301 65.8314C42.3307 64.9507 42.4446 64.8352 43.3647 64.798Z" fill="#FEFDFD"/>
<rect x="39.9592" y="25.7347" width="22.4898" height="22.4898" fill="#0E69AF"/>
<path d="M43.2807 61.4182C44.4027 60.9918 45.3964 61.3727 45.7513 62.3341C46.0926 63.2584 45.7213 64.2393 44.8862 64.62C44.0076 65.0205 43.0087 64.717 42.5591 63.913C42.0777 63.0522 42.3557 62.0475 43.2807 61.4182Z" fill="#FEFAFA"/>
<path d="M61.1718 31.9022C61.2113 32.3559 61.2909 32.7678 61.2571 33.1695C61.1421 34.5358 60.9902 35.8989 60.8466 37.2625C60.6474 39.1543 59.827 39.9577 57.9917 40.0667C54.6276 40.2666 51.2634 40.4658 47.8993 40.6668C47.7346 40.6767 47.5708 40.7013 47.3638 40.7237C47.398 41.1474 47.429 41.5317 47.4646 41.9731C47.7049 41.9731 47.9066 41.9731 48.1083 41.9731C51.667 41.9731 55.2256 41.9729 58.7842 41.9735C58.9536 41.9735 59.1256 41.9604 59.2917 41.9863C59.7687 42.0605 60.0451 42.3609 60.0334 42.8616C60.0223 43.3372 59.7519 43.6285 59.2856 43.6506C58.8191 43.6727 58.351 43.6554 57.8089 43.6554C58.0289 44.7701 57.847 45.6861 57.0816 46.4071C56.564 46.8946 55.9459 47.082 55.2574 47.0318C53.7878 46.9245 52.9012 45.5984 53.1025 43.7593C51.2891 43.7593 49.4804 43.7593 47.6711 43.7593C47.6951 45.7817 46.8959 46.9417 45.4302 47.036C44.1292 47.1196 42.9648 46.1048 42.842 44.7806C42.6912 43.1534 43.6359 42.2225 45.7458 41.9193C45.8513 40.9284 45.8091 40.8581 44.9581 40.542C43.984 40.1801 43.3955 39.5036 43.2991 38.3938C43.1651 36.8521 42.9799 35.3149 42.868 33.7717C42.7785 32.5355 43.4746 31.6486 44.5387 31.5298C45.6177 31.4093 46.5023 32.1733 46.6423 33.419C46.8348 35.1315 46.9807 36.8497 47.1484 38.5653C47.1614 38.6987 47.188 38.8306 47.215 39.0069C48.3215 38.9388 49.4087 38.8717 50.4959 38.805C53.0139 38.6505 55.5321 38.4987 58.05 38.3404C58.9012 38.2869 59.117 38.0887 59.2095 37.2283C59.3601 35.8262 59.496 34.4222 59.6238 33.0176C59.6942 32.244 59.5119 32.0409 58.7581 31.9869C54.2135 31.6614 49.668 31.3491 45.1252 30.9983C44.3829 30.941 43.6231 30.8022 42.9235 30.5465C41.7804 30.1288 41.2142 29.1905 41.1454 27.9365C41.1133 27.3517 41.3861 26.9807 41.8618 26.9243C42.3254 26.8694 42.6756 27.196 42.759 27.7613C42.8913 28.6573 43.2331 29.0755 44.0953 29.1545C46.495 29.3744 48.8985 29.5495 51.3012 29.734C53.873 29.9314 56.4458 30.1158 59.0176 30.3132C60.0166 30.3898 60.7769 30.8434 61.1718 31.9022ZM44.6626 35.5952C44.7453 36.452 44.823 37.3093 44.9133 38.1652C44.9508 38.5203 45.0594 38.8326 45.5201 38.8993C45.3787 37.3337 45.2422 35.8163 45.1039 34.299C45.0826 34.0653 45.0822 33.8229 45.0165 33.6025C44.9757 33.4656 44.8302 33.3625 44.7317 33.2442C44.6429 33.3894 44.4724 33.5389 44.4793 33.6789C44.5091 34.2837 44.5909 34.8857 44.6626 35.5952ZM44.4767 44.3235C44.4723 45.1122 44.9909 45.5471 45.5998 45.2619C46.0153 45.0672 46.0828 44.6877 46.0222 44.2827C45.9921 44.0816 45.9142 43.7909 45.7755 43.7227C45.331 43.5043 44.7824 43.7595 44.4767 44.3235ZM55.4645 43.6996C55.2205 43.8744 54.8826 43.9948 54.7532 44.2362C54.5259 44.6606 54.8009 45.1562 55.2426 45.2938C55.6734 45.428 56.0925 45.2008 56.221 44.7636C56.3694 44.2585 56.1413 43.893 55.4645 43.6996Z" fill="#FAFCFD"/>
</svg>
