<svg width="100" height="100" viewBox="0 0 100 100" fill="none" xmlns="http://www.w3.org/2000/svg">
<g clip-path="url(#clip0_386_2688)">
<rect width="100" height="100" rx="24" fill="#B20000"/>
<path fill-rule="evenodd" clip-rule="evenodd" d="M0 100H100V0H0V100Z" fill="#EC2024"/>
<path fill-rule="evenodd" clip-rule="evenodd" d="M73.4484 33.6371C76.9884 28.8111 75.9553 22.6285 71.3844 19.1591C66.9599 15.6912 60.7658 16.4451 57.3737 21.2704L45.4276 37.558V27.0008C45.4276 21.1199 41.0038 16.7461 35.3991 16.7461C29.7943 16.7461 25.2227 21.1199 25.2227 27.0008V72.9984C25.2227 78.8793 29.7943 83.2523 35.3991 83.2523C41.0038 83.2523 45.4276 79.029 45.4276 72.9984V59.2743L69.4669 86.8723C63.7157 90.1904 57.0786 92 50 92C27.4353 92 9 73.1481 9 49.9248C9 26.8511 27.4353 8 50 8C72.7126 8 91 26.8511 91 49.9248C91 58.5204 88.4931 66.3636 84.3629 72.9984L62.8313 48.2657L73.4484 33.6371Z" fill="white" stroke="#2B568C" stroke-width="2.13887" stroke-miterlimit="2.613"/>
</g>
<defs>
<clipPath id="clip0_386_2688">
<rect width="100" height="100" rx="24" fill="white"/>
</clipPath>
</defs>
</svg>
