<svg width="100" height="100" viewBox="0 0 100 100" fill="none" xmlns="http://www.w3.org/2000/svg">
<rect width="100" height="100" rx="24" fill="#31A947"/>
<path d="M18.0924 73.7573C13.9759 68.3244 12.0049 62.2636 12.0025 55.5469C11.9978 42.9381 12.0011 30.3292 12.0011 17.7204C12.0011 17.2026 12.0011 16.6849 12.0011 16.0035C12.5831 16.0035 13.0478 16.0035 13.5126 16.0035C28.7822 16.0035 44.0519 15.9939 59.3215 16.0065C72.7911 16.0177 84.7682 25.9891 86.9725 39.3262C88.2598 47.115 88.5682 55.0483 86.5399 62.7307C83.4237 74.5337 75.7705 81.9595 63.7583 84.5009C61.6073 84.9559 59.3216 84.8867 57.1009 84.8561C55.1074 84.8287 54.0109 83.5297 53.9864 81.5312C53.9718 80.3451 53.9825 79.1588 53.9839 77.9726C53.9862 76.018 54.3483 75.3585 56.2023 74.7497C60.5171 73.3329 64.0529 70.7596 67.161 67.5267C70.2766 64.286 72.7157 60.5733 74.7513 56.5636C72.4908 56.5636 70.3291 56.5636 68.0561 56.5636C69.703 54.4994 71.5995 52.5906 72.4181 49.73C71.2304 49.8677 70.1838 50.0812 69.1343 50.0959C62.7508 50.1853 56.3666 50.2241 49.9827 50.2959C49.1993 50.3047 48.3986 50.322 47.6371 50.4837C43.2339 51.4186 40.5851 54.8161 40.5624 59.4885C40.5437 63.3383 43.4127 66.962 47.5974 67.6779C53.5523 68.6965 58.6364 66.8458 62.57 62.1254C63.4686 61.0471 63.512 61.0111 64.8087 61.0289C64.1632 62.8752 62.8402 64.1789 61.4322 65.3316C57.347 68.676 52.6156 69.9583 47.4423 69.0547C43.3511 68.34 40.4597 65.8162 39.4534 61.785C38.4719 57.8529 39.3684 54.1031 42.6149 51.4106C48.515 46.5175 54.4999 41.7248 60.5316 36.9958C62.716 35.2831 63.8763 33.1712 64.2727 30.4738C64.439 29.3421 64.9366 28.2594 65.32 27.0386C62.8703 25.7065 60.3378 24.0923 57.2785 23.594C55.3523 23.2803 53.8524 23.7064 52.6916 25.3409C52.4274 25.713 51.8937 26.0081 51.4344 26.1076C41.9608 28.1593 32.4798 30.1768 23.0006 32.2028C20.4301 32.7521 19.2543 33.9051 19.1673 36.1645C20.7248 35.8596 22.2428 35.5847 23.7509 35.2634C32.9336 33.3069 42.1141 31.3407 51.2949 29.3757C53.0686 28.9961 54.4386 29.5424 55.0923 30.9005C55.8055 32.3825 55.3941 33.977 54.0104 35.1129C48.6944 39.4769 43.4278 43.9034 38.0483 48.1869C33.9352 51.4619 32.9038 55.9211 33.1338 60.7654C33.3668 65.6734 35.2661 69.877 39.4725 72.753C41.6512 74.2426 44.1079 75.0024 46.687 75.3411C47.9661 75.509 48.5614 76.0643 48.5101 77.3877C48.454 78.8354 48.5185 80.2872 48.4917 81.7365C48.4592 83.4969 47.4647 84.7298 45.7415 84.8556C37.5788 85.4519 29.8158 84.3384 23.2484 78.9217C21.4048 77.4011 19.8413 75.5381 18.0924 73.7573ZM24.5964 44.4237C26.1395 46.0391 27.8104 47.3952 30.2127 47.3813C33.6715 47.3613 36.6385 46.1617 38.9254 43.5451C41.9767 40.0538 44.9447 36.4891 47.9401 32.9487C48.3922 32.4144 48.7987 31.8413 49.3917 31.0714C39.3234 33.2294 29.5742 35.319 19.4109 37.4973C21.2075 39.9055 22.8403 42.0941 24.5964 44.4237ZM51.1427 30.9315C50.3912 31.6431 50.0212 32.5501 50.7566 33.3476C51.2008 33.8294 52.094 34.1735 52.7466 34.118C53.7928 34.029 54.3417 32.7876 53.9953 31.7903C53.6204 30.7107 52.6917 30.376 51.1427 30.9315Z" fill="white" stroke="white" stroke-width="4.3"/>
<path d="M41 87H60V82L80 63L78 36L58.5 20L15.5 29L17.5 50L41 87Z" fill="white"/>
<path d="M18.0924 73.7573C13.9759 68.3244 12.0049 62.2636 12.0025 55.5469C11.9978 42.9381 12.0011 30.3292 12.0011 17.7204C12.0011 17.2026 12.0011 16.6849 12.0011 16.0035C12.5831 16.0035 13.0478 16.0035 13.5126 16.0035C28.7822 16.0035 44.0519 15.9939 59.3215 16.0065C72.7911 16.0177 84.7682 25.9891 86.9725 39.3262C88.2598 47.115 88.5682 55.0483 86.5399 62.7307C83.4237 74.5337 75.7705 81.9595 63.7583 84.5009C61.6073 84.9559 59.3216 84.8867 57.1009 84.8561C55.1074 84.8287 54.0109 83.5297 53.9864 81.5312C53.9718 80.3451 53.9825 79.1588 53.9839 77.9726C53.9862 76.018 54.3483 75.3585 56.2023 74.7497C60.5171 73.3329 64.0529 70.7596 67.161 67.5267C70.2766 64.286 72.7157 60.5733 74.7513 56.5636C72.4908 56.5636 70.3291 56.5636 68.0561 56.5636C69.703 54.4994 71.5995 52.5906 72.4181 49.73C71.2304 49.8677 70.1838 50.0812 69.1343 50.0959C62.7508 50.1853 56.3666 50.2241 49.9827 50.2959C49.1993 50.3047 48.3986 50.322 47.6371 50.4837C43.2339 51.4186 40.5851 54.8161 40.5624 59.4885C40.5437 63.3383 43.4127 66.962 47.5974 67.6779C53.5523 68.6965 58.6364 66.8458 62.57 62.1254C63.4686 61.0471 63.512 61.0111 64.8087 61.0289C64.1632 62.8752 62.8402 64.1789 61.4322 65.3316C57.347 68.676 52.6156 69.9583 47.4423 69.0547C43.3511 68.34 40.4597 65.8162 39.4534 61.785C38.4719 57.8529 39.3684 54.1031 42.6149 51.4106C48.515 46.5175 54.4999 41.7248 60.5316 36.9958C62.716 35.2831 63.8763 33.1712 64.2727 30.4738C64.439 29.3421 64.9366 28.2594 65.32 27.0386C62.8703 25.7065 60.3378 24.0923 57.2785 23.594C55.3523 23.2803 53.8524 23.7064 52.6916 25.3409C52.4274 25.713 51.8937 26.0081 51.4344 26.1076C41.9608 28.1593 32.4798 30.1768 23.0006 32.2028C20.4301 32.7521 19.2543 33.9051 19.1673 36.1645C20.7248 35.8596 22.2428 35.5847 23.7509 35.2634C32.9336 33.3069 42.1141 31.3407 51.2949 29.3757C53.0686 28.9961 54.4386 29.5424 55.0923 30.9005C55.8055 32.3825 55.3941 33.977 54.0104 35.1129C48.6944 39.4769 43.4278 43.9034 38.0483 48.1869C33.9352 51.4619 32.9038 55.9211 33.1338 60.7654C33.3668 65.6734 35.2661 69.877 39.4725 72.753C41.6512 74.2426 44.1079 75.0024 46.687 75.3411C47.9661 75.509 48.5614 76.0643 48.5101 77.3877C48.454 78.8354 48.5185 80.2872 48.4917 81.7365C48.4592 83.4969 47.4647 84.7298 45.7415 84.8556C37.5788 85.4519 29.8158 84.3384 23.2484 78.9217C21.4048 77.4011 19.8413 75.5381 18.0924 73.7573ZM24.5964 44.4237C26.1395 46.0391 27.8104 47.3952 30.2127 47.3813C33.6715 47.3613 36.6385 46.1617 38.9254 43.5451C41.9767 40.0538 44.9447 36.4891 47.9401 32.9487C48.3922 32.4144 48.7987 31.8413 49.3917 31.0714C39.3234 33.2294 29.5742 35.319 19.4109 37.4973C21.2075 39.9055 22.8403 42.0941 24.5964 44.4237ZM51.1427 30.9315C50.3912 31.6431 50.0212 32.5501 50.7566 33.3476C51.2008 33.8294 52.094 34.1735 52.7466 34.118C53.7928 34.029 54.3417 32.7876 53.9953 31.7903C53.6204 30.7107 52.6917 30.376 51.1427 30.9315Z" fill="#F79239"/>
</svg>
