<svg width="100" height="100" viewBox="0 0 100 100" fill="none" xmlns="http://www.w3.org/2000/svg">
<rect width="100" height="100" rx="24" fill="white"/>
<path d="M52.2672 64.126C50.5562 65.1207 48.7721 65.6872 46.7599 65.5864C43.0848 65.4024 40.9847 61.1405 43.2642 58.2143C44.3246 56.8532 45.8107 56.0723 47.4536 55.5213C49.9027 54.6998 52.4539 54.4821 55.0288 54.4316C55.8914 54.4147 56.7548 54.4289 57.6825 54.4289C57.5539 58.5656 55.8919 61.8127 52.2672 64.126Z" fill="#E31937"/>
<path d="M94 47.9367C94 49.6341 94 51.3315 93.9647 53.0936C93.6442 57.3236 92.8251 61.3769 91.3852 65.3003C85.7954 80.5302 71.5161 91.8161 55.4195 93.7293C54.7789 93.8054 54.1416 93.9091 53.5027 94C50.9097 94 48.3166 94 45.66 93.965C45.3275 93.8952 45.059 93.8558 44.7894 93.8264C38.9176 93.1863 33.4212 91.3902 28.2985 88.4545C15.6709 81.2181 7.29369 67.9047 6.17112 53.3088C6.13904 52.8917 6.05814 52.4784 6 52.0632C6 51.8987 6 51.7342 6.03469 51.5059C6.07738 50.4853 6.08685 49.5285 6.08935 48.5717C6.08949 48.5201 6.03113 48.4683 6 48.4166C6 48.2206 6 48.0247 6.03473 47.7653C6.25209 44.3901 6.76052 41.1313 7.67419 37.9403C12.808 20.0102 28.5501 7.84211 47.0203 6.17931C47.5191 6.13441 48.0152 6.06042 48.5125 6C48.7716 6 49.0308 6 49.363 6.02672C49.8926 6.06603 50.3492 6.09445 50.8051 6.08633C51.1929 6.07943 51.5799 6.03039 51.9673 6C52.3535 6 52.7397 6 53.1899 6.03583C56.839 6.30784 60.3427 6.95981 63.7574 8.09004C80.1967 13.5313 92.5112 29.2786 93.8247 46.5425C93.8602 47.009 93.9406 47.4721 94 47.9367ZM75.6652 46.835C75.569 43.5294 75.3196 40.2423 74.5143 37.0192C72.9917 30.9254 69.5273 26.3793 63.8396 23.6003C59.9614 21.7054 55.8248 20.8183 51.5524 20.5116C47.3696 20.2113 43.2283 20.5358 39.1546 21.5558C35.9963 22.3466 33.0079 23.5418 30.3344 25.4379C29.1552 26.2743 28.1525 27.2645 27.7268 28.7048C27.3874 29.8529 27.4667 31.0105 27.691 32.1648C28.0261 33.8896 28.464 35.583 29.423 37.0854C30.5737 38.8881 32.2324 39.6094 34.2751 39.0244C35.5955 38.6462 36.8619 38.0617 38.1259 37.5089C39.4526 36.9288 40.7036 36.1465 42.0663 35.6843C44.321 34.9196 46.6769 34.7309 49.0569 34.9561C50.6559 35.1075 52.1656 35.5333 53.4549 36.5191C56.4085 38.7774 56.765 42.0334 56.8676 45.4211C55.9781 45.4619 55.1512 45.5068 54.3237 45.5366C50.5084 45.6738 46.6867 45.652 42.8853 46.105C39.6081 46.4955 36.4594 47.3304 33.4059 48.5798C30.0079 49.97 27.535 52.3304 25.9811 55.6226C23.9475 59.9313 23.7034 64.4002 25.085 68.9419C26.3176 72.994 28.6903 76.1745 32.517 78.1266C36.0524 79.9302 39.8046 80.0421 43.6239 79.3541C47.2421 78.7023 50.3297 76.973 53.0359 74.5439C54.5939 73.1454 56.0786 71.6651 57.597 70.2224C57.7152 70.1101 57.8395 70.0042 58.0014 69.8592C58.1415 70.9932 58.255 72.0387 58.4027 73.0793C58.6611 74.9006 59.5483 76.3128 61.2047 77.1707C61.8661 77.5133 62.5506 77.8332 63.2575 78.0618C64.7034 78.5294 66.199 78.5887 67.7077 78.4557C69.6711 78.2826 71.535 77.7999 73.2051 76.7136C74.3827 75.9477 75.1972 74.9054 75.3876 73.4884C75.5296 72.4315 75.6329 71.3606 75.6365 70.2955C75.663 62.5072 75.6598 54.7188 75.6652 46.835Z" fill="#E31836"/>
<path d="M75.6656 46.8827C75.6599 54.7188 75.663 62.5072 75.6366 70.2955C75.6329 71.3606 75.5296 72.4316 75.3876 73.4884C75.1972 74.9054 74.3827 75.9478 73.2051 76.7136C71.535 77.7999 69.6712 78.2826 67.7077 78.4557C66.199 78.5887 64.7034 78.5294 63.2575 78.0618C62.5506 77.8332 61.8662 77.5133 61.2047 77.1708C59.5483 76.3128 58.6612 74.9006 58.4027 73.0794C58.2551 72.0387 58.1415 70.9932 58.0014 69.8592C57.8395 70.0042 57.7152 70.1101 57.597 70.2224C56.0786 71.6651 54.5939 73.1454 53.0359 74.5439C50.3297 76.973 47.2421 78.7023 43.6239 79.3541C39.8046 80.0421 36.0524 79.9302 32.517 78.1267C28.6903 76.1745 26.3176 72.994 25.085 68.9419C23.7034 64.4002 23.9475 59.9313 25.9811 55.6227C27.535 52.3305 30.0079 49.97 33.4059 48.5798C36.4594 47.3304 39.6081 46.4955 42.8853 46.105C46.6867 45.6521 50.5084 45.6738 54.3237 45.5366C55.1512 45.5069 55.9781 45.4619 56.8676 45.4211C56.765 42.0334 56.4086 38.7774 53.4549 36.5191C52.1656 35.5333 50.6559 35.1075 49.0569 34.9562C46.6769 34.7309 44.321 34.9196 42.0663 35.6843C40.7036 36.1465 39.4526 36.9288 38.1259 37.5089C36.8619 38.0617 35.5955 38.6462 34.2751 39.0244C32.2324 39.6094 30.5737 38.8881 29.4231 37.0854C28.464 35.583 28.0261 33.8896 27.691 32.1648C27.4667 31.0105 27.3874 29.853 27.7268 28.7048C28.1525 27.2645 29.1552 26.2743 30.3344 25.4379C33.0079 23.5418 35.9963 22.3466 39.1546 21.5558C43.2283 20.5358 47.3696 20.2113 51.5524 20.5116C55.8248 20.8183 59.9614 21.7054 63.8396 23.6003C69.5273 26.3793 72.9918 30.9254 74.5143 37.0192C75.3196 40.2424 75.569 43.5294 75.6656 46.8827ZM51.9778 63.8335C55.2208 61.6362 56.7215 58.5271 56.8377 54.5663C56 54.5663 55.2204 54.5526 54.4415 54.5689C52.1164 54.6172 49.8128 54.8256 47.6014 55.6122C46.118 56.1398 44.7761 56.8875 43.8186 58.1908C41.7603 60.9926 43.6566 65.0733 46.975 65.2495C48.792 65.346 50.403 64.8036 51.9778 63.8335Z" fill="#FCFEFD"/>
</svg>
