<svg width="100" height="100" viewBox="0 0 100 100" fill="none" xmlns="http://www.w3.org/2000/svg">
<g clip-path="url(#clip0_386_2907)">
<rect width="100" height="100" rx="24" fill="white"/>
<path fill-rule="evenodd" clip-rule="evenodd" d="M-7 38.1495H21.9235V57.2185H-7V38.1495Z" fill="#E20620"/>
<path fill-rule="evenodd" clip-rule="evenodd" d="M10.2088 44.15C9.99887 44.2994 9.89777 44.4782 9.90525 44.687C9.79101 46.3111 9.75271 47.9354 9.84949 49.5596L9.71939 50.3317C9.69853 50.5742 9.73639 50.8185 9.90299 51.0663C9.99229 51.1692 10.0154 51.0176 9.97847 50.9604C9.77039 50.4654 9.86287 50.2836 10.0499 50.3022C10.0911 50.5833 10.1457 50.6538 10.2133 50.5135C10.274 50.2528 10.2421 49.9162 10.1578 49.537C10.4993 48.2196 10.3182 47.5065 10.6349 45.6007C10.6918 45.522 10.7487 45.4747 10.8053 45.6472C10.8573 46.2059 10.8566 46.7911 10.8029 47.4029C9.93948 51.0853 10.7865 51.1429 10.9509 53.3416C10.7686 54.2117 11.2131 55.3011 11.2365 56.3966C11.0069 56.6581 10.9076 56.9308 10.9155 57.2189L13.7076 57.2323C13.5924 57.1437 13.7309 57.0566 13.3585 56.958C13.0396 56.8839 12.4636 56.6022 12.4911 56.2907C13.0505 54.3536 12.6787 53.9679 13.0317 52.6065C13.432 51.0674 13.7327 49.4851 13.152 47.5217C13.1226 46.8854 13.1797 46.2347 13.3084 45.5721L14.0338 44.9044C14.1045 44.4744 14.0383 44.0725 12.5507 43.5646L12.4913 43.1758C12.7123 43.1901 12.8807 43.2134 12.904 42.9641C12.8732 42.8372 12.9213 42.7105 12.9299 42.5835C12.9013 42.4081 13.296 42.6486 12.8442 42.0572C12.9532 40.9434 11.7734 41.1821 11.5116 41.3072C10.9969 41.6193 11.0134 42.2692 11.5135 42.861C11.5746 43.1484 11.5522 43.393 11.455 43.6208C11.0254 43.708 10.6129 43.9043 10.2088 44.15ZM11.8541 49.8561C11.9049 49.826 11.9509 49.833 11.9947 49.8568C11.9432 50.8115 11.9768 51.7588 12.0767 52.6759C11.9171 53.9293 11.9214 55.1121 11.9876 56.3896C11.8673 56.6844 11.7666 56.6826 11.6857 56.3837C11.7666 54.7077 11.7691 54.2605 11.7329 53.0766C11.7968 52.1588 11.8562 50.8002 11.8541 49.8561Z" fill="white"/>
<path fill-rule="evenodd" clip-rule="evenodd" d="M14.116 45.1477L13.485 45.5859C13.4238 46.1464 13.4448 46.6834 13.5221 47.2045C13.3855 48.2535 13.6604 48.6495 13.73 49.4838C13.7687 50.2495 13.7581 50.1761 13.6706 50.4639C13.725 50.5881 13.798 50.4567 13.8526 50.3823L13.8934 50.2561C14.1822 50.315 13.9727 50.7946 13.8562 51.0136C13.8193 51.0728 13.8567 51.1641 13.9238 51.0868C14.075 50.7921 14.1903 50.5795 14.1532 50.2787L14.0122 49.4766C14.1718 48.7383 14.1792 47.9749 14.1013 47.1972C14.1863 46.5367 14.1695 45.8474 14.116 45.1477Z" fill="white"/>
<path fill-rule="evenodd" clip-rule="evenodd" d="M14.2905 45.089L14.3055 46.026C14.2543 45.9671 14.3551 46.0879 14.3055 46.026C14.6187 46.3862 14.9612 46.6936 15.325 46.9633C15.9701 47.8017 16.4445 47.8874 17.0837 48.428C17.6527 48.9419 17.5931 48.8977 17.7347 49.1631C17.861 49.2125 17.8197 49.0679 17.8057 48.9768L17.7451 48.8584C17.9909 48.6959 18.1819 49.183 18.2545 49.4204C18.2701 49.4884 18.3612 49.5264 18.354 49.4244C18.2524 49.1091 18.1837 48.8773 17.9448 48.6909L17.278 48.2233C16.8689 47.5884 16.3341 47.0433 15.7292 46.5485C15.3225 46.0215 14.8234 45.5459 14.2905 45.089Z" fill="white"/>
<path fill-rule="evenodd" clip-rule="evenodd" d="M14.0051 44.1331L14.3288 44.8009C14.4077 44.8095 14.4081 44.7955 14.4859 44.8009C14.9621 44.834 15.4218 44.8093 15.8695 44.7429C16.9185 44.8795 17.3145 44.6046 18.1488 44.535C18.9145 44.4963 18.841 44.5069 19.1289 44.5944C19.2531 44.54 19.1217 44.467 19.0473 44.4124L18.9211 44.3716C18.98 44.0828 19.4596 44.2923 19.6786 44.4088C19.7377 44.4457 19.8291 44.4083 19.7518 44.3412C19.4571 44.19 19.2445 44.0747 18.9437 44.1118L18.1416 44.2528C17.4033 44.0932 16.6399 44.0858 15.8622 44.1637C15.2019 44.0785 14.7051 44.0796 14.0051 44.1331Z" fill="white"/>
<path d="M26.837 53.404C26.837 54.0414 26.9938 54.5367 27.3077 54.8921C27.6214 55.2475 28.058 55.4241 28.617 55.4241C29.1784 55.4241 29.6147 55.2475 29.9285 54.8921C30.2422 54.5367 30.3992 54.0414 30.3992 53.404C30.3992 52.7666 30.2399 52.2664 29.9212 51.8987C29.6025 51.5336 29.1637 51.3495 28.6047 51.3495C28.063 51.3495 27.6339 51.5334 27.3152 51.9035C26.9963 52.2714 26.837 52.7716 26.837 53.404ZM24.969 56.9391V45.8066H26.9303V49.8198C26.9303 50.0403 26.9229 50.2586 26.9059 50.4769C26.8886 50.6951 26.8666 50.906 26.8372 51.1118C27.1731 50.6043 27.5358 50.2366 27.9281 50.0036C28.3203 49.7708 28.7715 49.6554 29.2788 49.6554C30.2839 49.6554 31.0684 49.9864 31.6323 50.6507C32.1938 51.3126 32.4757 52.2394 32.4757 53.4258C32.4757 54.5707 32.1913 55.4876 31.6201 56.1814C31.0514 56.8727 30.3011 57.2184 29.372 57.2184C28.813 57.2184 28.3375 57.1155 27.9476 56.9069C27.5555 56.6986 27.2221 56.3725 26.9448 55.9264L26.9596 56.9389H24.969V56.9391ZM38.8888 52.6857C38.8324 52.2419 38.6705 51.9062 38.4035 51.6782C38.1388 51.4502 37.7759 51.3375 37.315 51.3375C36.8565 51.3375 36.4888 51.4502 36.2144 51.6782C35.9374 51.9062 35.7633 52.2421 35.6849 52.6857H38.8888ZM40.9138 53.9213H35.6209C35.7019 54.4288 35.8857 54.8087 36.1749 55.0587C36.4616 55.3112 36.8515 55.4363 37.3443 55.4363C37.7169 55.4363 38.0406 55.3652 38.3101 55.2205C38.5798 55.0784 38.8079 54.8601 38.9892 54.5684L40.6416 55.3921C40.2592 56.0123 39.7934 56.4708 39.2492 56.7698C38.7025 57.069 38.0528 57.2184 37.3026 57.2184C36.1627 57.2184 35.2605 56.8777 34.5937 56.1986C33.9293 55.5195 33.5959 54.6051 33.5959 53.4553C33.5959 52.3496 33.9441 51.4402 34.6402 50.7267C35.3363 50.0131 36.2289 49.6554 37.3173 49.6554C38.4377 49.6554 39.3226 49.9889 39.9748 50.6582C40.6244 51.3251 40.9505 52.2369 40.9505 53.3893C40.9505 53.453 40.9481 53.5192 40.9433 53.5951C40.9383 53.6688 40.9286 53.7767 40.9138 53.9213ZM42.4631 56.9391V49.8934H44.4659V50.9991C44.8361 50.5408 45.2309 50.1999 45.655 49.9818C46.0791 49.7636 46.5499 49.6559 47.0671 49.6559C47.6139 49.6559 48.0724 49.749 48.4425 49.9329C48.8127 50.1167 49.1069 50.3987 49.3227 50.7763C49.4281 50.9724 49.504 51.1954 49.5482 51.4407C49.5949 51.6882 49.6169 52.0755 49.6169 52.6003V52.8233V56.9394H47.5699V53.4557C47.5699 52.5903 47.4695 52.0166 47.2684 51.7396C47.0674 51.4626 46.7217 51.3228 46.2339 51.3228C45.9519 51.3228 45.6922 51.3817 45.4544 51.4994C45.2191 51.617 45.0206 51.7813 44.8635 51.9971C44.7384 52.1662 44.6477 52.3575 44.5938 52.5733C44.5373 52.7891 44.5103 53.115 44.5103 53.5564V53.8358V56.9396H42.4631V56.9391ZM56.7508 53.404C56.7508 52.7716 56.5914 52.2714 56.2727 51.9037C55.9565 51.5336 55.525 51.3498 54.9857 51.3498C54.4293 51.3498 53.9929 51.5336 53.6742 51.899C53.3555 52.2666 53.1962 52.7669 53.1962 53.4043C53.1962 54.0416 53.353 54.5369 53.667 54.8923C53.9807 55.2477 54.4147 55.4243 54.9712 55.4243C55.5352 55.4243 55.974 55.2477 56.2852 54.8923C56.5964 54.5367 56.7508 54.0414 56.7508 53.404ZM58.6187 56.9391H56.6354L56.6649 55.9266C56.3879 56.3727 56.0544 56.6989 55.6621 56.9072C55.2722 57.1155 54.7967 57.2186 54.2377 57.2186C53.3036 57.2186 52.5511 56.8704 51.9774 56.1766C51.4062 55.4828 51.1195 54.5659 51.1195 53.426C51.1195 52.2394 51.4014 51.3128 51.9629 50.6509C52.5268 49.9866 53.3088 49.6557 54.3091 49.6557C54.8314 49.6557 55.2897 49.7733 55.6845 50.0063C56.0792 50.2416 56.4126 50.5922 56.6798 51.0555V49.8934H58.6189V56.9391H58.6187ZM62.2789 56.9391L59.4132 49.8934H61.7764L62.9678 53.5561C63.0634 53.8528 63.1418 54.1298 63.1983 54.3823C63.2547 54.6373 63.2964 54.8848 63.3209 55.1301C63.3773 54.76 63.4361 54.446 63.4925 54.1888C63.5514 53.9288 63.6176 53.696 63.6936 53.4852L64.8949 49.8937H67.2214L64.3262 56.9394H62.2789V56.9391ZM68.0009 47.0007C68.0009 46.6745 68.1185 46.3928 68.3538 46.1598C68.5868 45.9245 68.8686 45.8069 69.1947 45.8069C69.5232 45.8069 69.8076 45.922 70.0454 46.155C70.2832 46.3878 70.4008 46.6698 70.4008 47.0007C70.4008 47.3292 70.2832 47.6136 70.0454 47.8464C69.8076 48.0817 69.5232 48.1993 69.1947 48.1993C68.8688 48.1993 68.5868 48.0792 68.3538 47.8389C68.1185 47.6014 68.0009 47.3194 68.0009 47.0007ZM68.1822 56.9391V49.8934H70.222V56.9391H68.1822ZM77.4932 53.404C77.4932 52.7716 77.3339 52.2714 77.0152 51.9037C76.699 51.5336 76.2674 51.3498 75.7282 51.3498C75.1717 51.3498 74.7354 51.5311 74.4167 51.8915C74.098 52.2544 73.9386 52.7544 73.9386 53.3893C73.9386 54.0267 74.0955 54.5267 74.4094 54.8848C74.7231 55.2452 75.1572 55.4241 75.7137 55.4241C76.2776 55.4241 76.7164 55.2475 77.0276 54.8921C77.3389 54.5367 77.4932 54.0414 77.4932 53.404ZM79.3614 56.9391H77.3781L77.4075 55.9266C77.1305 56.3727 76.7971 56.6989 76.4048 56.9072C76.0149 57.1155 75.5393 57.2186 74.9804 57.2186C74.0463 57.2186 73.2938 56.8704 72.7201 56.1766C72.1489 55.4828 71.8621 54.5659 71.8621 53.426C71.8621 52.2347 72.1441 51.3053 72.7056 50.6387C73.2695 49.9744 74.0515 49.6409 75.0518 49.6409C75.5641 49.6409 76.0154 49.7586 76.4025 49.9916C76.7899 50.2269 77.155 50.5972 77.4934 51.1045C77.4715 50.9329 77.4517 50.7441 77.4395 50.5358C77.4273 50.3275 77.4223 50.0897 77.4223 49.82V45.8069H79.3614V56.9391ZM86.2183 52.6857C86.1618 52.2419 86 51.9062 85.733 51.6782C85.4682 51.4502 85.1053 51.3375 84.6445 51.3375C84.1862 51.3375 83.8183 51.4502 83.5438 51.6782C83.2669 51.9062 83.0928 52.2421 83.0143 52.6857H86.2183ZM88.2433 53.9213H82.9504C83.0313 54.4288 83.2152 54.8087 83.5044 55.0587C83.7911 55.3112 84.181 55.4363 84.6738 55.4363C85.0464 55.4363 85.3701 55.3652 85.6396 55.2205C85.9093 55.0784 86.1374 54.8601 86.3187 54.5684L87.9711 55.3921C87.5887 56.0123 87.1229 56.4708 86.5787 56.7698C86.0319 57.069 85.3823 57.2184 84.6321 57.2184C83.4922 57.2184 82.59 56.8777 81.9232 56.1986C81.2588 55.5195 80.9254 54.6051 80.9254 53.4553C80.9254 52.3496 81.2736 51.4402 81.9696 50.7267C82.666 50.0133 83.5584 49.6554 84.6468 49.6554C85.7672 49.6554 86.6521 49.9889 87.3042 50.6582C87.9539 51.3251 88.28 52.2369 88.28 53.3893C88.28 53.453 88.2775 53.5192 88.2728 53.5951C88.2678 53.6688 88.258 53.7767 88.2433 53.9213ZM89.1037 55.7036L90.6777 54.8921C90.7292 55.1643 90.8713 55.3799 91.1018 55.5367C91.3298 55.6961 91.6141 55.7745 91.955 55.7745C92.2909 55.7745 92.5531 55.7133 92.7444 55.5907C92.9358 55.4706 93.0314 55.3015 93.0314 55.0857C93.0314 54.745 92.6907 54.4605 92.0116 54.23C91.8008 54.1588 91.634 54.1001 91.5091 54.0509C90.6804 53.7395 90.1092 53.4258 89.7905 53.1121C89.4718 52.7959 89.3125 52.406 89.3125 51.9402C89.3125 51.2514 89.5822 50.6924 90.124 50.2683C90.6657 49.8418 91.3792 49.6285 92.2641 49.6285C92.8965 49.6285 93.4433 49.7558 93.9043 50.0084C94.3676 50.2609 94.7035 50.6213 94.9143 51.0846L93.414 51.8323C93.3331 51.5701 93.191 51.369 92.9899 51.2317C92.7889 51.0968 92.5364 51.0281 92.2349 51.0281C91.9334 51.0281 91.6907 51.0893 91.5019 51.2144C91.3155 51.3396 91.2224 51.5012 91.2224 51.7022C91.2224 52.0529 91.6857 52.3788 92.6148 52.6803C92.7252 52.7123 92.8084 52.7392 92.8673 52.7587C93.6371 53.0112 94.1863 53.3079 94.5122 53.6461C94.8384 53.982 95 54.4134 95 54.9331C95 55.6342 94.7303 56.1884 94.1885 56.6003C93.6468 57.0121 92.9163 57.2182 91.9994 57.2182C91.2713 57.2182 90.6487 57.0833 90.1337 56.8136C89.6187 56.542 89.2753 56.1719 89.1037 55.7036Z" fill="#0060A9"/>
<path d="M29.7095 47.2663V45.6241H29.3695V44.666H29.7095V44.3715C29.7095 44.0127 29.8056 43.7371 29.9987 43.544C30.1919 43.3509 30.4684 43.2548 30.8288 43.2548C30.9224 43.2548 31.0167 43.26 31.1103 43.2702C31.2039 43.2797 31.2991 43.2951 31.3945 43.3148V44.2936C31.3807 44.2918 31.3628 44.2902 31.3397 44.2868C31.2769 44.2782 31.2359 44.2739 31.2134 44.2739C31.1266 44.2739 31.0641 44.297 31.0271 44.3443C30.9902 44.3915 30.9723 44.4722 30.9723 44.5882V44.6664H31.3945V45.6246H30.9723V47.2668H29.7095V47.2663ZM33.5549 45.958C33.5549 46.0688 33.585 46.1581 33.6442 46.2259C33.7034 46.2937 33.7825 46.3281 33.8795 46.3281C33.9783 46.3281 34.0572 46.2946 34.1157 46.2277C34.1748 46.1608 34.2041 46.0706 34.2041 45.9582C34.2041 45.8449 34.1739 45.7531 34.1148 45.6844C34.0556 45.6157 33.9765 45.5813 33.8795 45.5813C33.7825 45.5813 33.7036 45.6164 33.6442 45.686C33.5848 45.7553 33.5549 45.8465 33.5549 45.958ZM34.2442 47.2663V46.8739C34.1179 47.0414 33.9867 47.165 33.8493 47.2448C33.712 47.3246 33.5601 47.364 33.3944 47.364C33.0923 47.364 32.8425 47.2362 32.6432 46.9793C32.4449 46.7228 32.3454 46.392 32.3454 45.9886C32.3454 45.5654 32.4424 45.2254 32.6355 44.9688C32.8296 44.7113 33.0818 44.5826 33.3944 44.5826C33.5549 44.5826 33.7009 44.6177 33.833 44.6873C33.9643 44.7569 34.0862 44.8641 34.1986 45.0101V44.6658H35.4081V47.2661L34.2442 47.2663ZM36.6559 47.2663V44.666H37.8808V45.0309C37.9898 44.8815 38.1118 44.7691 38.2458 44.6943C38.3797 44.6195 38.5282 44.5828 38.6914 44.5828C38.7163 44.5828 38.7351 44.5828 38.7471 44.5837C38.7601 44.5846 38.7712 44.5862 38.7814 44.588V45.8508C38.7109 45.8122 38.6465 45.7839 38.5873 45.7649C38.5289 45.7467 38.4758 45.7374 38.4269 45.7374C38.2655 45.7374 38.141 45.7812 38.0533 45.868C37.9649 45.9555 37.9212 46.0774 37.9212 46.2354V47.2665H36.6559V47.2663ZM39.883 47.2663V44.666H41.0882V45.0309C41.187 44.8763 41.2958 44.763 41.4143 44.6909C41.5335 44.6188 41.6702 44.5828 41.8246 44.5828C42.0066 44.5828 42.1585 44.6275 42.2804 44.7159C42.4015 44.8052 42.5003 44.9441 42.5758 45.1338C42.6746 44.9527 42.7956 44.8154 42.9389 44.7227C43.0821 44.629 43.2428 44.5828 43.4205 44.5828C43.6755 44.5828 43.8789 44.6669 44.031 44.8353C44.1828 45.0044 44.2585 45.2311 44.2585 45.516V47.2663H43.0386V45.9589C43.0386 45.8258 43.0266 45.7365 43.0026 45.6894C42.9776 45.6422 42.9364 45.6189 42.8772 45.6189C42.8104 45.6189 42.7605 45.6463 42.7279 45.7021C42.6952 45.7569 42.6789 45.8428 42.6789 45.9587V47.2661H41.4771V45.9587C41.4771 45.829 41.4651 45.7406 41.4411 45.6916C41.4161 45.6427 41.3742 45.6187 41.3141 45.6187C41.2455 45.6187 41.1949 45.6461 41.1623 45.7019C41.1296 45.7567 41.1133 45.8426 41.1133 45.9584V47.2658H39.883V47.2663ZM46.6136 45.958C46.6136 46.0688 46.6437 46.1581 46.7029 46.2259C46.7621 46.2937 46.8412 46.3281 46.9382 46.3281C47.037 46.3281 47.1159 46.2946 47.1744 46.2277C47.2335 46.1608 47.2628 46.0706 47.2628 45.9582C47.2628 45.8449 47.2326 45.7531 47.1735 45.6844C47.1143 45.6157 47.0352 45.5813 46.9382 45.5813C46.8412 45.5813 46.7623 45.6164 46.7029 45.686C46.6437 45.7553 46.6136 45.8465 46.6136 45.958ZM47.3029 47.2663V46.8739C47.1766 47.0414 47.0454 47.165 46.908 47.2448C46.7707 47.3246 46.6188 47.364 46.4531 47.364C46.151 47.364 45.9012 47.2362 45.7019 46.9793C45.5036 46.7228 45.4041 46.392 45.4041 45.9886C45.4041 45.5654 45.5011 45.2254 45.6942 44.9688C45.8883 44.7113 46.1405 44.5826 46.4531 44.5826C46.6136 44.5826 46.7596 44.6177 46.8917 44.6873C47.0229 44.7569 47.1449 44.8641 47.2573 45.0101V44.6658H48.4668V47.2661L47.3029 47.2663ZM51.6821 45.7769C51.6152 45.7184 51.5465 45.6746 51.476 45.6456C51.4055 45.6164 51.3319 45.6019 51.2546 45.6019C51.1267 45.6019 51.0254 45.6363 50.9499 45.7041C50.8745 45.7719 50.8366 45.8621 50.8366 45.9736C50.8366 46.0808 50.8736 46.1686 50.9474 46.2363C51.0213 46.3041 51.1165 46.3386 51.2342 46.3386C51.3081 46.3386 51.3826 46.3222 51.4574 46.2896C51.532 46.257 51.6068 46.208 51.6823 46.1445V47.1781C51.5517 47.2416 51.4257 47.289 51.3038 47.3189C51.1818 47.349 51.0626 47.3644 50.945 47.3644C50.7527 47.3644 50.5741 47.3318 50.4093 47.2674C50.2455 47.2031 50.0995 47.1079 49.9723 46.9825C49.8375 46.8476 49.7355 46.6958 49.665 46.5258C49.5945 46.3558 49.5593 46.1747 49.5593 45.984C49.5593 45.851 49.5766 45.7232 49.6108 45.5978C49.6452 45.4734 49.6967 45.3539 49.7654 45.2424C49.8966 45.0286 50.0632 44.8664 50.265 44.753C50.4667 44.6397 50.6934 44.583 50.945 44.583C51.0558 44.583 51.1725 44.595 51.2936 44.6182C51.4155 44.6413 51.5452 44.6773 51.6825 44.7263V45.7769H51.6821ZM54.1566 43.8566C54.1566 44.0429 54.0956 44.1904 53.9728 44.3004C53.8508 44.4103 53.6851 44.4652 53.4775 44.4652C53.2681 44.4652 53.1005 44.4103 52.977 44.2995C52.8526 44.1886 52.7907 44.0411 52.7907 43.8566C52.7907 43.6721 52.8517 43.527 52.9743 43.4205C53.0962 43.3139 53.2644 43.2609 53.4773 43.2609C53.6885 43.2609 53.8542 43.3141 53.9753 43.4205C54.0963 43.5268 54.1566 43.6721 54.1566 43.8566ZM52.844 47.2663V44.666H54.1067V47.2663H52.844ZM56.4978 45.958C56.4978 46.0688 56.528 46.1581 56.5871 46.2259C56.6463 46.2937 56.7254 46.3281 56.8224 46.3281C56.9212 46.3281 57.0001 46.2946 57.0586 46.2277C57.1178 46.1608 57.147 46.0706 57.147 45.9582C57.147 45.8449 57.1168 45.7531 57.0577 45.6844C56.9985 45.6157 56.9194 45.5813 56.8224 45.5813C56.7254 45.5813 56.6465 45.6164 56.5871 45.686C56.5277 45.7556 56.4978 45.8465 56.4978 45.958ZM57.1871 47.2663V46.8739C57.0609 47.0414 56.9296 47.165 56.7923 47.2448C56.6549 47.3246 56.503 47.364 56.3373 47.364C56.0352 47.364 55.7854 47.2362 55.5862 46.9793C55.3878 46.7228 55.2883 46.392 55.2883 45.9886C55.2883 45.5654 55.3853 45.2254 55.5785 44.9688C55.7725 44.7113 56.0248 44.5826 56.3373 44.5826C56.4978 44.5826 56.6438 44.6177 56.7759 44.6873C56.9072 44.7569 57.0291 44.8641 57.1416 45.0101V44.6658H58.351V47.2661L57.1871 47.2663ZM59.325 47.08L59.6598 46.2774C59.799 46.371 59.9259 46.4421 60.0417 46.4911C60.1576 46.5401 60.2564 46.5641 60.3387 46.5641C60.4055 46.5641 60.4563 46.5512 60.4914 46.5256C60.5266 46.499 60.5447 46.463 60.5447 46.4156C60.5447 46.3503 60.4701 46.3023 60.3205 46.2724C60.2707 46.2628 60.2312 46.2542 60.2029 46.2474C59.9574 46.1874 59.7797 46.0981 59.6682 45.9795C59.5567 45.861 59.5007 45.7048 59.5007 45.5108C59.5007 45.2379 59.614 45.0146 59.8416 44.8421C60.0692 44.6696 60.3652 44.5828 60.731 44.5828C60.914 44.5828 61.0883 44.6 61.2555 44.6343C61.4221 44.6687 61.5783 44.7202 61.7243 44.7888L61.4153 45.5708C61.2977 45.4926 61.1921 45.4335 61.0985 45.394C61.0039 45.3546 60.9233 45.3349 60.8546 45.3349C60.797 45.3349 60.7517 45.3469 60.7163 45.3709C60.6812 45.3958 60.663 45.4276 60.663 45.4679C60.663 45.5332 60.7619 45.5872 60.96 45.6293C61.0064 45.6388 61.0432 45.6474 61.0699 45.6542C61.3231 45.7143 61.5094 45.8027 61.6289 45.9194C61.7483 46.0362 61.8075 46.188 61.8075 46.3762C61.8075 46.6681 61.6898 46.905 61.4555 47.0886C61.2202 47.2724 60.9103 47.3642 60.525 47.3642C60.3147 47.3642 60.1095 47.3402 59.9087 47.2921C59.707 47.2448 59.5129 47.1736 59.325 47.08Z" fill="#0060A9"/>
</g>
<defs>
<clipPath id="clip0_386_2907">
<rect width="100" height="100" rx="24" fill="white"/>
</clipPath>
</defs>
</svg>
