<svg width="100" height="100" viewBox="0 0 100 100" fill="none" xmlns="http://www.w3.org/2000/svg">
<rect width="100" height="100" rx="24" fill="white"/>
<path d="M52.72 96C35.7867 96 18.8933 96 2 96C2 64 2 32 2 0C34 0 66 0 98 0C98 32 98 64 98 96C82.92 96 67.84 96 52.72 96ZM42.7567 41.6335C42.0308 43.1015 41.3012 44.5677 40.5806 46.0382C40.2649 46.6823 39.9677 47.3355 39.6157 48.0139C38.4801 50.3124 37.3446 52.6108 36.1903 54.9472C44.4838 54.9472 52.7206 54.9472 61.0088 54.9472C58.5296 43.2196 56.0603 31.5385 53.5909 19.8574C53.558 19.8505 53.525 19.8436 53.492 19.8367C52.6376 21.5879 51.7831 23.339 50.8896 25.1289C50.2435 26.4566 49.5975 27.7842 48.9075 29.1459C47.3698 32.265 45.83 35.3831 44.2954 38.5037C43.816 39.4787 43.3507 40.4606 42.8403 41.4669C42.8268 41.5111 42.8132 41.5552 42.7567 41.6335ZM67.7653 8.19248C68.4706 11.209 69.1754 14.2257 69.8813 17.2421C71.1418 22.6284 72.4052 28.0141 73.6631 33.401C74.8663 38.5533 76.0631 43.7071 77.2645 48.8598C78.4812 54.078 79.7002 59.2956 80.9185 64.5134C80.9701 64.7347 81.0243 64.9555 81.0924 65.2396C81.2096 65.0858 81.2797 65.0061 81.3363 64.9178C82.548 63.0235 83.804 61.1558 84.9585 59.2273C86.9925 55.83 88.7108 52.2735 90.0659 48.549C92.0514 43.092 93.1964 37.496 92.8119 31.6519C92.6335 28.9405 92.1111 26.2984 91.1851 23.7441C89.6307 19.4564 87.1256 15.7984 83.8003 12.689C82.1003 11.0993 80.2637 9.69898 78.2179 8.58068C75.34 7.00752 72.2638 6.01638 69.0404 5.46257C68.4052 5.35344 67.7641 5.27886 67.0693 5.18034C67.3095 6.2126 67.5322 7.16969 67.7653 8.19248ZM34.6 69.2777C33.08 69.2778 31.5601 69.2806 30.0401 69.2747C29.8215 69.2738 29.6865 69.3201 29.5805 69.5443C27.6126 73.7074 25.6343 77.8654 23.6574 82.0242C23.0009 83.4052 22.3423 84.7852 21.6722 86.1918C22.0108 86.3878 22.3272 86.5807 22.6523 86.7577C26.0972 88.6338 29.8272 89.4724 33.7018 89.7546C37.5808 90.0371 41.4174 89.6779 45.223 88.9162C49.218 88.1166 53.0908 86.9113 56.7912 85.2164C59.0269 84.1924 61.1772 82.9819 63.366 81.8556C63.5781 81.7465 63.7404 81.6226 63.6803 81.3353C63.6041 80.971 63.5569 80.6005 63.4989 80.2324C63.0535 77.4067 62.6091 74.5808 62.1629 71.7551C62.033 70.9326 61.8982 70.1108 61.7639 69.2777C52.7046 69.2777 43.6923 69.2777 34.6 69.2777ZM30.9155 31.5175C34.5979 24.3307 38.2802 17.1438 41.9626 9.95703C41.7443 9.95793 41.608 10.0097 41.4801 10.0773C39.7747 10.9787 38.0381 11.8267 36.3722 12.7962C31.8125 15.4499 27.6926 18.6808 23.9751 22.4259C21.2632 25.158 18.8777 28.152 16.7438 31.3519C13.4238 36.3305 10.7201 41.6074 8.9952 47.3566C7.73592 51.554 7.06212 55.8329 7.17851 60.2292C7.27308 63.8012 7.90883 67.2638 9.13357 70.6181C9.35774 71.2321 9.62592 71.8299 9.90706 72.5165C10.1127 72.133 10.2733 71.8451 10.4233 71.5518C12.6107 67.2746 14.7948 62.9959 16.9835 58.7194C19.4331 53.9331 21.8869 49.1491 24.338 44.3636C26.522 40.0996 28.7048 35.835 30.9155 31.5175Z" fill="#FFFEFF"/>
<path d="M67.6957 8.97635C67.4662 7.98738 67.2419 7.03124 67 6C67.6998 6.09842 68.3454 6.17293 68.9851 6.28195C72.2315 6.83522 75.3294 7.82538 78.2278 9.39699C80.2881 10.5142 82.1378 11.9131 83.8499 13.5012C87.1988 16.6076 89.7217 20.262 91.2871 24.5454C92.2197 27.0972 92.7459 29.7367 92.9255 32.4455C93.3128 38.2838 92.1596 43.8743 90.16 49.3259C88.7953 53.0467 87.0648 56.5997 85.0164 59.9936C83.8536 61.9202 82.5887 63.7861 81.3683 65.6785C81.3114 65.7668 81.2408 65.8464 81.1227 66C81.0541 65.7162 80.9996 65.4956 80.9476 65.2745C79.7207 60.0619 78.493 54.8494 77.2677 49.6364C76.0577 44.4888 74.8524 39.3401 73.6407 34.1928C72.3738 28.8112 71.1015 23.4309 69.832 18.0498C69.1211 15.0364 68.4113 12.0227 67.6957 8.97635Z" fill="#CE162E"/>
<path d="M33.9614 70.0031C43.0092 70.0031 52.0171 70.0031 61.0719 70.0031C61.2061 70.8534 61.3409 71.6921 61.4707 72.5316C61.9167 75.4155 62.3609 78.2996 62.8061 81.1836C62.8641 81.5593 62.9113 81.9374 62.9874 82.3092C63.0474 82.6024 62.8853 82.7289 62.6733 82.8403C60.4855 83.9898 58.3363 85.2252 56.1017 86.2703C52.4031 88.0001 48.5323 89.2303 44.5392 90.0464C40.7355 90.8238 36.9008 91.1903 33.0237 90.902C29.151 90.614 25.4228 89.7582 21.9796 87.8434C21.6547 87.6627 21.3384 87.4659 21 87.2658C21.6698 85.8302 22.3281 84.4217 22.9842 83.0123C24.9602 78.7678 26.9375 74.5241 28.9044 70.2752C29.0104 70.0464 29.1453 69.9991 29.3638 70C30.883 70.0061 32.4022 70.0032 33.9614 70.0031Z" fill="#CE162E"/>
<path d="M30.8746 32.394C28.6648 36.6465 26.4694 40.873 24.2726 45.0989C21.8072 49.8415 19.3391 54.5828 16.8752 59.3263C14.6738 63.5645 12.4769 67.805 10.2768 72.0439C10.1259 72.3346 9.96428 72.6199 9.75748 73C9.4747 72.3196 9.20496 71.7271 8.97948 71.1186C7.74759 67.7943 7.10813 64.3627 7.01302 60.8226C6.89595 56.4656 7.57368 52.2249 8.84031 48.0651C10.5753 42.3673 13.2947 37.1376 16.6341 32.2036C18.7804 29.0322 21.1798 26.065 23.9075 23.3574C27.6468 19.6458 31.7907 16.4438 36.377 13.8138C38.0526 12.853 39.7993 12.0126 41.5147 11.1192C41.6433 11.0522 41.7804 11.0009 42 11C38.2962 18.1225 34.5923 25.2451 30.8746 32.394Z" fill="#CE162E"/>
<path d="M43 41.9867C43.4646 41.0335 43.9228 40.0773 44.3949 39.1279C45.9061 36.0889 47.4225 33.0525 48.9643 30.0041C48.9918 29.9931 49.0036 30.0044 48.9991 30.0344C48.8886 30.3637 48.8141 30.6789 48.6703 30.9593C48.3579 31.5686 47.9938 32.1521 47.6818 32.7616C47.4369 33.2403 47.2772 33.7638 47.0115 34.2293C46.4482 35.2163 46.0678 36.289 45.4842 37.2685C45.0347 38.0228 44.69 38.8389 44.3114 39.6335C43.9971 40.2929 43.7116 40.9659 43.3896 41.6215C43.3152 41.7729 43.1443 41.878 43.0134 42C43.009 41.9955 43 41.9867 43 41.9867Z" fill="#A72E3C"/>
<path d="M40 48.9809C40.285 48.2644 40.5688 47.5497 40.8702 46.8449C41.5583 45.2358 42.255 43.6315 42.972 42.009C42.9957 41.9927 43.0023 41.9974 42.9994 42.0324C42.8933 42.4318 42.7991 42.8 42.6845 43.1596C42.5664 43.5305 42.4295 43.8937 42.2981 44.259C42.2653 44.3498 42.2287 44.4407 42.1823 44.5229C41.9805 44.8803 41.7422 45.216 41.5765 45.5937C41.2075 46.4353 40.8852 47.3036 40.5201 48.1476C40.3886 48.4516 40.1891 48.717 40.0206 49C40.0206 49 40.0068 48.9873 40 48.9809Z" fill="#A72E3C"/>
<path d="M49 29.9828C49.6407 28.6603 50.2875 27.3436 50.9538 26.0077C50.9734 25.9885 50.9925 26.0064 51 26.0468C50.8497 26.4353 50.6969 26.7856 50.5331 27.1309C50.2932 27.6366 50.0441 28.138 49.8017 28.6426C49.6803 28.8951 49.5807 29.1592 49.4424 29.4019C49.322 29.6131 49.161 29.8015 49.0179 30C49.0179 30 49.006 29.9885 49 29.9828Z" fill="#A72E3C"/>
<path d="M42.9414 42.045C42.9667 41.978 42.9892 41.9425 43.0177 41.8863C43.1457 41.7378 43.3104 41.6316 43.3821 41.4786C43.6924 40.8163 43.9677 40.1364 44.2706 39.4701C44.6356 38.6674 44.9679 37.8429 45.4012 37.0808C45.9638 36.0912 46.3305 35.0075 46.8735 34.0103C47.1296 33.54 47.2835 33.0111 47.5196 32.5275C47.8203 31.9117 48.1713 31.3222 48.4725 30.7066C48.6111 30.4233 48.6829 30.1049 48.7893 29.7721C48.9293 29.545 49.082 29.3581 49.1962 29.1486C49.3273 28.9078 49.4218 28.6458 49.5369 28.3953C49.7668 27.8948 50.003 27.3974 50.2305 26.8957C50.3858 26.5532 50.5307 26.2056 50.6823 25.8292C50.8624 25.4796 51.0526 25.1678 51.2166 24.8417C51.76 23.7608 52.2939 22.6748 52.8316 21.5908C52.9123 21.4282 52.9935 21.2659 53.126 21C53.4656 22.7303 53.7815 24.3295 54.0927 25.9298C54.2264 26.6173 54.3414 27.3088 54.4811 27.995C54.5872 28.5154 54.7235 29.029 54.837 29.5479C54.8811 29.7498 54.8875 29.9606 54.932 30.1624C55.0588 30.7368 55.2082 31.306 55.3269 31.8821C55.5331 32.8833 55.7168 33.8894 55.9214 34.8909C56.1 35.7649 56.305 36.6331 56.4783 37.5081C56.6119 38.182 56.7031 38.8648 56.8342 39.5393C56.9504 40.1367 57.1055 40.7259 57.2256 41.3225C57.4325 42.3498 57.6157 43.3822 57.8279 44.4082C57.9721 45.1058 58.1635 45.7929 58.308 46.4905C58.632 48.0547 58.9374 49.6231 59.2555 51.1887C59.4197 51.9972 59.5951 52.8033 59.7648 53.6106C59.8467 54.0001 59.9351 54.3886 59.9993 54.7813C60.0089 54.84 59.9147 54.9528 59.846 54.9805C59.7578 55.0162 59.6467 54.992 59.5455 54.992C52.1823 54.9922 44.8191 54.9922 37.456 54.9923C37.3203 54.9923 37.1847 54.9923 37 54.9923C37.0289 54.839 37.0281 54.7331 37.0681 54.6478C37.445 53.8443 37.83 53.0448 38.2105 52.2431C38.6353 51.3479 39.0632 50.4542 39.4791 49.5546C39.6581 49.1673 39.8104 48.7667 39.9775 48.341C40.1477 48.0554 40.346 47.8168 40.4768 47.5434C40.8397 46.7846 41.1601 46.0038 41.527 45.2471C41.6916 44.9075 41.9285 44.6057 42.1291 44.2843C42.1753 44.2104 42.2117 44.1287 42.2442 44.047C42.3749 43.7186 42.5109 43.392 42.6284 43.0585C42.7424 42.7352 42.836 42.4041 42.9414 42.045Z" fill="#CE162E"/>
</svg>
