<svg width="100" height="100" viewBox="0 0 100 100" fill="none" xmlns="http://www.w3.org/2000/svg">
<g clip-path="url(#clip0_386_2917)">
<rect width="100" height="100" rx="24" fill="white"/>
<path fill-rule="evenodd" clip-rule="evenodd" d="M-51 0H100.569V99.9277H-51V0Z" fill="#E20620"/>
<path fill-rule="evenodd" clip-rule="evenodd" d="M39.1796 31.4445C38.0797 32.2273 37.55 33.1645 37.5892 34.2584C36.9905 42.7691 36.7898 51.2809 37.297 59.7927L36.6152 63.8384C36.5059 65.1093 36.7042 66.3898 37.5773 67.6881C38.0453 68.2273 38.1664 67.4327 37.9728 67.1333C36.8824 64.5392 37.367 63.5866 38.347 63.684C38.5632 65.1568 38.8494 65.5263 39.2034 64.791C39.5217 63.425 39.3542 61.6611 38.9124 59.6739C40.7024 52.7704 39.7533 49.0336 41.4127 39.0465C41.7108 38.6343 42.009 38.3861 42.3059 39.29C42.5779 42.2179 42.5744 45.2848 42.2929 48.4907C37.7685 67.7878 42.2073 68.0895 43.0685 79.6112C42.1135 84.1712 44.4428 89.8798 44.5651 95.6205C43.3619 96.9912 42.8416 98.4202 42.8832 99.9299L57.5146 99.9999C56.9112 99.5355 57.6369 99.0794 55.6854 98.5627C54.0141 98.1743 50.9959 96.6978 51.1396 95.0658C54.0711 84.9148 52.1232 82.8932 53.9726 75.7592C56.0702 67.694 57.6464 59.4019 54.6033 49.1131C54.4489 45.779 54.7482 42.3688 55.4229 38.8968L59.2239 35.3975C59.5944 33.1443 59.2476 31.0383 51.452 28.3764L51.1408 26.3393C52.2989 26.4142 53.1815 26.5365 53.3038 25.2299C53.1423 24.5648 53.3941 23.9008 53.4392 23.2356C53.2896 22.3162 55.3575 23.5765 52.9902 20.4775C53.5616 14.6406 47.3791 15.8914 46.0071 16.5471C43.3096 18.1827 43.3963 21.5881 46.0166 24.6895C46.3374 26.1956 46.2198 27.4773 45.7102 28.671C43.4593 29.1283 41.2975 30.1569 39.1796 31.4445ZM47.8019 61.3464C48.068 61.1884 48.3091 61.2252 48.5384 61.3499C48.2687 66.353 48.4445 71.3168 48.9683 76.1227C48.1321 82.6912 48.1547 88.8892 48.5015 95.5837C47.8708 97.129 47.3434 97.1195 46.9194 95.5528C47.3434 86.7702 47.3565 84.4266 47.1664 78.2227C47.5014 73.4133 47.8126 66.2936 47.8019 61.3464Z" fill="white"/>
<path fill-rule="evenodd" clip-rule="evenodd" d="M59.6548 36.6727L56.348 38.9688C56.0272 41.9062 56.1377 44.7201 56.5428 47.4509C55.8265 52.9481 57.2673 55.0232 57.632 59.3955C57.8351 63.4079 57.7793 63.023 57.3208 64.5315C57.6058 65.1825 57.9883 64.4935 58.2746 64.1039L58.4884 63.4423C60.0016 63.7511 58.9041 66.2645 58.2936 67.412C58.1 67.722 58.296 68.2007 58.6475 67.7956C59.4398 66.2515 60.0444 65.1373 59.8496 63.5611L59.1108 59.3574C59.947 55.4888 59.9862 51.4882 59.5776 47.4129C60.023 43.9516 59.9351 40.3395 59.6548 36.6727Z" fill="white"/>
<path fill-rule="evenodd" clip-rule="evenodd" d="M60.5695 36.365L60.6479 41.2754C60.3794 40.9666 60.908 41.5997 60.6479 41.2754C62.2894 43.1628 64.0842 44.7735 65.9906 46.187C69.3711 50.5806 71.8572 51.0296 75.2068 53.8626C78.1882 56.5553 77.8758 56.3237 78.6182 57.7146C79.2798 57.9736 79.0636 57.2157 78.99 56.7382L78.6728 56.1182C79.9604 55.2666 80.9617 57.8192 81.3418 59.0628C81.4238 59.4191 81.9013 59.6187 81.8633 59.0842C81.3311 57.4319 80.9712 56.2168 79.7193 55.2404L76.2247 52.79C74.0807 49.4629 71.2787 46.6063 68.1085 44.0133C65.9775 41.2516 63.362 38.7596 60.5695 36.365Z" fill="white"/>
<path fill-rule="evenodd" clip-rule="evenodd" d="M59.0739 31.3561L60.77 34.8553C61.1834 34.9005 61.1858 34.8268 61.5932 34.8553C64.0888 35.0287 66.4976 34.8993 68.8436 34.5513C74.3407 35.2675 76.4158 33.8267 80.7881 33.462C84.8006 33.2589 84.4157 33.3147 85.9242 33.7732C86.5751 33.4882 85.8862 33.1057 85.4966 32.8194L84.835 32.6056C85.1438 31.0924 87.6572 32.1899 88.8046 32.8004C89.1147 32.994 89.5933 32.798 89.1883 32.4465C87.6441 31.6542 86.53 31.0496 84.9538 31.2444L80.7501 31.9832C76.8815 31.147 72.8809 31.1078 68.8055 31.5164C65.3455 31.0698 62.7418 31.0757 59.0739 31.3561Z" fill="white"/>
</g>
<defs>
<clipPath id="clip0_386_2917">
<rect width="100" height="100" rx="24" fill="white"/>
</clipPath>
</defs>
</svg>
