<svg width="100" height="100" viewBox="0 0 100 100" fill="none" xmlns="http://www.w3.org/2000/svg">
<g clip-path="url(#clip0_386_3001)">
<rect width="100" height="100" rx="24" fill="white"/>
<g clip-path="url(#clip1_386_3001)">
<path d="M74.78 85.14C47.8533 85.14 20.9967 85.14 -5.85999 85.14C-5.85999 61.8067 -5.85999 38.4733 -5.85999 15.14C31.4733 15.14 68.8067 15.14 106.14 15.14C106.14 38.4733 106.14 61.8067 106.14 85.14C95.71 85.14 85.28 85.14 74.78 85.14ZM77.6456 31.1768C77.4884 31.1378 77.3312 31.0988 77.0987 30.9967C74.0505 30.1454 71.0196 29.2242 67.9488 28.4644C65.3996 27.8337 62.8034 27.393 60.1463 26.8063C59.94 26.7837 59.7337 26.7611 59.4428 26.6757C58.7219 26.5672 58.0009 26.4588 57.1892 26.3215C57.1261 26.3198 57.063 26.3182 56.9059 26.2652C55.4439 26.0616 53.9819 25.858 52.4292 25.6252C52.3661 25.6259 52.303 25.6266 52.14 25.5811C51.5666 25.5167 50.9932 25.4524 50.3175 25.3591C50.2116 25.3582 50.1058 25.3574 49.8981 25.3131C47.9299 25.1382 45.9617 24.9632 43.9795 24.7984C43.9795 24.7984 43.9945 24.7907 43.8987 24.727C41.6858 24.6145 39.4729 24.502 37.1494 24.3681C36.9996 24.3706 36.8498 24.3731 36.5921 24.3351C33.4034 24.3036 30.2148 24.2579 27.026 24.2489C25.9575 24.2458 24.8886 24.3361 23.7038 24.3666C23.5093 24.3773 23.3148 24.3879 22.99 24.384C21.4087 24.4518 19.8269 24.5083 18.2465 24.5927C17.5779 24.6284 16.9125 24.7229 16.2606 24.7981C16.2606 24.7981 16.2465 24.7884 16.134 24.8039C16.0982 25.0197 16.0262 25.2366 16.0329 25.4511C16.059 26.2886 16.1101 27.1253 16.0167 27.9687C13.3953 28.0321 10.774 28.0955 8.10458 28.16C9.65242 43.8503 11.1867 59.4031 12.7228 74.9746C35.7049 63.0524 59.8547 56.9074 85.7995 59.0625C87.8443 53.111 89.8992 47.1299 91.9763 41.0842C90.1316 40.3806 88.2622 39.6676 86.3951 38.8452C86.7649 37.5351 87.1348 36.225 87.5156 34.876C86.4994 34.4545 85.5699 34.0283 84.6121 33.6798C82.3221 32.8464 80.0188 32.0495 77.6456 31.1768ZM53.5464 71.1418C52.7557 70.6267 52.049 70.87 51.4009 71.4071C50.5771 70.6995 50.0951 70.6827 49.3195 71.2273C48.9291 71.1197 48.537 70.8823 48.3458 70.9928C48.1256 71.12 47.9988 71.5493 47.9797 71.8566C47.9305 72.6459 47.9651 73.4402 47.9626 74.2325C47.9614 74.6307 48.0876 74.9394 48.5406 74.9421C48.992 74.9448 49.1294 74.6411 49.1289 74.2414C49.1282 73.7287 49.1261 73.216 49.1294 72.7033C49.1321 72.2798 49.2904 71.9532 49.7606 71.9446C50.2338 71.9359 50.402 72.2563 50.4071 72.6825C50.4129 73.1718 50.4151 73.6613 50.4064 74.1505C50.3991 74.5607 50.4713 74.9351 50.9686 74.9453C51.5052 74.9562 51.5924 74.562 51.5887 74.126C51.5849 73.6833 51.592 73.2404 51.5857 72.7977C51.5795 72.3603 51.6784 71.9693 52.1931 71.9477C52.7698 71.9234 52.8524 72.3599 52.8593 72.8097C52.8672 73.3223 52.8068 73.8438 52.887 74.3437C52.9228 74.5667 53.2295 74.7463 53.4133 74.9457C53.6133 74.7404 53.9445 74.5585 53.986 74.325C54.0745 73.8281 54.062 73.2982 53.9985 72.7935C53.9312 72.2592 53.7566 71.7384 53.5464 71.1418ZM39.8418 73.8885C39.5455 73.8885 39.2491 73.8885 38.9072 73.8885C38.9072 73.5017 38.9072 73.1941 38.9072 72.8228C39.4827 72.8228 40.0147 72.8178 40.5465 72.8245C40.9165 72.8291 41.3102 72.814 41.3165 72.3366C41.3232 71.836 40.9295 71.7721 40.523 71.7768C39.9774 71.7831 39.4317 71.7784 38.8974 71.7784C38.8974 71.3893 38.8974 71.1408 38.8974 70.8113C39.626 70.8113 40.325 70.8599 41.0104 70.7845C41.2454 70.7586 41.4462 70.4221 41.6626 70.2275C41.4446 70.0634 41.2348 69.7727 41.007 69.7579C40.1478 69.7019 39.2826 69.7374 38.4197 69.735C37.9266 69.7336 37.688 69.9867 37.6868 70.4674C37.6838 71.7268 37.6543 72.9878 37.7161 74.2442C37.7277 74.4799 38.1 74.8734 38.3301 74.892C39.257 74.9668 40.195 74.9513 41.1251 74.9007C41.3246 74.8898 41.5086 74.5936 41.6998 74.4289C41.4995 74.2493 41.324 73.9711 41.0931 73.9131C40.742 73.8248 40.3526 73.8891 39.8418 73.8885ZM75.5109 73.3501C76.0927 73.3478 76.6746 73.3534 77.2562 73.341C77.8968 73.3273 78.0813 73.0999 77.9912 72.4669C77.874 71.6424 77.1956 70.9814 76.3639 70.8812C75.5041 70.7777 74.7314 71.1928 74.3516 71.9624C73.9473 72.7816 74.0952 73.8161 74.7045 74.4304C75.317 75.048 76.3435 75.2085 77.1652 74.8047C77.5056 74.6375 77.9017 74.442 77.6734 73.9756C77.4465 73.5121 77.1083 73.7815 76.7889 73.9322C76.1008 74.2567 75.6072 74.053 75.5109 73.3501ZM88.5698 71.2609C87.7341 71.9704 87.4742 72.8403 87.8319 73.7311C88.1577 74.5423 89.0417 75.0813 89.9539 75.0249C90.9291 74.9646 91.708 74.3514 91.9291 73.4372C92.1269 72.6191 91.9126 71.8952 91.2589 71.3701C90.4498 70.7201 89.5596 70.7027 88.5698 71.2609ZM66.6155 71.2952C66.3673 71.1731 66.0699 70.9051 65.8842 70.9679C65.6788 71.0374 65.4636 71.4026 65.4483 71.651C65.3956 72.5095 65.3835 73.3771 65.4557 74.2328C65.477 74.4858 65.7984 74.8728 66.0332 74.9149C66.505 74.9995 66.6311 74.596 66.6277 74.1773C66.6238 73.6882 66.6249 73.199 66.627 72.7099C66.6287 72.2851 66.7897 71.9647 67.2563 71.9464C67.7717 71.9262 67.9358 72.2718 67.943 72.7206C67.9512 73.2329 67.9466 73.7454 67.9454 74.2578C67.9445 74.6612 68.0921 74.9594 68.5393 74.95C68.9876 74.9406 69.113 74.631 69.1087 74.2316C69.1026 73.6493 69.0996 73.0669 69.1084 72.4847C69.1178 71.8684 69.0018 71.3063 68.3919 71.01C67.7765 70.711 67.2153 70.8551 66.6155 71.2952ZM61.0495 75.6805C61.6122 74.4057 62.1717 73.1295 62.7393 71.8569C62.9168 71.4589 62.9153 71.051 62.456 70.963C62.2429 70.9221 61.8414 71.2214 61.7214 71.4636C61.4202 72.0715 61.2307 72.7347 60.9358 73.5419C60.6415 72.7571 60.4094 72.1343 60.1742 71.5126C60.0251 71.1188 59.8296 70.7358 59.3201 70.9582C58.8678 71.1556 58.9476 71.5379 59.1114 71.9115C59.4664 72.7207 59.8191 73.531 60.1668 74.3434C60.4608 75.0302 60.4272 75.0499 59.6865 75.0966C59.4867 75.1093 59.2997 75.3253 59.1068 75.448C59.2348 75.6427 59.321 75.9412 59.4985 76.0126C60.0181 76.2215 60.5497 76.208 61.0495 75.6805ZM70.4916 74.8181C71.1586 75.1757 71.7483 75.0112 72.1528 74.6527C72.5672 74.7587 72.9291 74.9716 73.1524 74.8725C73.3512 74.7842 73.4783 74.3548 73.494 74.0681C73.5385 73.2546 73.5554 72.433 73.4833 71.6234C73.4605 71.3669 73.1236 71.1382 72.9304 70.8968C72.7361 71.1411 72.4229 71.3636 72.3732 71.6344C72.2822 72.1306 72.3563 72.6556 72.3434 73.1682C72.3331 73.5798 72.1844 73.9236 71.7102 73.933C71.2036 73.9431 71.0293 73.5996 71.0211 73.1509C71.0117 72.6381 71.0843 72.1131 70.9928 71.6171C70.9438 71.3513 70.625 71.1354 70.428 70.8969C70.2422 71.1451 69.9285 71.3776 69.8961 71.6444C69.8179 72.2876 69.8085 72.9552 69.8943 73.5966C69.9483 74.0001 70.2245 74.3738 70.4916 74.8181ZM57.4254 74.7778C58.1166 75.0736 58.4049 74.9221 58.4211 74.2148C58.4407 73.3535 58.469 72.4879 58.3989 71.6319C58.3778 71.3741 58.0413 71.1421 57.8493 70.8983C57.6558 71.1398 57.3434 71.3596 57.2945 71.6275C57.2041 72.1234 57.2766 72.6477 57.2649 73.1598C57.2546 73.6117 57.042 74.009 56.5709 73.9044C56.3132 73.8472 56.0119 73.45 55.9516 73.1601C55.8495 72.6689 55.9856 72.13 55.897 71.6334C55.8489 71.3644 55.5432 71.1414 55.3538 70.8976C55.1617 71.1405 54.8368 71.3668 54.8039 71.6297C54.7234 72.2716 54.7609 72.9311 54.7818 73.5826C54.8216 74.8301 55.8563 75.3777 56.9352 74.7463C57.0481 74.6803 57.2177 74.7113 57.4254 74.7778ZM80.2568 75.008C80.8653 74.9256 81.3972 74.7319 81.5752 74.0576C81.758 73.3649 81.4283 72.885 80.575 72.5507C80.2442 72.4211 79.9269 72.2571 79.6035 72.1088C79.6416 72.0038 79.6797 71.8989 79.7178 71.7939C80.0738 71.8646 80.428 71.9753 80.7865 71.9918C81.0177 72.0024 81.2552 71.8748 81.4899 71.8092C81.3793 71.5861 81.3234 71.2499 81.1463 71.1641C80.804 70.9982 80.3954 70.9169 80.0104 70.9024C79.2335 70.873 78.681 71.311 78.5812 71.9531C78.4795 72.6074 78.7993 73.0403 79.5889 73.3262C79.9188 73.4456 80.2455 73.5738 80.6347 73.7211C80.0958 74.1957 80.0715 74.1743 79.1711 73.827C78.9678 73.7486 78.6864 73.8729 78.4409 73.9039C78.5411 74.1518 78.5759 74.5342 78.7545 74.621C79.1815 74.8287 79.6762 74.8973 80.2568 75.008ZM44.7304 72.0977C44.8911 71.9312 45.1486 71.7808 45.1798 71.5928C45.202 71.4587 44.949 71.2148 44.767 71.1263C44.5027 70.9977 44.1951 70.9234 43.9 70.8994C43.0262 70.8285 42.4256 71.2102 42.2792 71.8861C42.1225 72.6094 42.4613 73.0478 43.3978 73.3698C43.7008 73.474 43.989 73.6211 44.4114 73.8037C43.7268 74.2772 43.2881 73.9645 42.813 73.8122C42.6109 73.7475 42.3406 73.8952 42.1013 73.9463C42.1981 74.1738 42.2416 74.5418 42.4018 74.6027C42.9097 74.796 43.4604 74.9684 43.9962 74.9734C44.6418 74.9794 45.1592 74.6491 45.2706 73.9217C45.3673 73.2907 45.0736 72.8833 44.3145 72.5796C43.9631 72.439 43.6131 72.2952 43.1663 72.1139C43.7646 71.5752 44.1914 71.9402 44.7304 72.0977ZM81.9048 71.1787C81.9198 71.3732 81.8697 71.6946 81.9604 71.7411C82.4587 71.996 82.3425 72.4268 82.3473 72.8291C82.351 73.1321 82.3443 73.4352 82.3488 73.7382C82.3638 74.757 82.9998 75.2413 83.9606 74.9217C84.1562 74.8567 84.3663 74.6166 84.4161 74.4186C84.4431 74.3112 84.1475 74.121 83.9949 73.9707C83.8237 73.8021 83.5291 73.6545 83.5007 73.4658C83.4291 72.9902 83.477 72.4967 83.477 72.2373C83.8987 71.9078 84.1756 71.6914 84.4525 71.4751C84.1826 71.2298 83.9128 70.9846 83.643 70.7393C83.5081 70.793 83.478 70.7253 83.4819 70.6597C83.5055 70.2636 83.3928 69.9316 82.9519 69.9052C82.518 69.8793 82.3752 70.1707 82.3294 70.5807C82.309 70.7633 82.0967 70.9245 81.9048 71.1787ZM86.2261 73.4661C86.2015 72.7497 86.4108 72.2127 87.1686 71.9421C87.327 71.8856 87.3417 71.4268 87.4226 71.1534C87.1602 71.1095 86.8964 71.0281 86.6361 71.0383C86.5161 71.0429 86.403 71.2265 86.4093 71.221C86.0121 71.1045 85.7253 70.9523 85.4482 70.9683C85.3118 70.9762 85.0909 71.2916 85.084 71.4744C85.0476 72.4499 85.0348 73.4295 85.0937 74.4028C85.1055 74.5971 85.4483 74.8845 85.6684 74.9153C85.8267 74.9374 86.1154 74.6357 86.199 74.4212C86.2936 74.1783 86.2242 73.8715 86.2261 73.4661Z" fill="white"/>
<path d="M86.3929 38.9546C88.2622 39.6676 90.1316 40.3805 91.9763 41.0841C89.8992 47.1298 87.8442 53.1109 85.7995 59.0625C59.8547 56.9074 35.7049 63.0524 12.7228 74.9745C11.1867 59.403 9.65239 43.8503 8.10455 28.1599C10.7739 28.0954 13.3953 28.032 16.1015 27.9889C16.1863 28.0091 16.241 28.0306 16.2457 28.0935C16.3119 29.1102 16.367 30.0645 16.4357 31.0178C16.8831 37.2256 17.3384 43.4328 17.781 49.641C18.086 53.9195 18.3723 58.1993 18.6727 62.4781C18.7322 63.3263 18.8179 64.1727 18.896 65.071C19.1009 64.9941 19.2106 64.9604 19.314 64.913C22.3014 63.5419 25.2887 62.1704 28.2736 60.794C28.4151 60.7287 28.5351 60.6169 28.7095 60.5455C28.9292 60.4964 29.1046 60.4287 29.3316 60.3567C29.9836 60.0839 30.5841 59.8155 31.2245 59.5691C31.3497 59.5638 31.435 59.5364 31.5683 59.5062C31.8184 59.4175 32.0204 59.3314 32.2675 59.2442C32.4217 59.195 32.5308 59.1469 32.6927 59.0953C35.6973 58.1622 38.6492 57.2326 41.6376 56.3031C41.6963 56.2932 41.7186 56.2833 41.7946 56.2732C43.6836 55.8248 45.5187 55.3767 47.3993 54.93C47.5034 54.9165 47.5619 54.9017 47.6769 54.8889C48.9686 54.6596 50.1968 54.3759 51.4405 54.2072C54.7839 53.7535 58.1339 53.349 61.5398 52.9307C61.9802 52.9004 62.3622 52.8644 62.7963 52.8356C62.9523 52.8293 63.056 52.8158 63.2246 52.809C63.9564 52.7833 64.6235 52.7508 65.3464 52.7153C65.5879 52.697 65.7736 52.6817 66.0246 52.674C68.3802 52.677 70.6705 52.6725 73.015 52.6836C73.2561 52.7062 73.4429 52.7132 73.6805 52.7517C74.4077 52.7906 75.0841 52.798 75.8107 52.821C75.9656 52.835 76.0703 52.8334 76.226 52.8533C76.6175 52.8903 76.958 52.9058 77.3567 52.9375C79.0077 53.1187 80.6005 53.2836 82.2512 53.4545C82.5393 52.4431 82.828 51.4417 83.1098 50.4384C84.1788 46.6333 85.2455 42.8276 86.3383 39.0115C86.3635 39.0008 86.3929 38.9546 86.3929 38.9546Z" fill="#E50F17"/>
<path d="M16.241 28.0307C16.241 28.0307 16.1863 28.0092 16.1691 27.9858C16.11 27.1253 16.059 26.2886 16.0328 25.4511C16.0261 25.2366 16.0982 25.0197 16.2229 24.8345C16.4774 24.889 16.643 24.913 16.8087 24.9371C16.8125 24.901 16.8164 24.8649 16.8202 24.8288C16.6287 24.8161 16.4372 24.8034 16.2456 24.7907C16.9125 24.7229 17.5779 24.6284 18.2465 24.5927C19.8268 24.5083 21.4087 24.4518 23.0659 24.4401C23.4174 24.7574 23.654 24.784 23.8199 24.3837C24.8886 24.3361 25.9574 24.2458 27.026 24.2489C30.2147 24.258 33.4034 24.3037 36.6506 24.4027C36.8131 24.5654 36.917 24.6605 37.021 24.7556C37.1006 24.6336 37.1803 24.5116 37.2599 24.3896C39.4729 24.502 41.6858 24.6145 43.8934 24.7615C43.7382 24.8104 43.5881 24.8248 43.4381 24.8391C43.5534 24.9296 43.6664 24.9475 43.77 24.9239C43.8506 24.9055 43.9194 24.8354 43.9934 24.7883C45.9616 24.9632 47.9299 25.1382 49.9553 25.381C50.1483 25.4285 50.284 25.4083 50.4198 25.388C50.9932 25.4524 51.5666 25.5167 52.1944 25.6466C52.3025 25.7623 52.3561 25.8125 52.4098 25.8627C52.4464 25.7933 52.4831 25.7238 52.5198 25.6544C53.9818 25.858 55.4438 26.0616 56.9569 26.3345C57.0612 26.4565 57.1144 26.5091 57.1676 26.5618C57.205 26.4914 57.2424 26.4209 57.2798 26.3504C58.0008 26.4588 58.7218 26.5672 59.4893 26.7577C59.7574 27.0716 59.9722 27.4693 60.228 26.8681C62.8034 27.393 65.3996 27.8337 67.9487 28.4644C71.0195 29.2242 74.0504 30.1454 77.1377 31.0796C77.3582 31.1876 77.5395 31.2128 77.7208 31.2379C80.0188 32.0495 82.3221 32.8464 84.6121 33.6798C85.5698 34.0283 86.4994 34.4545 87.5156 34.876C87.1348 36.225 86.7649 37.5351 86.394 38.8999C86.3929 38.9546 86.3635 39.0009 86.3128 38.9737C86.1664 39.0952 86.0285 39.2317 85.9813 39.3944C85.1764 42.1744 84.3877 44.9591 83.5833 47.7392C83.3785 48.4467 83.1051 49.1347 82.9108 49.8447C82.6432 50.8229 82.4256 51.8147 82.1763 52.798C82.0976 53.1086 81.9488 53.2416 81.5674 53.1399C80.8448 52.9471 80.1046 52.7933 79.362 52.7101C78.6814 52.6339 77.9878 52.6722 77.2378 52.66C76.8436 52.6591 76.5117 52.6583 76.1735 52.6123C76.0313 52.5516 75.8955 52.536 75.6946 52.5205C75.0197 52.5196 74.4098 52.5187 73.7899 52.4671C73.5065 52.4043 73.2333 52.3921 72.8944 52.38C70.5392 52.3801 68.2496 52.3801 65.9235 52.3407C65.5846 52.3734 65.2823 52.4456 64.9152 52.5182C64.2869 52.5192 63.7235 52.5198 63.1324 52.4846C62.9831 52.5185 62.8617 52.5881 62.6772 52.6582C62.2361 52.659 61.8581 52.6595 61.4221 52.6674C60.4461 52.7623 59.527 52.8404 58.6101 52.9396C57.3821 53.0725 56.1535 53.2043 54.9295 53.3684C53.6936 53.5342 52.4587 53.7153 51.2312 53.9335C50.1573 54.1244 49.0927 54.3688 48.0285 54.6096C47.8792 54.6434 47.7558 54.7916 47.6205 54.8869C47.5619 54.9017 47.5034 54.9166 47.3666 54.8865C47.2477 54.8211 47.2009 54.7755 47.1668 54.7836C45.4032 55.202 43.6403 55.6232 41.88 56.0552C41.8194 56.0701 41.7866 56.1982 41.7408 56.2735C41.7186 56.2834 41.6963 56.2933 41.6025 56.2634C41.3287 56.2226 41.1108 56.1712 40.9266 56.2284C38.3243 57.037 35.7249 57.8554 33.131 58.6905C32.943 58.751 32.8025 58.9593 32.64 59.0989C32.5308 59.147 32.4217 59.195 32.2365 59.206C31.8118 59.0275 31.5833 59.1126 31.5202 59.509C31.4349 59.5364 31.3496 59.5638 31.1631 59.5619C30.4679 59.8088 29.874 60.0849 29.28 60.3611C29.1046 60.4288 28.9292 60.4965 28.6508 60.5385C28.3881 60.529 28.2141 60.5097 28.0712 60.5673C27.2336 60.9049 26.4307 61.3886 25.5629 61.575C24.6368 61.7739 23.9544 62.4213 22.9983 62.6178C21.983 62.8266 21.0917 63.614 20.1271 64.1117C19.9046 64.2265 19.4887 64.3122 19.3664 64.1959C19.1763 64.0152 19.1214 63.655 19.0852 63.3615C19.0553 63.1198 19.1795 62.8607 19.1583 62.616C19.1124 62.0868 19.017 61.5618 18.9418 61.0352C18.9261 60.6391 18.8965 60.2669 18.8658 59.8947C18.8265 59.4184 18.7916 58.9417 18.7445 58.4662C18.7219 58.238 18.6563 58.0132 18.6438 57.7851C18.6105 57.174 19.1158 56.5342 18.5164 55.9416C18.4303 55.8566 18.5321 55.5858 18.5396 55.4007C18.5458 55.2482 18.5519 55.0944 18.5391 54.9427C18.5036 54.5205 18.4532 54.0996 18.4191 53.6773C18.4048 53.5011 18.4276 53.322 18.4147 53.1455C18.3788 52.6556 18.3244 52.167 18.2944 51.6768C18.2749 51.359 18.3103 51.0367 18.2755 50.7214C18.2386 50.3859 18.1046 50.0582 18.0892 49.7237C18.0535 48.9423 18.0651 48.1588 18.0517 47.3763C18.0505 47.3118 17.9883 47.2496 17.9822 47.1837C17.9364 46.6891 17.8851 46.1944 17.8616 45.6985C17.8498 45.4484 17.9318 45.1911 17.9035 44.9449C17.7904 43.9621 17.6397 42.9837 17.5292 42.0007C17.5044 41.7802 17.6315 41.5432 17.6099 41.3215C17.5011 40.2059 17.356 39.0938 17.248 37.9782C17.2222 37.7119 17.3327 37.4325 17.3068 37.1662C17.2094 36.1636 17.074 35.1647 16.971 34.1625C16.9485 33.9433 17.0255 33.7151 17.0141 33.4933C16.9851 32.9302 16.9271 32.3687 16.8906 31.806C16.8761 31.581 16.9103 31.3516 16.8822 31.1292C16.8312 30.7254 16.7344 30.3273 16.6853 29.9234C16.6157 29.3502 16.5803 28.7728 16.5057 28.2004C16.497 28.1335 16.333 28.0868 16.241 28.0307ZM32.0721 55.8041C32.1847 55.774 32.2989 55.749 32.4097 55.7131C42.8877 52.321 53.6338 50.5315 64.6455 50.431C67.8362 50.4019 71.0315 50.5516 74.22 50.7121C76.5882 50.8314 78.9489 51.1006 81.3526 51.3064C81.3933 51.2128 81.465 51.0927 81.4993 50.9627C82.8064 46.0049 84.1057 41.0451 85.4218 36.0898C85.5397 35.6456 85.3955 35.4563 84.9931 35.3188C83.494 34.8063 82.0168 34.225 80.5044 33.7564C74.7048 31.9592 68.7707 30.7504 62.7866 29.7637C56.4334 28.7161 50.0429 27.9675 43.616 27.6423C39.3124 27.4245 34.9938 27.3703 30.6848 27.4341C27.333 27.4837 23.9848 27.8159 20.6369 28.0508C19.7891 28.1103 18.9488 28.2779 18.0684 28.4009C18.9001 39.0119 19.7244 49.5288 20.5485 60.0423C24.4111 58.6231 28.1903 57.2347 32.0721 55.8041ZM72.5221 51.1194C72.783 51.0953 73.0438 51.0711 73.3047 51.047C73.2989 50.9833 73.2931 50.9195 73.2873 50.8558C72.973 50.8558 72.6587 50.8558 72.3444 50.8558C72.366 50.9426 72.3877 51.0293 72.5221 51.1194ZM18.5011 40.7986C18.5427 40.9041 18.5842 41.0095 18.6258 41.1149C18.655 41.1062 18.6841 41.0975 18.7133 41.0887C18.7133 40.8216 18.7133 40.5545 18.7133 40.2875C18.6704 40.2834 18.6275 40.2794 18.5846 40.2753C18.5565 40.4136 18.5284 40.5518 18.5011 40.7986ZM74.8373 51.0727C74.616 51.0504 74.3946 51.0281 74.1732 51.0058C74.1726 51.0811 74.172 51.1564 74.1714 51.2318C74.3928 51.2125 74.6142 51.1932 74.8373 51.0727ZM18.1407 33.9573C18.1143 33.7574 18.0879 33.5574 18.0615 33.3575C17.9795 33.3885 17.8974 33.4194 17.8154 33.4504C17.8922 33.6243 17.9689 33.7981 18.1407 33.9573ZM19.4872 53.1094C19.5396 53.1659 19.592 53.2223 19.6443 53.2788C19.672 53.1015 19.6996 52.9242 19.7436 52.6422C19.5771 52.7637 19.526 52.7815 19.5142 52.8137C19.4919 52.8748 19.4921 52.9441 19.4872 53.1094ZM59.3954 50.868C59.5187 50.9433 59.642 51.0186 59.7654 51.0938C59.7983 51.0298 59.8312 50.9658 59.8642 50.9018C59.74 50.8836 59.6158 50.8655 59.3954 50.868ZM58.3267 51.0774C58.1916 51.0631 58.0565 51.0487 57.9215 51.0343C57.9232 51.0993 57.9249 51.1643 57.9266 51.2293C58.0596 51.2094 58.1926 51.1895 58.3267 51.0774ZM18.5503 39.0181C18.4962 39.1419 18.442 39.2656 18.3879 39.3894C18.4464 39.4039 18.505 39.4185 18.5635 39.4331C18.579 39.3173 18.5944 39.2015 18.5503 39.0181ZM19.9384 58.3833C19.9654 58.4595 19.9923 58.5357 20.0192 58.6118C20.0582 58.594 20.0973 58.5761 20.1363 58.5583C20.0907 58.4799 20.045 58.4015 19.9384 58.3833ZM19.5814 51.6967C19.5545 51.6205 19.5275 51.5444 19.5006 51.4682C19.4616 51.4861 19.4225 51.5039 19.3835 51.5218C19.4292 51.6002 19.4748 51.6786 19.5814 51.6967ZM50.1536 52.0625C50.1459 51.9926 50.1382 51.9227 50.1305 51.8528C50.0679 51.8689 50.0053 51.885 49.9426 51.901C49.985 51.9607 50.0274 52.0204 50.1536 52.0625ZM19.1614 46.2367C19.1345 46.1606 19.1075 46.0844 19.0806 46.0082C19.0416 46.0261 19.0025 46.0439 18.9635 46.0618C19.0092 46.1402 19.0548 46.2186 19.1614 46.2367ZM79.4167 51.4386C79.3405 51.4655 79.2643 51.4925 79.1881 51.5194C79.206 51.5584 79.2239 51.5974 79.2417 51.6365C79.3201 51.5908 79.3985 51.5452 79.4167 51.4386ZM85.4939 35.064C85.4172 35.0165 85.3405 34.969 85.2638 34.9215C85.2449 34.96 85.2259 34.9984 85.207 35.0369C85.2821 35.0656 85.3572 35.0944 85.4939 35.064ZM46.6947 52.5484C46.75 52.549 46.8052 52.5496 46.8605 52.5502C46.8607 52.5273 46.8624 52.4844 46.8609 52.4843C46.8059 52.4801 46.7506 52.4798 46.6947 52.5484ZM56.6596 51.3015C56.6214 51.2615 56.5832 51.2215 56.545 51.1815C56.5285 51.1974 56.5119 51.2132 56.4953 51.229C56.5336 51.269 56.5718 51.309 56.6596 51.3015ZM53.4204 51.4986C53.4586 51.5386 53.4968 51.5786 53.535 51.6186C53.5515 51.6027 53.5681 51.5869 53.5846 51.5711C53.5464 51.5311 53.5082 51.4911 53.4204 51.4986Z" fill="#BFD243"/>
<path d="M53.5876 71.1768C53.7566 71.7385 53.9312 72.2592 53.9985 72.7935C54.062 73.2983 54.0745 73.8282 53.986 74.325C53.9445 74.5585 53.6133 74.7404 53.4133 74.9457C53.2295 74.7464 52.9227 74.5668 52.887 74.3437C52.8068 73.8439 52.8672 73.3223 52.8593 72.8098C52.8524 72.36 52.7698 71.9235 52.1931 71.9477C51.6784 71.9693 51.5795 72.3603 51.5857 72.7978C51.592 73.2405 51.5849 73.6833 51.5887 74.126C51.5924 74.5621 51.5052 74.9563 50.9685 74.9453C50.4713 74.9351 50.3991 74.5607 50.4064 74.1506C50.4151 73.6613 50.4129 73.1718 50.4071 72.6825C50.402 72.2563 50.2337 71.9359 49.7606 71.9446C49.2904 71.9533 49.1321 72.2798 49.1294 72.7034C49.126 73.216 49.1282 73.7287 49.1289 74.2414C49.1294 74.6412 48.9919 74.9449 48.5406 74.9421C48.0875 74.9394 47.9613 74.6307 47.9626 74.2326C47.9651 73.4403 47.9305 72.6459 47.9797 71.8566C47.9988 71.5493 48.1256 71.12 48.3458 70.9928C48.537 70.8823 48.9291 71.1197 49.3195 71.2273C50.0951 70.6827 50.5771 70.6995 51.4008 71.4072C52.049 70.87 52.7557 70.6267 53.5876 71.1768Z" fill="#0BA3D8"/>
<path d="M39.9106 73.8885C40.3525 73.8891 40.742 73.8248 41.0931 73.9131C41.3239 73.9711 41.4994 74.2493 41.6997 74.4289C41.5086 74.5936 41.3246 74.8898 41.1251 74.9007C40.1949 74.9513 39.257 74.9668 38.3301 74.892C38.0999 74.8734 37.7277 74.4799 37.7161 74.2442C37.6542 72.9878 37.6837 71.7268 37.6868 70.4674C37.688 69.9867 37.9266 69.7336 38.4197 69.735C39.2826 69.7374 40.1477 69.7019 41.007 69.7579C41.2347 69.7727 41.4445 70.0634 41.6625 70.2275C41.4461 70.4221 41.2454 70.7586 41.0104 70.7845C40.325 70.8599 39.6259 70.8113 38.8974 70.8113C38.8974 71.1408 38.8974 71.3893 38.8974 71.7784C39.4316 71.7784 39.9774 71.7831 40.523 71.7768C40.9295 71.7721 41.3232 71.836 41.3165 72.3366C41.3102 72.814 40.9165 72.8291 40.5465 72.8245C40.0147 72.8178 39.4827 72.8228 38.9071 72.8228C38.9071 73.1941 38.9071 73.5017 38.9071 73.8885C39.2491 73.8885 39.5455 73.8885 39.9106 73.8885Z" fill="#09A3D8"/>
<path d="M75.4542 73.3696C75.6072 74.053 76.1008 74.2568 76.7889 73.9322C77.1083 73.7816 77.4465 73.5121 77.6734 73.9757C77.9016 74.4421 77.5055 74.6376 77.1652 74.8048C76.3435 75.2086 75.317 75.048 74.7045 74.4305C74.0952 73.8162 73.9472 72.7817 74.3516 71.9624C74.7313 71.1929 75.5041 70.7777 76.3638 70.8813C77.1956 70.9814 77.874 71.6424 77.9912 72.4669C78.0812 73.0999 77.8967 73.3273 77.2562 73.341C76.6746 73.3535 76.0926 73.3478 75.4542 73.3696ZM76.5307 71.9461C75.8084 71.7144 75.6 71.8145 75.3585 72.5436C75.8599 72.5436 76.3475 72.5436 76.9327 72.5436C76.797 72.3189 76.7068 72.1696 76.5307 71.9461Z" fill="#10A5D9"/>
<path d="M88.6128 71.2312C89.5596 70.7026 90.4497 70.72 91.2589 71.37C91.9125 71.8951 92.1268 72.619 91.9291 73.4372C91.708 74.3513 90.9291 74.9645 89.9539 75.0248C89.0417 75.0812 88.1577 74.5422 87.8319 73.731C87.4742 72.8403 87.7341 71.9703 88.6128 71.2312ZM90.5048 73.7709C90.6086 73.5935 90.8265 73.3913 90.7945 73.2435C90.7034 72.8238 90.6077 72.3215 90.3232 72.0566C90.1312 71.878 89.5581 71.9333 89.2588 72.0862C88.8008 72.3203 88.7252 72.8207 88.8883 73.3097C89.1025 73.9516 89.6763 74.1403 90.5048 73.7709Z" fill="#0AA3D8"/>
<path d="M66.6695 71.3037C67.2152 70.8551 67.7765 70.711 68.3919 71.01C69.0018 71.3064 69.1178 71.8684 69.1084 72.4847C69.0996 73.0669 69.1026 73.6494 69.1087 74.2316C69.113 74.6311 68.9876 74.9406 68.5393 74.9501C68.0921 74.9594 67.9444 74.6613 67.9454 74.2579C67.9466 73.7455 67.9512 73.2329 67.943 72.7206C67.9358 72.2718 67.7717 71.9262 67.2562 71.9465C66.7897 71.9648 66.6287 72.2852 66.627 72.7099C66.6249 73.1991 66.6238 73.6882 66.6277 74.1773C66.6311 74.596 66.505 74.9996 66.0332 74.9149C65.7984 74.8728 65.477 74.4858 65.4556 74.2329C65.3835 73.3771 65.3956 72.5096 65.4483 71.651C65.4636 71.4026 65.6788 71.0374 65.8842 70.9679C66.0698 70.9052 66.3673 71.1731 66.6695 71.3037Z" fill="#0EA4D8"/>
<path d="M61.0149 75.7193C60.5497 76.208 60.0181 76.2216 59.4985 76.0127C59.321 75.9413 59.2348 75.6428 59.1069 75.4481C59.2997 75.3254 59.4867 75.1093 59.6865 75.0967C60.4272 75.0499 60.4608 75.0303 60.1668 74.3434C59.8191 73.5311 59.4664 72.7208 59.1115 71.9116C58.9476 71.538 58.8678 71.1557 59.3201 70.9583C59.8296 70.7359 60.0251 71.1188 60.1742 71.5127C60.4094 72.1343 60.6415 72.7572 60.9358 73.5419C61.2307 72.7348 61.4202 72.0715 61.7214 71.4637C61.8414 71.2214 62.2429 70.9222 62.456 70.963C62.9153 71.0511 62.9168 71.459 62.7393 71.8569C62.1718 73.1296 61.6122 74.4058 61.0149 75.7193Z" fill="#0CA3D8"/>
<path d="M70.4463 74.7896C70.2244 74.3739 69.9483 74.0001 69.8943 73.5966C69.8085 72.9553 69.8179 72.2877 69.8961 71.6445C69.9285 71.3777 70.2422 71.1451 70.428 70.897C70.625 71.1354 70.9438 71.3514 70.9928 71.6171C71.0843 72.1131 71.0117 72.6382 71.0211 73.1509C71.0293 73.5997 71.2035 73.9431 71.7101 73.9331C72.1844 73.9237 72.3331 73.5799 72.3434 73.1682C72.3562 72.6557 72.2822 72.1307 72.3732 71.6344C72.4229 71.3636 72.7361 71.1411 72.9304 70.8969C73.1236 71.1383 73.4605 71.3669 73.4833 71.6235C73.5554 72.433 73.5385 73.2546 73.494 74.0682C73.4783 74.3549 73.3511 74.7842 73.1524 74.8725C72.9291 74.9717 72.5672 74.7587 72.1528 74.6527C71.7483 75.0112 71.1586 75.1758 70.4463 74.7896Z" fill="#0AA3D8"/>
<path d="M57.3932 74.7376C57.2177 74.7113 57.048 74.6803 56.9352 74.7463C55.8562 75.3777 54.8216 74.8301 54.7817 73.5826C54.7609 72.9311 54.7233 72.2716 54.8038 71.6297C54.8368 71.3668 55.1617 71.1405 55.3538 70.8976C55.5432 71.1414 55.8489 71.3644 55.8969 71.6334C55.9856 72.13 55.8494 72.6689 55.9516 73.1601C56.0119 73.45 56.3132 73.8472 56.5709 73.9044C57.042 74.009 57.2546 73.6117 57.2649 73.1598C57.2765 72.6477 57.2041 72.1234 57.2945 71.6274C57.3433 71.3596 57.6558 71.1398 57.8493 70.8983C58.0413 71.1421 58.3777 71.3741 58.3988 71.6319C58.469 72.4879 58.4407 73.3535 58.4211 74.2148C58.4049 74.9221 58.1166 75.0736 57.3932 74.7376Z" fill="#09A3D8"/>
<path d="M80.2002 75.0151C79.6762 74.8973 79.1815 74.8288 78.7545 74.6211C78.5759 74.5342 78.541 74.1519 78.4409 73.9039C78.6863 73.8729 78.9678 73.7486 79.1711 73.827C80.0715 74.1744 80.0958 74.1957 80.6347 73.7212C80.2455 73.5738 79.9187 73.4456 79.5888 73.3262C78.7992 73.0403 78.4795 72.6075 78.5812 71.9531C78.681 71.311 79.2335 70.873 80.0104 70.9024C80.3954 70.917 80.8039 70.9983 81.1463 71.1641C81.3234 71.2499 81.3793 71.5861 81.4899 71.8092C81.2552 71.8748 81.0177 72.0024 80.7865 71.9918C80.428 71.9754 80.0738 71.8647 79.7178 71.794C79.6797 71.8989 79.6416 72.0039 79.6035 72.1088C79.9269 72.2571 80.2442 72.4211 80.575 72.5507C81.4283 72.885 81.758 73.3649 81.5752 74.0576C81.3972 74.7319 80.8653 74.9256 80.2002 75.0151Z" fill="#0EA4D8"/>
<path d="M44.6778 72.0859C44.1914 71.9402 43.7646 71.5752 43.1663 72.1138C43.6131 72.2952 43.9631 72.439 44.3145 72.5796C45.0736 72.8833 45.3673 73.2906 45.2706 73.9217C45.1592 74.649 44.6418 74.9793 43.9962 74.9734C43.4604 74.9684 42.9097 74.7959 42.4018 74.6027C42.2415 74.5417 42.1981 74.1737 42.1013 73.9463C42.3406 73.8951 42.6109 73.7474 42.813 73.8122C43.2881 73.9644 43.7268 74.2771 44.4114 73.8037C43.989 73.6211 43.7008 73.4739 43.3978 73.3698C42.4613 73.0478 42.1225 72.6093 42.2792 71.886C42.4256 71.2102 43.0262 70.8284 43.9 70.8994C44.1951 70.9234 44.5027 70.9977 44.767 71.1263C44.949 71.2147 45.202 71.4587 45.1798 71.5927C45.1486 71.7807 44.8911 71.9312 44.6778 72.0859Z" fill="#0DA4D8"/>
<path d="M81.9382 71.137C82.0967 70.9244 82.309 70.7632 82.3294 70.5806C82.3752 70.1706 82.5179 69.8792 82.9518 69.9052C83.3927 69.9315 83.5055 70.2636 83.4818 70.6597C83.4779 70.7253 83.5081 70.7929 83.6429 70.7393C83.9128 70.9845 84.1826 71.2298 84.4524 71.475C84.1756 71.6914 83.8987 71.9077 83.477 72.2373C83.477 72.4966 83.4291 72.9902 83.5007 73.4658C83.5291 73.6545 83.8237 73.802 83.9949 73.9706C84.1475 74.121 84.4431 74.3112 84.4161 74.4185C84.3663 74.6166 84.1562 74.8566 83.9606 74.9217C82.9998 75.2412 82.3638 74.757 82.3488 73.7382C82.3443 73.4352 82.351 73.1321 82.3473 72.8291C82.3425 72.4267 82.4587 71.996 81.9604 71.741C81.8697 71.6946 81.9197 71.3731 81.9382 71.137Z" fill="#0AA3D8"/>
<path d="M86.2261 73.5292C86.2242 73.8715 86.2936 74.1783 86.199 74.4212C86.1154 74.6357 85.8267 74.9374 85.6684 74.9153C85.4483 74.8845 85.1055 74.5971 85.0937 74.4028C85.0348 73.4295 85.0476 72.4499 85.084 71.4744C85.0908 71.2916 85.3118 70.9762 85.4482 70.9683C85.7253 70.9523 86.0121 71.1045 86.4092 71.221C86.403 71.2265 86.5161 71.0429 86.6361 71.0383C86.8964 71.0281 87.1602 71.1095 87.4226 71.1534C87.3417 71.4268 87.3269 71.8856 87.1686 71.9421C86.4108 72.2127 86.2015 72.7497 86.2261 73.5292Z" fill="#0AA3D8"/>
<path d="M60.1872 26.8373C59.9722 27.4694 59.7574 27.0716 59.5316 26.7892C59.7337 26.7612 59.94 26.7838 60.1872 26.8373Z" fill="#C0D245"/>
<path d="M23.7618 24.3751C23.654 24.784 23.4174 24.7573 23.1311 24.4473C23.3148 24.3878 23.5093 24.3772 23.7618 24.3751Z" fill="#C0D245"/>
<path d="M37.2047 24.3789C37.1803 24.5116 37.1007 24.6336 37.021 24.7556C36.9171 24.6605 36.8131 24.5655 36.7046 24.423C36.8498 24.3731 36.9996 24.3706 37.2047 24.3789Z" fill="#C0D245"/>
<path d="M77.6832 31.2074C77.5395 31.2128 77.3582 31.1876 77.1754 31.1111C77.3312 31.0988 77.4884 31.1378 77.6832 31.2074Z" fill="#C0D245"/>
<path d="M50.3686 25.3734C50.284 25.4082 50.1483 25.4284 50.0062 25.4026C50.1058 25.3573 50.2116 25.3582 50.3686 25.3734Z" fill="#C0D245"/>
<path d="M52.4745 25.6399C52.4831 25.7239 52.4464 25.7934 52.4098 25.8628C52.3561 25.8126 52.3025 25.7624 52.2443 25.6698C52.3029 25.6267 52.3661 25.626 52.4745 25.6399Z" fill="#C0D245"/>
<path d="M57.2345 26.3358C57.2425 26.4208 57.2051 26.4913 57.1677 26.5617C57.1145 26.509 57.0613 26.4564 57.004 26.3601C57.063 26.3181 57.1261 26.3197 57.2345 26.3358Z" fill="#C0D245"/>
<path d="M16.2457 28.0935C16.333 28.0868 16.497 28.1335 16.5057 28.2004C16.5803 28.7728 16.6157 29.3502 16.6853 29.9234C16.7344 30.3273 16.8312 30.7254 16.8822 31.1292C16.9103 31.3516 16.8761 31.5811 16.8906 31.806C16.9271 32.3687 16.9851 32.9302 17.0141 33.4933C17.0255 33.7151 16.9485 33.9433 16.971 34.1625C17.074 35.1647 17.2094 36.1636 17.3068 37.1662C17.3327 37.4325 17.2222 37.7119 17.248 37.9782C17.356 39.0939 17.5011 40.2059 17.6099 41.3215C17.6315 41.5432 17.5044 41.7802 17.5292 42.0007C17.6397 42.9837 17.7904 43.9621 17.9035 44.9449C17.9318 45.1911 17.8498 45.4484 17.8616 45.6985C17.8851 46.1944 17.9364 46.6891 17.9822 47.1837C17.9883 47.2496 18.0505 47.3118 18.0517 47.3763C18.0651 48.1588 18.0535 48.9423 18.0892 49.7237C18.1046 50.0582 18.2386 50.3859 18.2755 50.7214C18.3103 51.0367 18.2749 51.359 18.2944 51.6768C18.3244 52.167 18.3788 52.6556 18.4147 53.1455C18.4276 53.322 18.4048 53.5011 18.4191 53.6773C18.4532 54.0996 18.5036 54.5205 18.5391 54.9427C18.5519 55.0944 18.5458 55.2482 18.5396 55.4007C18.5321 55.5858 18.4304 55.8566 18.5164 55.9416C19.1158 56.5342 18.6105 57.174 18.6438 57.7851C18.6563 58.0132 18.7219 58.238 18.7445 58.4662C18.7916 58.9417 18.8266 59.4184 18.8658 59.8947C18.8965 60.2669 18.9261 60.6392 18.9418 61.0352C19.017 61.5619 19.1124 62.0868 19.1583 62.616C19.1795 62.8607 19.0553 63.1198 19.0852 63.3615C19.1214 63.655 19.1763 64.0153 19.3664 64.1959C19.4887 64.3122 19.9046 64.2265 20.1271 64.1117C21.0917 63.614 21.983 62.8266 22.9983 62.6179C23.9544 62.4213 24.6368 61.7739 25.5629 61.575C26.4308 61.3886 27.2336 60.9049 28.0712 60.5673C28.2141 60.5097 28.3881 60.5291 28.6064 60.5199C28.5351 60.617 28.4151 60.7288 28.2736 60.794C25.2886 62.1705 22.3014 63.5419 19.314 64.913C19.2106 64.9605 19.1009 64.9941 18.896 65.0711C18.8179 64.1728 18.7322 63.3264 18.6727 62.4781C18.3723 58.1993 18.086 53.9195 17.781 49.6411C17.3384 43.4329 16.8831 37.2256 16.4357 31.0178C16.367 30.0645 16.3119 29.1102 16.2457 28.0935Z" fill="#C0D245"/>
<path d="M77.3 52.66C77.9879 52.6722 78.6814 52.634 79.3621 52.7102C80.1047 52.7933 80.8448 52.9471 81.5675 53.1399C81.9489 53.2417 82.0976 53.1086 82.1763 52.798C82.4257 51.8147 82.6432 50.8229 82.9108 49.8448C83.1051 49.1348 83.3786 48.4467 83.5833 47.7392C84.3877 44.9591 85.1765 42.1744 85.9814 39.3944C86.0285 39.2317 86.1664 39.0952 86.2876 38.9844C85.2455 42.8277 84.1788 46.6334 83.1099 50.4385C82.828 51.4418 82.5393 52.4432 82.2512 53.4546C80.6005 53.2837 79.0078 53.1187 77.3569 52.894C77.2993 52.7762 77.2996 52.7181 77.3 52.66Z" fill="#C0D245"/>
<path d="M47.6769 54.889C47.7558 54.7916 47.8792 54.6434 48.0285 54.6096C49.0926 54.3688 50.1573 54.1244 51.2311 53.9335C52.4587 53.7153 53.6935 53.5342 54.9295 53.3685C56.1535 53.2043 57.3821 53.0725 58.6101 52.9396C59.527 52.8405 60.4461 52.7623 61.4222 52.7115C61.4806 52.8072 61.4809 52.8661 61.4813 52.925C58.1339 53.349 54.7839 53.7536 51.4405 54.2072C50.1967 54.376 48.9686 54.6597 47.6769 54.889Z" fill="#C0D245"/>
<path d="M32.6927 59.0953C32.8026 58.9593 32.943 58.7511 33.131 58.6905C35.725 57.8554 38.3243 57.0371 40.9266 56.2285C41.1108 56.1712 41.3288 56.2227 41.566 56.2634C38.6492 57.2327 35.6973 58.1622 32.6927 59.0953Z" fill="#C0D245"/>
<path d="M65.96 52.3801C68.2496 52.3801 70.5392 52.38 72.8946 52.4279C72.9605 52.5399 72.9607 52.6039 72.9608 52.6679C70.6705 52.6725 68.3802 52.677 66.0246 52.6262C65.9596 52.5074 65.9598 52.4437 65.96 52.3801Z" fill="#BCE047"/>
<path d="M41.7947 56.2731C41.7866 56.1981 41.8194 56.07 41.88 56.0551C43.6403 55.6231 45.4032 55.202 47.1668 54.7835C47.2009 54.7754 47.2477 54.821 47.3212 54.8851C45.5187 55.3767 43.6836 55.8248 41.7947 56.2731Z" fill="#C0D245"/>
<path d="M63.1602 52.5202C63.7236 52.5197 64.287 52.5192 64.9642 52.5248C65.1488 52.5935 65.2197 52.6559 65.2906 52.7183C64.6235 52.7508 63.9565 52.7833 63.2246 52.762C63.16 52.6456 63.1601 52.5829 63.1602 52.5202Z" fill="#BCE047"/>
<path d="M73.7999 52.5179C74.4098 52.5188 75.0197 52.5196 75.6948 52.568C75.7602 52.6789 75.7604 52.7422 75.7606 52.8056C75.0841 52.7982 74.4077 52.7907 73.6995 52.7106C73.7118 52.5979 73.7559 52.5579 73.7999 52.5179Z" fill="#BCE047"/>
<path d="M29.3315 60.3566C29.874 60.0849 30.4679 59.8087 31.1232 59.5398C30.5841 59.8154 29.9836 60.0838 29.3315 60.3566Z" fill="#C0D245"/>
<path d="M65.3464 52.7154C65.2197 52.656 65.1488 52.5935 65.029 52.5244C65.2823 52.4456 65.5847 52.3734 65.9235 52.3407C65.9598 52.4438 65.9595 52.5074 65.9593 52.6188C65.7736 52.6818 65.5879 52.697 65.3464 52.7154Z" fill="#C0D245"/>
<path d="M73.7899 52.4672C73.7559 52.5579 73.7118 52.5979 73.6488 52.6791C73.443 52.7133 73.2561 52.7063 73.015 52.6837C72.9606 52.604 72.9605 52.54 72.9602 52.428C73.2333 52.3922 73.5066 52.4043 73.7899 52.4672Z" fill="#C0D245"/>
<path d="M77.2378 52.6599C77.2996 52.718 77.2993 52.776 77.2987 52.8776C76.958 52.9057 76.6175 52.8903 76.2275 52.8096C76.1785 52.7154 76.1791 52.6864 76.1798 52.6573C76.5117 52.6582 76.8437 52.659 77.2378 52.6599Z" fill="#BCE047"/>
<path d="M61.5398 52.9307C61.4809 52.866 61.4806 52.8072 61.4801 52.7041C61.8581 52.6595 62.2362 52.659 62.678 52.7008C62.7425 52.7715 62.7433 52.7999 62.7441 52.8284C62.3622 52.8644 61.9802 52.9004 61.5398 52.9307Z" fill="#BCE047"/>
<path d="M31.5683 59.5062C31.5833 59.1126 31.8118 59.0275 32.1915 59.2071C32.0204 59.3314 31.8184 59.4174 31.5683 59.5062Z" fill="#C0D245"/>
<path d="M62.7963 52.8357C62.7433 52.8 62.7426 52.7716 62.741 52.7005C62.8617 52.5882 62.9831 52.5185 63.1324 52.4846C63.1601 52.583 63.16 52.6457 63.1598 52.7554C63.056 52.8159 62.9523 52.8294 62.7963 52.8357Z" fill="#C0D245"/>
<path d="M76.1735 52.6124C76.1791 52.6866 76.1785 52.7156 76.1765 52.7883C76.0703 52.8335 75.9656 52.8352 75.8108 52.8212C75.7604 52.7423 75.7602 52.6789 75.7598 52.5681C75.8955 52.5361 76.0314 52.5517 76.1735 52.6124Z" fill="#C0D245"/>
<path d="M32.0209 55.8252C28.1903 57.2347 24.4111 58.6232 20.5485 60.0423C19.7244 49.5289 18.9001 39.012 18.0684 28.401C18.9488 28.278 19.7891 28.1104 20.637 28.0509C23.9848 27.816 27.333 27.4838 30.6848 27.4342C34.9938 27.3704 39.3124 27.4246 43.616 27.6424C50.0429 27.9676 56.4335 28.7162 62.7866 29.7638C68.7707 30.7505 74.7048 31.9593 80.5044 33.7565C82.0168 34.2251 83.494 34.8064 84.9931 35.3189C85.3955 35.4564 85.5397 35.6457 85.4218 36.0899C84.1057 41.0452 82.8064 46.005 81.4993 50.9627C81.465 51.0927 81.3933 51.2129 81.3526 51.3065C78.9489 51.1007 76.5883 50.8314 74.22 50.7122C71.0315 50.5517 67.8362 50.402 64.6455 50.4311C53.6338 50.5316 42.8877 52.3211 32.4097 55.7132C32.2989 55.7491 32.1847 55.7741 32.0209 55.8252ZM28.2918 52.1683C28.2918 50.2046 28.2918 48.241 28.2918 46.2773C28.5689 46.4426 28.6968 46.6291 28.817 46.8204C29.9951 48.6959 31.1834 50.5652 32.3394 52.4542C32.5742 52.8379 32.7929 52.9264 33.2335 52.8263C35.6425 52.279 38.0564 51.7512 40.478 51.2627C41.0636 51.1446 41.2973 50.9217 41.2758 50.3121C41.2353 49.1636 41.2641 48.0126 41.2641 46.8627C41.34 46.8552 41.416 46.8478 41.4919 46.8403C41.5918 47.0359 41.6872 47.2339 41.7922 47.4267C42.7278 49.1452 44.1072 50.2279 46.116 50.3023C49.6665 50.4338 52.6637 48.1532 53.5156 44.7037C53.6529 44.1478 53.7299 43.577 53.8182 43.1018C54.6874 43.4157 55.5523 43.7269 56.4162 44.0408C56.613 44.1123 56.8441 44.1501 56.9918 44.2802C57.1663 44.4338 57.4142 44.7215 57.3663 44.8598C57.2931 45.0713 57.0122 45.307 56.7865 45.3471C56.4579 45.4055 56.0791 45.3597 55.7592 45.2495C55.2227 45.0646 54.7157 44.7939 54.1569 44.5414C53.5979 45.7293 53.0385 46.9181 52.4453 48.1787C55.3797 49.5055 58.0775 49.4019 60.6302 47.3436C60.5754 47.8684 60.5304 48.2997 60.4888 48.6981C61.6795 48.6981 62.8057 48.6981 63.9388 48.6981C64.1154 47.4028 64.2792 46.2007 64.4675 44.8196C65.1846 46.0519 65.7898 47.1224 66.4322 48.1701C66.5585 48.3761 66.8242 48.6263 67.0319 48.6321C68.4673 48.6724 69.9045 48.6533 71.4066 48.6533C70.1957 46.6619 68.9816 44.6651 67.7582 42.6529C69.4517 41.1956 71.0987 39.7784 72.8444 38.2762C71.2996 38.0007 69.9271 37.7376 68.5466 37.5266C68.3016 37.4892 67.9542 37.5929 67.7722 37.76C66.8683 38.5897 66.0039 39.4625 65.015 40.4281C65.3465 37.7846 65.6576 35.3038 65.9747 32.7746C64.7881 32.593 63.6695 32.4218 62.4918 32.2415C62.2871 33.8585 62.0894 35.4192 61.8847 37.036C61.7182 36.9634 61.6142 36.9251 61.5166 36.8746C60.1552 36.1702 58.7083 35.8713 57.1856 36.0286C55.2842 36.225 53.8913 37.1177 53.2794 39.0164C53.2495 39.1092 53.2074 39.1981 53.1477 39.3468C52.2397 37.7398 50.9872 36.6839 49.2595 36.2677C46.2117 35.5335 43.207 37.0213 41.8233 39.9695C41.6006 40.4441 41.3413 40.6029 40.8339 40.621C39.6084 40.6647 38.3855 40.78 37.131 40.8686C37.0394 43.7733 36.9504 46.5935 36.8615 49.4136C36.8131 49.4235 36.7647 49.4333 36.7163 49.4431C35.1272 47.0391 33.5382 44.635 31.9371 42.2126C33.9883 38.6059 36.0334 35.0099 38.1422 31.3018C36.3755 31.5669 34.7451 31.8275 33.109 32.046C32.6868 32.1023 32.4627 32.2774 32.2764 32.6528C31.1472 34.9284 29.9928 37.1914 28.8457 39.4581C28.7422 39.6627 28.6311 39.8633 28.5235 40.0658C28.4642 40.0447 28.405 40.0237 28.3457 40.0026C28.3457 37.5929 28.3457 35.1832 28.3457 32.7069C26.8305 33.0183 25.4016 33.3119 23.9727 33.6056C23.9727 40.8212 23.9727 47.975 23.9727 55.1958C25.4366 54.797 26.8452 54.4133 28.2918 54.0193C28.2918 53.4216 28.2918 52.8645 28.2918 52.1683ZM79.3534 40.3234C76.9788 37.5732 72.9428 37.8626 71.065 40.9644C70.0196 42.6911 69.8523 44.5711 70.5314 46.4787C71.0488 47.932 72.1285 48.8074 73.6287 49.1219C75.761 49.5689 78.0989 48.529 79.3698 46.6088C80.5906 44.7642 80.6088 42.18 79.3534 40.3234ZM42.0432 37.055C41.8317 36.1505 41.3363 35.4692 40.4251 35.2005C39.2009 34.8396 37.8133 35.6008 37.3805 36.8216C36.9287 38.0961 37.5401 39.6115 38.6922 40.0728C39.8661 40.5428 41.2939 39.9713 41.836 38.7192C42.0369 38.2551 41.9967 37.6865 42.0432 37.055ZM81.1027 39.6056C81.543 39.1118 81.6356 38.5725 81.2573 38.0113C80.9586 37.5683 80.4851 37.2836 80.0017 37.5191C79.6096 37.7102 79.1617 38.1129 79.0708 38.4999C78.9886 38.8496 79.2605 39.3996 79.5484 39.6915C79.9663 40.1152 80.5297 40.0254 81.1027 39.6056Z" fill="#FDFEFE"/>
<path d="M72.4658 51.1177C72.3877 51.0293 72.3661 50.9425 72.3444 50.8557C72.6587 50.8557 72.973 50.8557 73.2873 50.8557C73.2931 50.9194 73.2989 50.9832 73.3047 51.0469C73.0439 51.0711 72.783 51.0952 72.4658 51.1177Z" fill="#C0D245"/>
<path d="M18.5008 40.7444C18.5285 40.5518 18.5565 40.4136 18.5846 40.2754C18.6275 40.2794 18.6704 40.2835 18.7133 40.2875C18.7133 40.5546 18.7133 40.8217 18.7133 41.0888C18.6842 41.0975 18.655 41.1063 18.6259 41.115C18.5843 41.0096 18.5427 40.9041 18.5008 40.7444Z" fill="#C0D245"/>
<path d="M74.8365 51.1233C74.6142 51.1932 74.3928 51.2125 74.1714 51.2318C74.172 51.1564 74.1726 51.0811 74.1732 51.0057C74.3946 51.0281 74.616 51.0504 74.8365 51.1233Z" fill="#C0D245"/>
<path d="M18.0932 33.9647C17.9689 33.7981 17.8922 33.6243 17.8154 33.4504C17.8974 33.4195 17.9795 33.3885 18.0615 33.3575C18.0879 33.5575 18.1143 33.7574 18.0932 33.9647Z" fill="#C0D245"/>
<path d="M19.4851 53.0597C19.4922 52.9441 19.492 52.8748 19.5143 52.8137C19.5261 52.7815 19.5771 52.7637 19.7437 52.6422C19.6997 52.9242 19.672 53.1015 19.6444 53.2788C19.592 53.2223 19.5397 53.1659 19.4851 53.0597Z" fill="#C0D245"/>
<path d="M59.4435 50.8577C59.6158 50.8655 59.74 50.8836 59.8642 50.9018C59.8312 50.9658 59.7983 51.0298 59.7654 51.0938C59.642 51.0186 59.5187 50.9433 59.4435 50.8577Z" fill="#C0D245"/>
<path d="M58.3262 51.1235C58.1926 51.1895 58.0596 51.2094 57.9266 51.2293C57.9249 51.1643 57.9232 51.0993 57.9215 51.0343C58.0566 51.0487 58.1916 51.063 58.3262 51.1235Z" fill="#C0D245"/>
<path d="M18.5801 39.052C18.5944 39.2016 18.579 39.3174 18.5636 39.4331C18.505 39.4186 18.4465 39.404 18.3879 39.3894C18.4421 39.2657 18.4962 39.1419 18.5801 39.052Z" fill="#C0D245"/>
<path d="M19.9689 58.3531C20.045 58.4014 20.0907 58.4798 20.1363 58.5582C20.0973 58.5761 20.0583 58.5939 20.0192 58.6118C19.9923 58.5356 19.9654 58.4594 19.9689 58.3531Z" fill="#C0D245"/>
<path d="M19.5509 51.7269C19.4748 51.6786 19.4291 51.6002 19.3835 51.5218C19.4225 51.504 19.4616 51.4861 19.5006 51.4683C19.5275 51.5444 19.5544 51.6206 19.5509 51.7269Z" fill="#C0D245"/>
<path d="M50.1117 52.0713C50.0274 52.0204 49.985 51.9607 49.9427 51.901C50.0053 51.8849 50.0679 51.8689 50.1306 51.8528C50.1383 51.9227 50.146 51.9926 50.1117 52.0713Z" fill="#C0D245"/>
<path d="M19.1309 46.2668C19.0548 46.2186 19.0092 46.1402 18.9635 46.0618C19.0025 46.0439 19.0416 46.026 19.0806 46.0082C19.1075 46.0844 19.1345 46.1605 19.1309 46.2668Z" fill="#C0D245"/>
<path d="M79.4468 51.4691C79.3986 51.5452 79.3202 51.5908 79.2418 51.6365C79.2239 51.5974 79.206 51.5584 79.1882 51.5193C79.2643 51.4924 79.3405 51.4655 79.4468 51.4691Z" fill="#C0D245"/>
<path d="M85.4631 35.0936C85.3573 35.0944 85.2821 35.0656 85.207 35.0369C85.2259 34.9984 85.2449 34.96 85.2638 34.9215C85.3405 34.969 85.4172 35.0165 85.4631 35.0936Z" fill="#C0D245"/>
<path d="M16.2531 24.7944C16.4371 24.8034 16.6287 24.8161 16.8202 24.8288C16.8164 24.8649 16.8125 24.901 16.8087 24.9371C16.643 24.913 16.4774 24.889 16.2791 24.8267C16.2465 24.7884 16.2606 24.7981 16.2531 24.7944Z" fill="#C0D245"/>
<path d="M43.9865 24.7933C43.9194 24.8354 43.8506 24.9055 43.77 24.9239C43.6665 24.9475 43.5535 24.9296 43.4381 24.8391C43.5882 24.8247 43.7382 24.8103 43.9414 24.7933C43.9945 24.7907 43.9795 24.7983 43.9865 24.7933Z" fill="#C0D245"/>
<path d="M46.6951 52.5137C46.7506 52.4798 46.8059 52.48 46.8609 52.4843C46.8625 52.4844 46.8607 52.5272 46.8605 52.5502C46.8052 52.5496 46.75 52.549 46.6951 52.5137Z" fill="#C0D245"/>
<path d="M56.6348 51.3253C56.5718 51.309 56.5336 51.269 56.4953 51.229C56.5119 51.2132 56.5285 51.1973 56.545 51.1815C56.5832 51.2215 56.6214 51.2615 56.6348 51.3253Z" fill="#C0D245"/>
<path d="M53.4452 51.4747C53.5082 51.491 53.5464 51.531 53.5847 51.571C53.5681 51.5868 53.5515 51.6026 53.535 51.6185C53.4968 51.5785 53.4586 51.5385 53.4452 51.4747Z" fill="#C0D245"/>
<path d="M76.5737 71.9831C76.7068 72.1695 76.797 72.3188 76.9327 72.5435C76.3475 72.5435 75.8599 72.5435 75.3586 72.5435C75.6 71.8145 75.8084 71.7144 76.5737 71.9831Z" fill="#F8FDFE"/>
<path d="M90.4615 73.8013C89.6763 74.1404 89.1025 73.9517 88.8883 73.3098C88.7252 72.8208 88.8008 72.3204 89.2588 72.0864C89.558 71.9334 90.1311 71.8781 90.3231 72.0567C90.6077 72.3216 90.7034 72.8239 90.7944 73.2436C90.8265 73.3915 90.6085 73.5936 90.4615 73.8013Z" fill="#F1FAFD"/>
<path d="M28.2918 52.2378C28.2918 52.8644 28.2918 53.4214 28.2918 54.0191C26.8452 54.4132 25.4366 54.7969 23.9727 55.1956C23.9727 47.9749 23.9727 40.8211 23.9727 33.6054C25.4016 33.3118 26.8305 33.0182 28.3457 32.7068C28.3457 35.183 28.3457 37.5928 28.3457 40.0025C28.405 40.0235 28.4642 40.0446 28.5235 40.0657C28.6311 39.8632 28.7422 39.6625 28.8457 39.458C29.9928 37.1913 31.1472 34.9282 32.2764 32.6527C32.4627 32.2773 32.6868 32.1022 33.1091 32.0458C34.7451 31.8274 36.3755 31.5667 38.1422 31.3016C36.0334 35.0098 33.9883 38.6057 31.9371 42.2125C33.5382 44.6349 35.1273 47.0389 36.7163 49.443C36.7647 49.4332 36.8131 49.4233 36.8615 49.4135C36.9504 46.5934 37.0394 43.7732 37.131 40.8684C38.3855 40.7799 39.6084 40.6645 40.8339 40.6209C41.3413 40.6028 41.6006 40.444 41.8233 39.9693C43.207 37.0211 46.2117 35.5334 49.2595 36.2676C50.9872 36.6838 52.2397 37.7397 53.1477 39.3467C53.2074 39.198 53.2495 39.1091 53.2794 39.0163C53.8913 37.1176 55.2842 36.2249 57.1856 36.0284C58.7083 35.8711 60.1552 36.1701 61.5166 36.8745C61.6142 36.925 61.7182 36.9633 61.8847 37.0358C62.0895 35.4191 62.2871 33.8583 62.4918 32.2414C63.6695 32.4216 64.7882 32.5928 65.9747 32.7745C65.6576 35.3037 65.3465 37.7845 65.015 40.428C66.0039 39.4624 66.8683 38.5896 67.7722 37.7599C67.9542 37.5927 68.3016 37.489 68.5466 37.5265C69.9271 37.7375 71.2996 38.0005 72.8444 38.2761C71.0987 39.7783 69.4517 41.1955 67.7582 42.6528C68.9816 44.6649 70.1957 46.6617 71.4066 48.6532C69.9045 48.6532 68.4674 48.6722 67.0319 48.632C66.8242 48.6261 66.5585 48.376 66.4322 48.1699C65.7898 47.1222 65.1846 46.0518 64.4675 44.8195C64.2792 46.2006 64.1154 47.4027 63.9388 48.6979C62.8057 48.6979 61.6795 48.6979 60.4888 48.6979C60.5304 48.2995 60.5754 47.8683 60.6302 47.3435C58.0775 49.4017 55.3797 49.5054 52.4453 48.1786C53.0385 46.918 53.5979 45.7291 54.1569 44.5413C54.7158 44.7937 55.2227 45.0644 55.7592 45.2493C56.0791 45.3596 56.4579 45.4053 56.7865 45.347C57.0122 45.3069 57.2931 45.0712 57.3663 44.8596C57.4142 44.7214 57.1663 44.4337 56.9918 44.28C56.8441 44.15 56.613 44.1122 56.4162 44.0407C55.5523 43.7268 54.6874 43.4155 53.8182 43.1016C53.7299 43.5768 53.6529 44.1477 53.5156 44.7036C52.6637 48.1531 49.6665 50.4336 46.116 50.3022C44.1072 50.2278 42.7278 49.1451 41.7922 47.4266C41.6872 47.2337 41.5918 47.0358 41.4919 46.8402C41.416 46.8476 41.34 46.8551 41.2641 46.8625C41.2641 48.0125 41.2353 49.1634 41.2758 50.312C41.2973 50.9216 41.0636 51.1445 40.478 51.2626C38.0564 51.7511 35.6425 52.2789 33.2335 52.8261C32.7929 52.9262 32.5742 52.8377 32.3394 52.454C31.1834 50.565 29.9951 48.6958 28.817 46.8203C28.6968 46.6289 28.5689 46.4425 28.2918 46.2771C28.2918 48.2408 28.2918 50.2045 28.2918 52.2378ZM49.1858 41.8432C48.5935 40.5374 47.5635 40.1496 46.6047 40.8714C45.5074 41.6974 45.0996 43.5009 45.7337 44.7229C46.3359 45.8836 47.4835 46.0849 48.4264 45.1716C49.355 44.272 49.5079 43.1622 49.1858 41.8432ZM61.4626 38.1733C61.0926 38.8399 60.7226 39.5064 60.3305 40.2127C60.0152 40.0453 59.7835 39.8815 59.5257 39.7942C59.0675 39.6391 58.5984 39.4645 58.1242 39.4304C57.8913 39.4136 57.6371 39.6931 57.3925 39.8385C57.5604 40.014 57.6962 40.2592 57.9014 40.3535C59.0392 40.8762 60.1939 41.3623 61.3259 41.8535C61.4762 40.5891 61.6422 39.1924 61.8083 37.7958C61.7733 37.7833 61.7383 37.7708 61.7033 37.7583C61.6359 37.8676 61.5686 37.9769 61.4626 38.1733Z" fill="#039FD6"/>
<path d="M79.3834 40.3642C80.6088 42.1798 80.5906 44.764 79.3698 46.6086C78.0989 48.5288 75.761 49.5687 73.6288 49.1217C72.1285 48.8072 71.0488 47.9318 70.5314 46.4785C69.8524 44.571 70.0196 42.6909 71.065 40.9642C72.9429 37.8624 76.9788 37.573 79.3834 40.3642ZM76.6795 42.9253C76.2057 41.8549 75.484 41.5315 74.6746 42.0271C73.6877 42.6312 73.3544 44.1559 73.9993 45.1159C74.4671 45.8123 75.1884 45.9609 75.8654 45.4596C76.6865 44.8516 76.8965 44.007 76.6795 42.9253Z" fill="#03A0D6"/>
<path d="M42.0549 37.1103C41.9968 37.6865 42.037 38.255 41.836 38.7192C41.294 39.9712 39.8661 40.5428 38.6923 40.0728C37.5401 39.6115 36.9287 38.0961 37.3806 36.8215C37.8133 35.6008 39.2009 34.8396 40.4251 35.2005C41.3363 35.4692 41.8317 36.1504 42.0549 37.1103Z" fill="#049FD6"/>
<path d="M81.0608 39.6406C80.5298 40.0254 79.9663 40.1152 79.5484 39.6914C79.2605 39.3995 78.9886 38.8496 79.0708 38.4998C79.1618 38.1129 79.6096 37.7102 80.0017 37.5191C80.4851 37.2836 80.9587 37.5683 81.2573 38.0113C81.6357 38.5725 81.543 39.1117 81.0608 39.6406ZM80.7725 38.2731C80.7676 38.4239 80.7762 38.5767 80.7546 38.7251C80.7242 38.9351 80.6716 39.142 80.6284 39.3502C81.1765 39.0818 81.3271 38.6773 81.0363 38.3028C80.8269 38.0332 80.4368 37.904 80.1272 37.7122C80.0908 37.7807 80.0543 37.8493 80.0178 37.9179C80.2395 38.0192 80.4611 38.1206 80.5862 38.2399C80.4405 38.3148 80.2949 38.3897 80.1492 38.4646C80.2547 38.5841 80.3601 38.7036 80.4656 38.8231C80.5366 38.6216 80.6077 38.4201 80.7725 38.2731ZM79.3451 38.6951C79.3655 38.7987 79.3859 38.9024 79.45 39.2276C79.6471 38.7021 79.7713 38.3712 79.8955 38.0403C79.83 38.009 79.7645 37.9776 79.699 37.9463C79.583 38.1591 79.4669 38.3718 79.3451 38.6951ZM80.2999 39.2822C80.1879 39.1709 80.0759 39.0597 79.9639 38.9484C79.916 39.0179 79.8679 39.0874 79.8199 39.1568C79.9544 39.2168 80.0889 39.2769 80.2999 39.2822ZM79.6065 39.4124C79.6141 39.3825 79.6217 39.3527 79.6294 39.3229C79.6106 39.342 79.5918 39.3612 79.6065 39.4124ZM80.4938 39.6038C80.5162 39.5875 80.5386 39.5712 80.561 39.555C80.5298 39.5583 80.4987 39.5616 80.4938 39.6038Z" fill="#22A4D8"/>
<path d="M49.2046 41.8982C49.5079 43.1624 49.355 44.2721 48.4264 45.1717C47.4835 46.085 46.3359 45.8837 45.7337 44.723C45.0996 43.501 45.5074 41.6975 46.6047 40.8715C47.5635 40.1497 48.5935 40.5375 49.2046 41.8982Z" fill="#FAFDFE"/>
<path d="M61.4819 38.1297C61.5685 37.9769 61.6359 37.8676 61.7033 37.7583C61.7383 37.7708 61.7732 37.7833 61.8082 37.7957C61.6422 39.1924 61.4762 40.589 61.3259 41.8535C60.1938 41.3622 59.0392 40.8762 57.9014 40.3534C57.6962 40.2592 57.5603 40.014 57.3925 39.8385C57.6371 39.6931 57.8913 39.4136 58.1242 39.4303C58.5984 39.4645 59.0675 39.6391 59.5257 39.7942C59.7834 39.8814 60.0152 40.0453 60.3305 40.2127C60.7226 39.5064 61.0926 38.8399 61.4819 38.1297Z" fill="#F2FAFD"/>
<path d="M76.6975 42.9807C76.8965 44.007 76.6865 44.8516 75.8654 45.4596C75.1884 45.9609 74.4671 45.8124 73.9993 45.1159C73.3544 44.156 73.6877 42.6313 74.6746 42.0271C75.484 41.5316 76.2057 41.8549 76.6975 42.9807Z" fill="#F9FDFE"/>
<path d="M80.6828 38.2219C80.4611 38.1206 80.2395 38.0192 80.0178 37.9179C80.0543 37.8493 80.0908 37.7807 80.1272 37.7122C80.4368 37.904 80.8269 38.0332 81.0363 38.3028C81.3271 38.6772 81.1766 39.0818 80.6284 39.3502C80.6716 39.1419 80.7242 38.9351 80.7547 38.7251C80.7762 38.5767 80.7676 38.4239 80.7181 38.2565C80.6637 38.24 80.6828 38.2219 80.6828 38.2219Z" fill="#DFF3FA"/>
<path d="M79.348 38.6397C79.4669 38.3717 79.583 38.1589 79.6991 37.9462C79.7646 37.9775 79.83 38.0089 79.8955 38.0402C79.7713 38.3711 79.6472 38.702 79.45 39.2274C79.3859 38.9023 79.3655 38.7986 79.348 38.6397Z" fill="#DFF3FA"/>
<path d="M80.2617 39.3095C80.0889 39.2768 79.9544 39.2168 79.8199 39.1568C79.8679 39.0873 79.9159 39.0178 79.9639 38.9484C80.0759 39.0596 80.1879 39.1709 80.2617 39.3095Z" fill="#25A6D9"/>
<path d="M80.6712 38.2293C80.6077 38.42 80.5366 38.6215 80.4656 38.823C80.3601 38.7035 80.2547 38.584 80.1492 38.4645C80.2949 38.3896 80.4405 38.3147 80.6345 38.2309C80.6828 38.2219 80.6637 38.24 80.6712 38.2293Z" fill="#25A6D9"/>
<path d="M79.5898 39.3963C79.5918 39.3611 79.6106 39.3419 79.6294 39.3228C79.6218 39.3526 79.6141 39.3824 79.5898 39.3963Z" fill="#25A6D9"/>
<path d="M80.4807 39.5842C80.4987 39.5615 80.5298 39.5581 80.561 39.5548C80.5386 39.5711 80.5162 39.5873 80.4807 39.5842Z" fill="#25A6D9"/>
</g>
</g>
<defs>
<clipPath id="clip0_386_3001">
<rect width="100" height="100" rx="24" fill="white"/>
</clipPath>
<clipPath id="clip1_386_3001">
<rect width="112" height="70" fill="white" transform="translate(-6 15)"/>
</clipPath>
</defs>
</svg>
