<svg width="100" height="100" viewBox="0 0 100 100" fill="none" xmlns="http://www.w3.org/2000/svg">
<rect width="100" height="100" rx="24" fill="white"/>
<path d="M54.6882 21C54.7437 21.0527 54.7853 21.1087 54.8338 21.1578C60.5374 26.9225 66.2409 32.6872 71.947 38.4495C72.2682 38.774 72.5161 39.134 72.6036 39.5876C72.7452 40.3221 72.5512 40.96 72.027 41.4922C70.9753 42.5602 69.9201 43.6247 68.8662 44.6904C64.1881 49.4209 59.51 54.1514 54.8317 58.8816C54.7876 58.9262 54.7407 58.968 54.6884 59.0175C54.6314 58.9632 54.5799 58.9169 54.5313 58.8677C53.6012 57.928 52.6708 56.9887 51.7419 56.0479C50.8611 55.1559 50.859 53.889 51.7394 52.9985C55.9595 48.7299 60.1806 44.4623 64.4013 40.1943C64.455 40.1399 64.508 40.0848 64.5736 40.0175C64.5013 39.9423 64.4396 39.8762 64.3761 39.812C61.4223 36.8267 58.4683 33.8415 55.5145 30.8563C54.2961 29.625 53.079 28.3926 51.8588 27.1631C51.4888 26.7903 51.2428 26.357 51.1728 25.8321C51.0727 25.0807 51.2965 24.4355 51.8252 23.8978C52.7174 22.9904 53.6139 22.087 54.5084 21.1819C54.5581 21.1316 54.6066 21.0801 54.656 21.0146C54.6564 21 54.6776 21 54.6882 21Z" fill="#1165A5"/>
<path d="M46.2449 21C46.2959 21.0542 46.3305 21.1141 46.3775 21.1618C47.2663 22.0629 48.1551 22.9641 49.0471 23.8621C49.5495 24.3679 49.7865 24.9719 49.7397 25.6841C49.7076 26.1725 49.5286 26.6035 49.2147 26.9774C49.124 27.0855 49.0235 27.1857 48.9241 27.2862C44.7778 31.4797 40.6311 35.6728 36.4847 39.8661C36.4359 39.9153 36.39 39.9674 36.3143 40.0486C36.3817 40.0993 36.4449 40.1357 36.4943 40.1856C40.6733 44.4065 44.8501 48.6294 49.0304 52.8489C49.5498 53.3732 49.7981 53.9903 49.7393 54.7267C49.6972 55.2535 49.4888 55.7093 49.1254 56.091C48.8524 56.3777 48.5712 56.6567 48.2929 56.9384C47.6617 57.5771 47.0293 58.2147 46.3996 58.8549C46.3462 58.9093 46.3097 58.9802 46.2609 59.0498C46.1692 58.9621 46.1174 58.9149 46.0682 58.8651C40.9302 53.6733 35.7925 48.4814 30.6547 43.2893C30.0877 42.7164 29.5199 42.1442 28.9547 41.5695C28.5108 41.118 28.2922 40.5724 28.3132 39.9403C28.3329 39.3485 28.5716 38.8496 28.9888 38.4301C29.8814 37.5327 30.7705 36.6318 31.6604 35.7318C36.4235 30.9152 41.1864 26.0984 45.9495 21.2817C46.034 21.1963 46.1197 21.112 46.209 21.0136C46.2131 21 46.2343 21 46.2449 21Z" fill="#1165A5"/>
<path d="M88.7464 78.9999C88.6264 78.975 88.5274 78.9433 88.4259 78.9261C87.1854 78.7162 86.2762 78.0455 85.6703 76.9509C85.64 76.8961 85.6096 76.8412 85.5451 76.7875C85.5436 77.0064 85.5416 77.2253 85.5408 77.4442C85.5401 77.6704 85.5407 77.8966 85.5407 78.1228C85.5407 78.3475 85.5407 78.5723 85.5407 78.8101C84.855 78.8101 84.188 78.8101 83.5078 78.8101C83.5078 74.1136 83.5078 69.4245 83.5078 64.7204C84.1809 64.5846 84.849 64.4498 85.5361 64.3112C85.5361 66.3809 85.5361 68.4282 85.5361 70.4756C85.5468 70.4796 85.5575 70.4836 85.5682 70.4876C85.602 70.4314 85.6376 70.3764 85.6691 70.3191C86.3026 69.1685 87.2681 68.4804 88.5704 68.3218C90.4924 68.0878 92.2863 68.9598 93.2257 70.7453C93.5749 71.4091 93.7866 72.1152 93.8476 72.8785C93.8605 73.3719 93.8605 73.8537 93.8487 74.368C93.8056 74.9557 93.6776 75.4907 93.4675 76.0027C92.8366 77.5401 91.7364 78.5359 90.0917 78.8906C89.8926 78.9336 89.6908 78.9638 89.4903 78.9999C89.249 78.9999 89.0076 78.9999 88.7464 78.9999ZM89.9006 70.5019C88.5385 69.888 86.8076 70.2832 86.0123 71.8488C85.438 72.9793 85.4079 74.1528 85.9382 75.3043C86.4352 76.3834 87.3082 76.986 88.5017 77.0324C89.7348 77.0803 90.6888 76.5485 91.261 75.4498C91.858 74.3033 91.8605 73.1137 91.3274 71.9363C91.0382 71.2974 90.5662 70.821 89.9006 70.5019Z" fill="#1166A5"/>
<path d="M19.6302 79C19.5097 78.9763 19.4101 78.9469 19.3084 78.9297C17.5602 78.6345 16.3846 77.6285 15.7218 76.0093C15.3433 75.0849 15.2398 74.113 15.3091 73.119C15.3662 72.2987 15.5483 71.5117 15.9341 70.783C16.6841 69.3663 17.8543 68.5344 19.4469 68.3198C20.0547 68.2379 20.6605 68.2759 21.2517 68.4537C22.2494 68.7539 22.9854 69.3769 23.4915 70.2807C23.5291 70.3479 23.5659 70.4155 23.6256 70.5235C23.6559 70.2633 23.6391 70.0434 23.642 69.8247C23.645 69.5986 23.6427 69.3723 23.6427 69.1462C23.6427 68.9215 23.6427 68.6969 23.6427 68.4594C24.3291 68.4594 24.9964 68.4594 25.6758 68.4594C25.6758 71.9004 25.6758 75.3326 25.6758 78.7802C25.0088 78.7802 24.341 78.7802 23.6482 78.7802C23.6482 78.1197 23.6482 77.4549 23.6482 76.79C23.6346 76.787 23.6211 76.7841 23.6075 76.7811C23.5849 76.8209 23.5614 76.8601 23.5398 76.9005C22.9037 78.0879 21.9179 78.7725 20.584 78.9568C20.5491 78.9616 20.5144 78.9682 20.4692 78.987C20.1892 79 19.9196 79 19.6302 79ZM17.4902 73.9205C17.5249 74.4338 17.6389 74.928 17.8775 75.3854C18.4164 76.4179 19.2699 76.992 20.435 77.0338C21.5925 77.0754 22.5005 76.5803 23.0797 75.5782C23.7413 74.4335 23.7927 73.2223 23.2667 72.0132C22.7031 70.7178 21.4464 70.0422 20.0569 70.2704C18.9186 70.4575 18.1668 71.1381 17.7434 72.1952C17.527 72.7354 17.4612 73.3014 17.4902 73.9205Z" fill="#1166A5"/>
<path d="M35.0543 78.7955C34.7799 78.7955 34.5266 78.7955 34.2472 78.7955C34.2472 78.6973 34.2473 78.6149 34.2472 78.5324C34.2472 76.5314 34.2469 74.5304 34.2473 72.5294C34.2474 72.1371 34.195 71.7541 34.043 71.3898C33.7375 70.6577 33.1771 70.2764 32.3954 70.2184C31.1765 70.128 30.3135 70.875 29.9219 71.8455C29.7397 72.2968 29.6617 72.7672 29.6623 73.2535C29.6644 75.0141 29.663 76.7747 29.6629 78.5353C29.6629 78.6119 29.6629 78.6885 29.6629 78.7802C28.9812 78.7802 28.3139 78.7802 27.6317 78.7802C27.6317 75.3432 27.6317 71.9053 27.6317 68.4562C28.3026 68.4562 28.9647 68.4562 29.6499 68.4562C29.6776 68.6407 29.6591 68.8296 29.6622 69.0167C29.6654 69.2146 29.6629 69.4126 29.6629 69.6106C29.6629 69.8012 29.6629 69.9917 29.6629 70.202C29.751 70.1551 29.7672 70.0754 29.8024 70.0139C30.1629 69.3837 30.6492 68.8838 31.3106 68.5712C32.6658 67.9307 34.6632 68.2182 35.6856 69.9722C35.7275 70.0441 35.77 70.1156 35.8264 70.2115C35.8869 70.1258 35.9339 70.0592 35.9809 69.9925C36.4515 69.3247 37.0296 68.7786 37.8131 68.5088C39.0964 68.0669 40.3242 68.1704 41.4317 69.0042C42.1563 69.5496 42.5581 70.3126 42.7743 71.1806C42.8877 71.6357 42.9305 72.1 42.931 72.5675C42.9334 74.5756 42.9323 76.5836 42.9318 78.5917C42.9318 78.6536 42.9255 78.7155 42.9217 78.7856C42.2391 78.7856 41.5704 78.7856 40.8775 78.7856C40.8775 78.7003 40.8775 78.6246 40.8775 78.5489C40.8774 76.555 40.8763 74.5611 40.8782 72.5671C40.8785 72.2184 40.8466 71.8758 40.7366 71.5431C40.4645 70.7196 39.8084 70.235 38.9401 70.2135C37.9629 70.1893 37.2458 70.6293 36.7508 71.4513C36.4212 71.9986 36.2946 72.6048 36.2931 73.2367C36.289 75.0044 36.2915 76.7721 36.2914 78.5397C36.2914 78.6162 36.2914 78.6926 36.2914 78.7955C35.8762 78.7955 35.4759 78.7955 35.0543 78.7955Z" fill="#1266A6"/>
<path d="M77.6701 78.9541C77.3826 78.9555 77.1127 78.9536 76.8233 78.9554C76.2462 78.9019 75.6987 78.8022 75.1838 78.5691C74.0263 78.045 73.3384 77.1376 73.031 75.9224C72.9178 75.4749 72.8707 75.0179 72.87 74.5576C72.8668 72.5782 72.8682 70.5988 72.8685 68.6194C72.8685 68.571 72.8739 68.5225 72.8776 68.4598C73.5529 68.4598 74.221 68.4598 74.9166 68.4598C74.9188 68.5364 74.9232 68.6182 74.9232 68.7C74.9237 70.6653 74.9237 72.6305 74.9235 74.5958C74.9235 74.8791 74.9387 75.1596 75.0146 75.4357C75.2455 76.2753 75.8913 76.8425 76.7533 76.9636C77.1287 77.0163 77.4996 77.009 77.8691 76.9231C78.7569 76.7167 79.375 76.0247 79.4755 75.1147C79.4972 74.9185 79.5085 74.7201 79.5088 74.5226C79.5112 72.5857 79.5102 70.6487 79.5102 68.7117C79.5102 68.6291 79.5102 68.5465 79.5102 68.4548C80.1978 68.4548 80.8596 68.4548 81.5374 68.4548C81.5434 68.5102 81.5541 68.5635 81.5541 68.6169C81.5545 70.6316 81.5572 72.6463 81.5514 74.661C81.5495 75.3383 81.4335 75.9987 81.1608 76.6223C80.6387 77.8164 79.7157 78.529 78.4608 78.8254C78.2073 78.8853 77.9455 78.9099 77.6701 78.9541Z" fill="#1266A6"/>
<path d="M50.0064 78.9135C49.6064 78.9287 49.2231 78.9401 48.8203 78.9554C47.9218 78.8828 47.0674 78.7043 46.266 78.3232C45.9995 78.1965 45.7455 78.0436 45.461 77.8893C45.7748 77.2456 46.0764 76.6271 46.3865 75.9911C46.449 76.0302 46.5004 76.0614 46.5507 76.0941C47.2029 76.517 47.9002 76.8337 48.6664 76.985C49.0597 77.0627 49.4555 77.0714 49.8428 76.9603C50.0168 76.9103 50.1939 76.8405 50.3428 76.7399C50.7216 76.4837 50.8431 76.1054 50.7779 75.6646C50.7467 75.4534 50.6369 75.2745 50.4621 75.1544C50.2885 75.0352 50.1071 74.9166 49.9123 74.8412C49.4386 74.6578 48.9552 74.4992 48.4755 74.3313C48.0346 74.1769 47.606 73.9964 47.2038 73.7555C46.3303 73.2323 45.8936 72.4603 45.8652 71.4461C45.8518 70.9663 45.9044 70.5005 46.1044 70.0594C46.4257 69.351 46.9778 68.8915 47.6869 68.6052C48.2861 68.3633 48.9151 68.2801 49.5553 68.2833C50.6564 68.2887 51.6747 68.5856 52.6017 69.185C52.6551 69.2195 52.7076 69.2556 52.7591 69.2928C52.7693 69.3001 52.7733 69.316 52.7883 69.3421C52.4927 69.8936 52.1931 70.4525 51.8846 71.0278C51.8174 70.992 51.7565 70.9625 51.6985 70.9282C51.203 70.6351 50.6848 70.3964 50.1172 70.2815C49.6474 70.1864 49.1756 70.163 48.7135 70.3174C48.1693 70.4992 47.9094 71.0017 48.0733 71.5261C48.1304 71.7088 48.2432 71.8497 48.389 71.9676C48.6231 72.1566 48.8918 72.283 49.1723 72.3821C49.5917 72.5302 50.0177 72.6597 50.4358 72.8112C51.0025 73.0164 51.5473 73.2666 52.0203 73.6509C52.5944 74.1173 52.9043 74.7189 52.9682 75.4553C53.006 75.8904 52.9779 76.3174 52.8496 76.7343C52.5552 77.6909 51.8951 78.3023 50.9825 78.6518C50.6749 78.7696 50.3436 78.8256 50.0064 78.9135Z" fill="#1266A6"/>
<path d="M11.1842 78.9542C10.9108 78.9562 10.6549 78.9548 10.3793 78.9572C9.54212 78.892 8.7455 78.7329 7.9866 78.4104C7.64243 78.2641 7.31203 78.0934 7 77.8662C7.04408 77.7742 7.08861 77.6813 7.13435 77.573C7.34401 77.1414 7.55253 76.7252 7.76083 76.3089C7.81125 76.2082 7.86094 76.1071 7.91782 75.9923C7.98382 76.0345 8.04161 76.0715 8.0994 76.1085C8.74148 76.5194 9.42566 76.8299 10.1769 76.9814C10.5776 77.0623 10.9788 77.0688 11.3738 76.9606C11.5351 76.9165 11.6979 76.8522 11.8384 76.7631C12.2753 76.486 12.3763 76.0542 12.2962 75.6205C12.2591 75.419 12.1439 75.2499 11.9721 75.1398C11.7769 75.0148 11.5759 74.8895 11.3611 74.8064C10.9139 74.6334 10.4555 74.4893 10.0025 74.3311C9.555 74.1748 9.12023 73.9913 8.71299 73.7447C7.84045 73.2165 7.41977 72.4351 7.38931 71.4258C7.36769 70.7095 7.52762 70.0509 7.98495 69.4846C8.38965 68.9835 8.91957 68.6613 9.53262 68.4965C11.2084 68.0459 12.7785 68.2994 14.2323 69.2522C14.2555 69.2674 14.2757 69.2875 14.2964 69.3062C14.3011 69.3105 14.3022 69.3186 14.3144 69.3462C14.0187 69.8972 13.7162 70.4608 13.4096 71.0322C13.2576 70.9462 13.124 70.8686 12.9886 70.7944C12.483 70.5171 11.9522 70.3083 11.3767 70.237C10.967 70.1862 10.5577 70.1874 10.1657 70.3464C9.68435 70.5416 9.45716 71.0057 9.59424 71.502C9.65806 71.733 9.80313 71.9078 9.9998 72.0263C10.2224 72.1605 10.4551 72.2853 10.6973 72.3777C11.1124 72.536 11.5403 72.6604 11.9592 72.8094C12.4462 72.9827 12.9149 73.1968 13.3413 73.4934C13.8826 73.8699 14.2771 74.3579 14.4239 75.0104C14.7519 76.469 14.2131 77.9892 12.5202 78.6544C12.0959 78.8211 11.6527 78.9032 11.1842 78.9542Z" fill="#1266A6"/>
<path d="M63.839 78.9557C63.5513 78.9562 63.2814 78.9535 62.9919 78.9545C62.2789 78.8953 61.6015 78.7633 60.9632 78.474C59.6252 77.8676 58.7258 76.8643 58.2942 75.4611C57.9005 74.1812 57.9125 72.8938 58.345 71.6253C58.8194 70.2342 59.749 69.2469 61.1169 68.712C62.5892 68.1363 64.0825 68.1179 65.5671 68.6869C66.1819 68.9225 66.7143 69.2904 67.1945 69.7747C66.7804 70.29 66.3709 70.7995 65.9521 71.3206C65.8994 71.2749 65.8573 71.2402 65.8172 71.2033C65.1806 70.6172 64.4358 70.2696 63.5677 70.2344C62.7876 70.2027 62.048 70.3584 61.4033 70.8322C60.9005 71.2017 60.5739 71.6999 60.4 72.2917C60.1364 73.1891 60.1308 74.0939 60.424 74.9846C60.8005 76.1284 61.6123 76.7738 62.7909 76.9663C63.9641 77.1579 64.9659 76.8012 65.8245 75.9999C65.8698 75.9576 65.9158 75.916 65.9713 75.8651C66.3843 76.3713 66.7906 76.8692 67.2106 77.384C67.1625 77.4351 67.1188 77.4869 67.0696 77.5329C66.2273 78.3209 65.2375 78.7929 64.0881 78.9223C64.0108 78.931 63.9339 78.9423 63.839 78.9557Z" fill="#1266A6"/>
<path d="M71.73 78.9568C71.4285 78.9568 71.1442 78.9552 70.8403 78.9573C70.5782 78.9137 70.33 78.8859 70.0944 78.8158C69.183 78.5443 68.6374 77.911 68.365 77.0204C68.2212 76.5506 68.1592 76.0661 68.1586 75.5776C68.1539 72.0075 68.1554 68.4374 68.1553 64.8673C68.1553 64.8257 68.1599 64.7841 68.1635 64.7238C68.8342 64.588 69.5022 64.4527 70.1977 64.3118C70.2017 64.4004 70.2078 64.4742 70.2078 64.548C70.2083 68.0757 70.207 71.6034 70.2106 75.1311C70.2108 75.3982 70.2158 75.6715 70.2701 75.9312C70.3935 76.5221 70.809 76.8511 71.4128 76.8728C71.6022 76.8797 71.7922 76.8739 71.9952 76.8739C71.9952 77.5529 71.9952 78.2141 71.9952 78.8962C71.9182 78.9145 71.8328 78.9349 71.73 78.9568Z" fill="#1166A6"/>
<path d="M44.0492 69.5435C43.7676 69.5435 43.5072 69.5435 43.2177 69.5435C43.4793 68.1718 43.7363 66.8236 43.9931 65.4767C44.7346 65.4767 45.4533 65.4767 46.203 65.4767C45.7731 66.8379 45.3486 68.1816 44.9184 69.5435C44.6332 69.5435 44.3518 69.5435 44.0492 69.5435Z" fill="#1266A6"/>
</svg>
