<svg width="100" height="100" viewBox="0 0 100 100" fill="none" xmlns="http://www.w3.org/2000/svg">
<rect width="100" height="100" rx="24" fill="white"/>
<g clip-path="url(#clip0_387_3107)">
<path fill-rule="evenodd" clip-rule="evenodd" d="M72.5904 22.0896C68.1664 21.8096 60.2032 25.5672 58.3664 32.1584C56.16 40.3008 61.1776 45.8448 67.1024 50.2856C71.336 53.5168 75.592 58.932 74.4216 64.868C81.22 57.9744 88.6512 49.0256 88.6512 39.2872C88.6512 28.104 80.6376 22.0896 72.5904 22.0896Z" fill="#D52B1E"/>
<path fill-rule="evenodd" clip-rule="evenodd" d="M59.9344 59.9007C55.9528 54.7263 51.8536 52.1335 47.6704 48.3871C39.2032 40.8103 39.9312 26.3063 48.8296 19.6423C44.9376 16.7919 40.3232 15.2463 35.1096 15.2463C22.1624 15.2463 11.3376 25.6455 11.668 38.4751C12.256 61.6255 41.2528 81.3599 53.2032 85.3975C63.4344 80.3407 65.5008 67.6399 59.94 59.9063" fill="#B6BF00"/>
</g>
<defs>
<clipPath id="clip0_387_3107">
<rect width="84" height="84" fill="white" transform="translate(8 8)"/>
</clipPath>
</defs>
</svg>
