<svg width="100" height="100" viewBox="0 0 100 100" fill="none" xmlns="http://www.w3.org/2000/svg">
<rect width="100" height="100" rx="24" fill="white"/>
<path d="M60.5735 54.6974C60.4647 55.1936 60.3607 55.6567 60.2552 56.1261C59.2125 56.1261 58.2071 56.1261 57.1423 56.1261C57.7068 53.4236 58.2641 50.7559 58.8222 48.0842C59.8375 48.0842 60.8033 48.0842 61.8106 48.0842C61.7714 48.3661 61.7359 48.6217 61.6896 48.9553C61.8229 48.8537 61.9051 48.8016 61.9748 48.7363C62.8765 47.8909 63.9389 47.6792 65.1169 47.9475C65.7127 48.0832 66.1534 48.415 66.3329 49.0326C66.6833 48.768 66.9852 48.4854 67.3347 48.2863C68.3766 47.6929 69.465 47.6813 70.5468 48.1665C71.0406 48.3881 71.3569 48.8065 71.5117 49.3286C71.641 49.765 71.6865 50.2122 71.5931 50.663C71.2265 52.4312 70.8569 54.1988 70.4876 55.9665C70.4796 56.005 70.4628 56.0416 70.4508 56.0771C70.1622 56.1671 67.8298 56.188 67.3207 56.0982C67.3932 55.7535 67.4621 55.4084 67.5386 55.065C67.735 54.1837 67.9454 53.3054 68.1285 52.4214C68.2144 52.0069 68.2657 51.5834 68.3048 51.1614C68.3545 50.6249 68.0302 50.2995 67.4951 50.3166C66.9648 50.3336 66.5529 50.6678 66.4268 51.2233C66.1476 52.4535 65.8835 53.6871 65.6125 54.9192C65.527 55.3079 65.439 55.6959 65.3544 56.0739C65.0343 56.1709 62.6786 56.1826 62.2526 56.0861C62.2907 55.8711 62.3228 55.6521 62.369 55.4362C62.6418 54.1638 62.9234 52.8932 63.1884 51.6192C63.2442 51.3513 63.3149 51.0774 63.2276 50.7946C63.1438 50.5231 62.9703 50.3698 62.6946 50.3242C62.2063 50.2434 61.7084 50.4589 61.4977 50.9207C61.3346 51.2783 61.2403 51.6718 61.1503 52.0574C60.9481 52.9237 60.7676 53.795 60.5735 54.6974Z" fill="#304295"/>
<path d="M11.7278 55.7323C10.9434 56.125 10.1433 56.3284 9.29592 56.4C8.29841 56.4842 7.33035 56.3772 6.39733 56.0361C5.26205 55.6211 4.4298 54.8873 4.12243 53.6676C4.0218 53.2683 3.95678 52.8626 4.03396 52.4528C4.32499 52.3552 6.5819 52.3224 7.33685 52.4076C7.36077 52.5292 7.39779 52.6643 7.41263 52.8018C7.48815 53.5014 7.84183 53.8607 8.54267 53.9057C8.96642 53.9329 9.40245 53.9653 9.79467 53.7588C9.9889 53.6565 10.1843 53.5206 10.3211 53.3526C10.6101 52.9979 10.5075 52.4846 10.0958 52.2636C9.77079 52.0891 9.41514 51.9681 9.06605 51.843C8.39109 51.6012 7.70012 51.4005 7.0363 51.1321C6.31514 50.8405 5.70215 50.3791 5.4092 49.6304C4.95442 48.4681 5.07788 47.3492 5.85906 46.3599C6.56947 45.4602 7.56773 45.0261 8.66829 44.8343C9.71272 44.6523 10.7605 44.6763 11.7881 44.9656C12.5466 45.1791 13.2207 45.5408 13.6971 46.1938C14.1617 46.8306 14.3514 47.5464 14.2897 48.3255C13.994 48.4241 11.7639 48.4536 11.1585 48.3694C11.1413 48.2916 11.1211 48.2051 11.1029 48.1182C11.0164 47.7041 10.7879 47.4164 10.3633 47.3234C9.95551 47.2341 9.54338 47.2283 9.14076 47.3511C8.86665 47.4346 8.62925 47.5707 8.53786 47.8768C8.44106 48.201 8.50442 48.4596 8.80199 48.6301C9.05231 48.7736 9.3287 48.8833 9.60616 48.9653C10.1918 49.1383 10.7961 49.2522 11.3733 49.4479C12.0573 49.6797 12.6947 50.0143 13.1661 50.5909C13.6828 51.2229 13.8449 51.956 13.7744 52.7553C13.6538 54.1211 12.9178 55.0654 11.7278 55.7323Z" fill="#304195"/>
<path d="M27.6994 48.7153C27.7729 48.6609 27.8546 48.6147 27.9185 48.5508C28.3958 48.0734 28.9813 47.8606 29.6447 47.8528C29.9088 47.8497 30.1775 47.857 30.4368 47.9019C31.5201 48.0894 32.1772 48.7713 32.4934 49.7855C32.9289 51.1821 32.7115 52.5461 32.1857 53.873C31.8711 54.6667 31.3829 55.3409 30.6573 55.8172C29.9371 56.2898 29.1351 56.4393 28.2943 56.3361C27.3334 56.2182 27.2664 56.1639 26.3401 55.2842C26.0419 56.4474 25.9035 57.6137 25.6096 58.7594C24.5888 58.7594 23.5841 58.7594 22.5135 58.7594C23.2622 55.1838 24.009 51.6465 24.7608 48.0892C25.7504 48.0892 26.7133 48.0892 27.7164 48.0892C27.6956 48.2847 27.6778 48.4528 27.6576 48.6594C27.6699 48.7037 27.6847 48.7095 27.6994 48.7153ZM27.1981 51.2212C27.1329 51.4505 27.0468 51.6761 27.007 51.9097C26.9338 52.3396 26.857 52.7708 26.9796 53.2099C27.1004 53.6426 27.3399 53.9571 27.7957 54.0352C28.261 54.1149 28.6834 53.9791 28.9628 53.5929C29.5814 52.7378 29.7432 51.7814 29.4836 50.7613C29.3989 50.4284 29.1642 50.2223 28.825 50.1366C28.3382 50.0135 27.9246 50.1488 27.6074 50.5198C27.4471 50.7073 27.3495 50.9484 27.1981 51.2212Z" fill="#304295"/>
<path d="M17.0956 56.312C16.3595 56.4295 15.6854 56.3409 15.0399 56.0429C14.4026 55.7487 14.0511 55.2302 13.9946 54.5513C13.9587 54.1208 13.9885 53.6709 14.0736 53.2467C14.4026 51.6062 14.7652 49.9723 15.117 48.3363C15.1336 48.259 15.1663 48.1852 15.1986 48.0884C16.2148 48.0884 17.2324 48.0884 18.294 48.0884C18.2658 48.2721 18.2516 48.4263 18.2176 48.576C17.9293 49.8453 17.6346 51.1132 17.3494 52.3832C17.3002 52.6022 17.2682 52.8286 17.2612 53.0526C17.249 53.4438 17.4297 53.6978 17.7961 53.7931C18.2329 53.9067 18.8121 53.8544 19.1807 53.3355C19.442 52.9675 19.54 52.5411 19.6322 52.1111C19.8997 50.8647 20.1688 49.6187 20.4393 48.373C20.4588 48.2834 20.4954 48.1976 20.5376 48.0684C21.5501 48.0632 22.564 48.0486 23.6261 48.0789C23.0583 50.7977 22.5031 53.4567 21.9453 56.1275C20.9198 56.1275 19.9409 56.1275 18.915 56.1275C18.9759 55.8492 19.0301 55.6012 19.0843 55.3533C19.0638 55.3371 19.0434 55.3209 19.0229 55.3047C18.5101 55.8741 17.8832 56.2168 17.0956 56.312Z" fill="#304295"/>
<path d="M74.6547 51.3632C75.2457 51.3251 75.8026 51.3014 76.3569 51.2498C76.6584 51.2218 76.9639 51.1739 77.2525 51.0855C77.5974 50.9799 77.7758 50.6799 77.7485 50.3546C77.7197 50.012 77.5158 49.7804 77.1499 49.7003C76.6157 49.5834 75.8866 49.7287 75.6751 50.338C75.6317 50.463 75.5538 50.5358 75.4117 50.5355C74.5236 50.5336 73.6355 50.5346 72.6926 50.5346C72.7253 50.3648 72.7368 50.2373 72.7748 50.1182C73.137 48.9806 73.9133 48.2707 75.068 48.0204C76.4097 47.7295 77.7593 47.762 79.0925 48.099C79.5069 48.2037 79.8855 48.4017 80.1954 48.7115C80.5303 49.0462 80.705 49.4392 80.7139 49.9208C80.7285 50.7125 80.5598 51.4779 80.4149 52.2465C80.2502 53.1204 80.0485 53.9875 79.8948 54.8632C79.8249 55.2618 79.8316 55.6739 79.7994 56.1389C78.873 56.1643 77.8834 56.1449 76.8626 56.15C76.7957 55.9278 76.7356 55.7285 76.6675 55.5025C76.6225 55.5274 76.565 55.5472 76.5229 55.5843C75.7498 56.2662 74.8194 56.4098 73.8414 56.3369C73.5026 56.3117 73.1596 56.2205 72.8387 56.1037C72.1251 55.8441 71.7223 55.3056 71.6263 54.5601C71.572 54.1388 71.5929 53.7121 71.7129 53.2961C71.9515 52.4691 72.5248 51.9709 73.3109 51.7066C73.7371 51.5632 74.1827 51.4776 74.6547 51.3632ZM75.4217 54.4706C75.5146 54.4721 75.6076 54.4735 75.7006 54.4749C76.2254 54.4829 76.6385 54.2628 76.8844 53.8072C77.0459 53.5081 77.1363 53.17 77.2496 52.8462C77.2674 52.7951 77.2378 52.7275 77.233 52.6896C76.7672 52.7742 76.3252 52.8529 75.8838 52.9352C75.6763 52.9739 75.461 52.995 75.2651 53.0671C74.8912 53.2047 74.705 53.5011 74.7248 53.8615C74.7428 54.1906 74.8954 54.3362 75.4217 54.4706Z" fill="#304195"/>
<path d="M49.2438 49.9153C49.2965 49.8424 49.3642 49.7761 49.3999 49.6957C49.8094 48.7707 50.5468 48.2302 51.5021 48.0235C52.8426 47.7334 54.1958 47.7488 55.5279 48.0965C56.2514 48.2853 56.8921 48.6571 57.081 49.4326C57.1907 49.883 57.1647 50.3855 57.107 50.8532C57.0161 51.5896 56.8509 52.3171 56.7097 53.0469C56.5986 53.6205 56.4774 54.1921 56.3584 54.764C56.2685 55.1961 56.2061 55.6284 56.3348 56.0598C56.053 56.1687 54.1061 56.2049 53.3221 56.1169C53.2597 55.925 53.192 55.7168 53.1159 55.4827C52.9754 55.5942 52.8496 55.709 52.7096 55.8026C51.9923 56.2825 51.1865 56.4103 50.3486 56.3406C49.8601 56.3 49.3766 56.2067 48.9529 55.919C48.3703 55.5234 48.052 54.9868 48.0693 54.2788C48.0773 53.9493 48.0968 53.6114 48.1773 53.2941C48.3895 52.4576 48.9893 51.9775 49.7694 51.7013C50.6544 51.388 51.5742 51.2736 52.5094 51.2523C52.8134 51.2454 53.1202 51.2259 53.4191 51.174C53.5959 51.1433 53.7813 51.0673 53.9253 50.9608C54.3679 50.6335 54.2808 49.9627 53.7745 49.7629C53.2099 49.5402 52.3778 49.6689 52.1421 50.3221C52.0899 50.4669 52.0072 50.5375 51.8504 50.5365C50.9861 50.5311 50.1219 50.5304 49.2576 50.5254C49.2213 50.5252 49.1851 50.4971 49.1191 50.4441C49.1076 50.3231 49.1258 50.2401 49.1703 50.143C49.215 50.0541 49.2334 49.9793 49.2499 49.9073C49.2479 49.91 49.2438 49.9153 49.2438 49.9153ZM52.8016 54.324C53.3468 54.0205 53.7459 53.2719 53.68 52.6965C53.112 52.7942 52.5403 52.8775 51.9763 52.9975C51.7785 53.0396 51.58 53.1457 51.4171 53.269C51.1858 53.4441 51.1371 53.7144 51.1962 53.9877C51.2566 54.2665 51.4673 54.4034 51.7344 54.446C52.0775 54.5006 52.42 54.5065 52.8016 54.324Z" fill="#304195"/>
<path d="M32.967 52.0004C33.0608 51.272 33.252 50.613 33.6224 50.0145C34.2479 49.0036 35.1625 48.3777 36.2896 48.057C37.5346 47.7028 38.7598 47.7451 39.9339 48.3366C41.0323 48.89 41.6497 49.7893 41.7364 51.0136C41.7717 51.5122 41.7027 52.0187 41.6709 52.521C41.6645 52.6217 41.6112 52.7194 41.5673 52.8568C39.6732 52.8568 37.7901 52.8568 35.9129 52.8568C35.7968 53.8872 36.5509 54.5129 37.555 54.2654C37.8038 54.204 38.0219 54.0889 38.2008 53.8931C38.2721 53.815 38.3945 53.7396 38.4945 53.7385C39.3721 53.7289 40.2498 53.7358 41.1275 53.7402C41.1636 53.7404 41.1995 53.7642 41.2657 53.7878C41.1439 54.3237 40.882 54.7857 40.498 55.1551C40.2155 55.4269 39.8885 55.6868 39.5334 55.843C38.022 56.5075 36.464 56.5728 34.92 55.9837C33.6778 55.5098 33.0673 54.5237 32.9591 53.2225C32.9264 52.8298 32.959 52.4316 32.967 52.0004ZM38.8562 50.7752C38.7767 50.1953 38.4076 49.9154 37.8668 49.8517C37.442 49.8016 37.0469 49.9191 36.7127 50.1926C36.4189 50.433 36.2454 50.7471 36.1602 51.1208C36.238 51.1455 36.2748 51.1672 36.3116 51.1674C37.069 51.1712 37.8264 51.1693 38.5837 51.1763C38.828 51.1786 38.8716 51.038 38.8562 50.7752Z" fill="#304195"/>
<path d="M69.4105 59.1979C67.764 58.9221 66.1949 58.4985 64.6077 57.8846C64.9831 57.2591 65.3342 56.674 65.7008 56.0631C65.9499 56.1543 66.1722 56.2321 66.3919 56.3167C67.8684 56.8854 69.3624 57.3924 70.9243 57.6802C73.7584 58.2025 76.5493 58.0949 79.2945 57.1637C80.7734 56.662 82.1856 56.0295 83.4891 55.1619C84.3179 54.6103 85.0058 53.9068 85.609 53.1302C86.1697 52.4082 86.6695 51.6379 87.1792 50.8776C87.4158 50.5246 87.3982 50.5098 87.8086 50.567C87.9247 50.5832 88.038 50.6192 88.2099 50.6597C88.1446 50.9121 88.1027 51.1573 88.018 51.3867C87.622 52.4599 87.0156 53.4039 86.2421 54.245C84.5974 56.0335 82.5544 57.2158 80.3391 58.1383C78.9235 58.7278 77.4685 59.1766 75.9415 59.3655C75.5468 59.4143 75.1512 59.458 74.755 59.4914C72.9719 59.6418 71.2045 59.4898 69.4105 59.1979Z" fill="#2F4194"/>
<path d="M49.144 50.1571C49.1258 50.2402 49.1076 50.3232 49.0876 50.4318C49.0597 50.5311 49.0335 50.6047 49.0185 50.6471C48.5377 50.6093 48.0797 50.5495 47.6209 50.5425C46.7564 50.5292 46.165 50.953 45.8174 51.7383C45.5182 52.4144 45.4228 53.1425 45.2667 53.8547C45.1217 54.5162 44.9996 55.1827 44.8647 55.8464C44.8467 55.935 44.8128 56.0204 44.7805 56.1261C43.7509 56.1261 42.7333 56.1261 41.6501 56.1261C42.2145 53.4241 42.7716 50.7567 43.3288 48.0888C44.3586 48.0888 45.3372 48.0888 46.3604 48.0888C46.3121 48.4109 46.2683 48.7022 46.2246 48.9935C46.2422 49.0128 46.2597 49.0322 46.2773 49.0515C47.1523 48.0136 48.2277 47.6185 49.5885 47.9543C49.466 48.6052 49.349 49.2267 49.2379 49.8818C49.2438 49.9154 49.2479 49.9101 49.2273 49.9244C49.1857 50.0116 49.1649 50.0844 49.144 50.1571Z" fill="#304195"/>
<path d="M88.0529 45.4405C88.7595 45.2466 89.4116 45.3322 90.0189 45.6521C91.0757 46.2086 91.8266 47.0392 92.144 48.2115C92.3508 48.975 92.1313 49.4253 91.4321 49.7817C90.9139 50.0459 90.3546 50.1591 89.7859 50.2176C88.372 50.3631 87.0119 50.1238 85.7017 49.5899C85.4951 49.5057 85.2993 49.3845 85.1161 49.2556C84.7515 48.9989 84.6334 48.6429 84.73 48.2069C84.8344 47.7359 85.0876 47.3499 85.4144 47.0122C86.1422 46.2598 87.0342 45.7743 88.0529 45.4405Z" fill="#CB212F"/>
<path d="M91.6831 43.8083C92.6906 43.6217 93.6698 43.6049 94.6467 43.7701C95.2424 43.8708 95.7893 44.0981 96.2781 44.4682C97.0995 45.0902 97.2183 46.2604 96.6428 47.0315C95.9437 47.9683 95.0029 48.5324 93.8699 48.7622C93.3964 48.8582 93.0022 48.6174 92.7325 48.2458C92.4611 47.8718 92.2298 47.4648 92.0156 47.0542C91.7365 46.5191 91.4226 46.0103 90.97 45.6097C90.6854 45.3579 90.3577 45.1549 90.0123 44.9029C90.4018 44.3324 90.9495 43.9658 91.6831 43.8083Z" fill="#CA212F"/>
<path d="M87.2411 44.6256C87.3458 44.8067 87.2359 44.8494 87.1239 44.9143C86.7798 45.1136 86.4325 45.3103 86.1058 45.5361C85.6445 45.8547 85.3708 46.3308 85.1099 46.8116C84.977 47.0566 84.8523 47.3065 84.7121 47.5472C84.0101 48.7525 82.6266 48.541 81.9805 47.9027C81.3956 47.3248 81.1133 46.607 81.0344 45.8057C81.0074 45.532 81.008 45.2435 81.064 44.976C81.1823 44.4107 81.524 43.9863 82.0486 43.7471C82.3713 43.6 82.7173 43.4654 83.0652 43.4196C84.1269 43.28 85.1869 43.2816 86.2005 43.7048C86.6396 43.888 87.0082 44.1619 87.2411 44.6256Z" fill="#CA212F"/>
<path d="M89.6177 42.2274C89.1038 42.8991 88.4862 43.3839 87.7051 43.6468C87.5358 43.7037 87.3628 43.7435 87.2123 43.6165C86.503 43.0174 85.6667 42.9923 84.7993 43.0446C84.4469 43.0658 84.0785 43.0434 83.7361 42.962C83.0399 42.7965 82.8501 42.3378 83.2719 41.6698C83.5258 41.2676 83.9003 40.991 84.3158 40.7671C85.3224 40.2245 86.412 40.0313 87.5392 40.0024C88.0441 39.9895 88.5433 40.0269 89.0415 40.1373C90.0101 40.3521 90.1536 41.1893 89.8174 41.8954C89.7663 42.0028 89.6952 42.1007 89.6177 42.2274Z" fill="#CA212F"/>
<path d="M94.2189 43.3321C93.9804 43.2739 93.773 43.2288 93.5669 43.1786C92.4181 42.8985 91.3317 43.0812 90.2915 43.615C90.2364 43.6433 90.1765 43.6625 90.0475 43.7148C90.0682 43.417 90.0827 43.1751 90.1023 42.9335C90.1422 42.4402 90.2485 41.9638 90.4703 41.5173C90.8286 40.7958 91.4162 40.3779 92.2039 40.2691C93.5178 40.0877 94.647 40.4579 95.5364 41.4684C95.8034 41.7717 96.0067 42.1172 96.0624 42.523C96.1544 43.1939 95.8963 43.5385 95.2289 43.5059C94.9009 43.4898 94.5765 43.3995 94.2189 43.3321Z" fill="#CA212F"/>
<path d="M87.9518 43.9212C88.3826 43.5327 88.8703 43.5496 89.3648 43.6331C89.6443 43.6803 89.8123 43.8665 89.8519 44.1436C89.889 44.4037 89.7814 44.618 89.557 44.7522C89.0808 45.037 88.569 45.0535 88.0604 44.8735C87.7615 44.7677 87.6642 44.4363 87.8032 44.144C87.8371 44.0728 87.8889 44.01 87.9518 43.9212Z" fill="#CA212F"/>
<path d="M27.6929 48.707C27.6847 48.7095 27.67 48.7037 27.6642 48.6902C27.6732 48.6823 27.6863 48.6988 27.6929 48.707Z" fill="black"/>
<path d="M49.1703 50.143C49.1649 50.0843 49.1858 50.0115 49.2293 49.9216C49.2335 49.9793 49.215 50.0541 49.1703 50.143Z" fill="black"/>
</svg>
