<svg width="100" height="100" viewBox="0 0 100 100" fill="none" xmlns="http://www.w3.org/2000/svg">
<rect width="100" height="100" rx="24" fill="white"/>
<path d="M89.0559 57.132C89.2575 55.4491 89.4621 53.8293 89.6628 52.209C89.7425 51.5655 89.886 50.9194 89.8724 50.2772C89.8487 49.1659 88.8644 48.6222 87.8992 49.1768C86.9874 49.7006 86.5057 50.5363 86.3556 51.5801C86.0666 53.5909 85.7576 55.5989 85.4596 57.5896C85.3838 57.6316 85.3365 57.6808 85.2895 57.6805C83.0422 57.6669 83.2189 58.1133 83.5551 55.7368C83.7806 54.143 84.0576 52.5562 84.27 50.9607C84.3683 50.222 84.3977 49.406 83.5404 49.0736C82.725 48.7574 81.9881 49.1308 81.547 49.8032C81.174 50.3717 80.8998 51.0586 80.7785 51.7287C80.4225 53.6961 80.1645 55.6812 79.8654 57.677C79.1932 57.677 78.5766 57.677 77.7755 57.677C77.9064 56.6884 78.0239 55.7267 78.1628 54.7681C78.4299 52.9233 78.8455 51.0872 78.9399 49.2342C79.0148 47.7652 79.9132 47.384 81.076 46.9514C81.076 47.4258 81.076 47.8249 81.076 48.2688C83.1221 46.6612 84.9337 46.7586 86.2327 48.6053C87.1306 46.9806 88.6977 47.2838 90.1259 47.2464C91.0291 47.2228 92.1045 48.6102 91.9918 49.5964C91.7074 52.0847 91.3774 54.5678 91.0944 57.0563C91.036 57.5696 90.7909 57.825 90.3342 57.6831C89.9045 57.5495 89.1399 58.2174 89.0559 57.132Z" fill="#05933A"/>
<path d="M75.4727 56.778C75.473 56.855 75.4734 56.9319 75.4073 57.0437C74.8491 57.594 74.2767 57.5297 73.7305 57.3674C73.6276 57.0165 73.5443 56.7325 73.461 56.4485C73.7082 54.6888 73.9552 52.9291 74.2028 51.1695C74.2263 51.0021 74.2692 50.8356 74.2751 50.6678C74.2963 50.0591 74.2677 49.4505 73.6347 49.1296C72.9629 48.789 72.2807 48.9571 71.8707 49.499C71.3955 50.1272 70.9325 50.8638 70.7795 51.6174C70.376 53.6043 70.1432 55.6258 69.8442 57.6225C67.7302 57.9348 67.6002 57.8 67.9277 55.7932C68.1869 54.2052 68.4376 52.6153 68.6547 51.0212C68.7548 50.2864 68.7987 49.513 67.9906 49.0881C67.3641 48.7587 66.3806 49.0748 65.8678 49.8842C65.518 50.4362 65.2769 51.103 65.1624 51.7495C64.8181 53.6929 64.5596 55.6514 64.2605 57.652C63.605 57.652 62.9716 57.652 62.1662 57.652C62.3166 56.5091 62.4527 55.3763 62.6173 54.2476C62.8658 52.5438 63.274 50.8491 63.3516 49.1387C63.4181 47.6737 64.3888 47.4076 65.4718 46.9386C65.4718 47.4119 65.4718 47.7896 65.4718 48.3555C66.2412 47.4996 67.0749 47.2455 68.1145 47.2318C69.2407 47.217 70.0074 47.5567 70.5969 48.6545C71.5287 46.9836 73.0887 47.2683 74.5228 47.2485C75.4292 47.2359 76.4871 48.6103 76.3794 49.6027C76.1551 51.6705 75.8969 53.7347 75.5849 55.8469C75.5024 56.1883 75.4875 56.4832 75.4727 56.778Z" fill="#05933A"/>
<path d="M39.473 53.1935C38.1805 53.4026 36.9507 53.5738 35.7323 53.8049C35.4001 53.868 34.8213 54.1475 34.8365 54.2659C34.9066 54.8117 35.0946 55.3631 35.3526 55.8534C35.4487 56.036 35.8442 56.1073 36.1147 56.144C37.4621 56.3269 38.783 56.2563 40.028 55.6305C40.5825 56.8052 40.5609 56.8931 39.3585 57.3732C37.7864 58.001 36.1696 58.0641 34.5434 57.6247C33.4205 57.3214 32.728 56.5341 32.6121 55.4042C32.4175 53.5067 32.5669 51.6314 33.3732 49.855C33.9327 48.6224 34.8429 47.7206 36.1475 47.4524C37.287 47.218 38.4973 47.1281 39.6542 47.2288C41.053 47.3505 41.7552 48.1515 41.9061 49.356C42.1156 51.0276 41.5524 52.2964 40.3301 52.8776C40.0765 52.9982 39.8039 53.079 39.473 53.1935ZM35.0624 51.4253C35.0174 51.6646 34.9725 51.9039 34.9008 52.2853C36.2702 52.0375 37.5503 51.8634 38.7991 51.5603C39.6779 51.347 40.1033 50.6227 39.991 49.8531C39.8816 49.1037 39.2508 48.6601 38.2912 48.6578C36.7255 48.654 35.6816 49.5134 35.0624 51.4253Z" fill="#06933A"/>
<path d="M51.9035 52.8807C52.0013 50.0842 53.298 47.9434 55.4822 47.4185C56.6249 47.1439 57.8896 47.1615 59.0673 47.3066C60.3233 47.4613 61.0753 48.438 61.2151 49.7037C61.4312 51.6591 61.1059 53.5433 60.2271 55.2946C59.3196 57.1029 57.8488 58.0163 55.766 57.8101C55.2949 57.7635 54.8045 57.8604 54.3428 57.7789C53.0767 57.5553 52.224 56.8315 51.9491 55.4395C51.9698 54.5101 51.9367 53.6954 51.9035 52.8807ZM59.0106 51.8754C59.0322 51.5376 59.0748 51.1996 59.0709 50.8621C59.0625 50.1336 59.1694 49.3116 58.4039 48.8912C57.5769 48.4369 56.66 48.5448 55.9023 49.0347C55.439 49.3343 54.9675 49.8599 54.8275 50.3733C54.4898 51.6119 54.2347 52.8956 54.149 54.1747C54.0354 55.8706 54.937 56.5182 56.6047 56.1327C57.4131 55.9458 57.9978 55.4503 58.2684 54.7066C58.5837 53.8405 58.7593 52.9235 59.0106 51.8754Z" fill="#059339"/>
<path d="M26.9275 49.1479C27.3026 51.4912 26.4522 52.7978 24.1611 53.2619C22.7818 53.5412 21.3809 53.7136 20.0004 53.9324C19.6113 55.2765 20.0228 56.0926 21.3496 56.1416C22.6129 56.1882 23.8878 55.9176 25.2073 55.7813C25.6244 56.8901 25.6299 56.9039 24.4111 57.387C22.9223 57.9771 21.3832 58.0549 19.8374 57.6806C18.471 57.3498 17.653 56.5143 17.6691 55.1237C17.6868 53.5887 17.8385 52.0208 18.202 50.5333C18.6364 48.7559 19.9182 47.6671 21.8567 47.3324C23.3185 47.4907 24.6637 47.597 26.009 47.7034C26.009 47.7034 26.0082 47.7187 26.0111 47.7639C26.0655 47.8147 26.117 47.8204 26.1684 47.8261C26.1684 47.8261 26.2223 47.8489 26.2136 47.9113C26.2049 47.9737 26.2643 48.0321 26.2643 48.0321L26.3348 47.9873C26.3348 47.9873 26.3802 48.0085 26.3728 48.0883C26.5527 48.4947 26.7401 48.8213 26.9275 49.1479ZM20.1951 51.1591C20.1263 51.4833 20.0575 51.8075 19.9544 52.2937C21.3591 52.0347 22.6657 51.8539 23.9387 51.5379C24.7903 51.3265 25.2208 50.5435 25.0513 49.7885C24.8643 48.9554 24.2383 48.6907 23.4701 48.6599C21.9723 48.5998 20.9118 49.3824 20.1951 51.1591Z" fill="#059339"/>
<path d="M51.0104 47.7918C51.1548 47.9204 51.2991 48.0489 51.5048 48.2321C51.236 48.7048 50.9448 49.2171 50.6419 49.7497C50.4768 49.6818 50.3472 49.6675 50.2804 49.5952C49.164 48.3862 47.7757 48.3211 46.7146 49.5707C45.3288 51.2028 45.2354 53.1818 45.5961 55.1729C45.6639 55.547 46.259 56.0702 46.6377 56.0939C47.5095 56.1483 48.3961 55.909 49.2807 55.8508C49.5799 55.8311 50.0246 55.9019 50.1672 56.1006C50.4017 56.4271 50.4601 56.8356 49.9165 57.1284C48.2749 58.0125 46.5751 58.1263 44.8381 57.5659C43.8037 57.2321 43.2406 56.3934 43.1061 55.3482C42.8718 53.528 43.0516 51.7337 43.7978 50.0405C44.4236 48.6204 45.4922 47.6687 47.1366 47.3309C48.5046 47.519 49.7575 47.6554 51.0104 47.7918Z" fill="#05933A"/>
<path d="M27.7769 56.8873C28.4121 52.6286 29.0382 48.4423 29.67 44.2569C29.694 44.0975 29.7259 43.8645 29.8324 43.8046C30.5045 43.4259 31.1988 43.0864 32.0866 42.6309C31.9849 43.517 31.9316 44.1506 31.837 44.7781C31.2271 48.8239 30.5851 52.865 30.0067 56.9152C29.8392 58.0876 29.0113 57.6134 28.3994 57.698C27.8339 57.7762 27.5121 57.6042 27.7769 56.8873Z" fill="#06933A"/>
<path d="M21.504 44.9572C20.8909 45.0365 20.2743 45.0955 19.6652 45.1988C17.7954 45.5162 16.5452 46.5836 16.1139 48.4304C15.7493 49.9915 15.5303 51.5877 15.2728 53.1726C15.0693 54.4252 14.882 55.6814 14.7338 56.9415C14.6625 57.5486 14.3977 57.7852 13.7961 57.71C13.4903 57.6718 13.1603 57.7595 12.8715 57.6801C12.7151 57.6371 12.4983 57.3458 12.5191 57.1955C12.901 54.4311 13.2141 51.6516 13.7465 48.915C14.4543 45.2768 17.2254 43.8471 20.4656 44.5588C20.7837 44.6287 21.074 44.8253 21.4437 44.9642C21.5102 44.9652 21.504 44.9572 21.504 44.9572Z" fill="#06933A"/>
<path d="M46.642 60.676C40.2892 60.645 34.0212 60.6141 27.7532 60.5831C27.7536 60.451 27.7541 60.319 27.7545 60.1869C43.4946 60.0336 59.2346 59.9226 74.9746 60.2574C74.9749 60.3757 74.9752 60.4939 74.9755 60.6121C65.5593 60.6334 56.1431 60.6547 46.642 60.676Z" fill="#DA2B36"/>
<path d="M21.5346 45.0122C21.504 44.9572 21.5103 44.9652 21.5088 44.9701C21.6153 44.1181 21.7234 43.2613 21.8406 42.2766C21.7719 42.0727 21.694 41.9967 21.6161 41.9206C21.6161 41.9206 21.6453 41.9008 21.633 41.8561C21.5448 41.7875 21.4689 41.7636 21.393 41.7398C21.393 41.7398 21.3993 41.7705 21.3717 41.7215C21.2956 41.621 21.2473 41.5696 21.1338 41.4886C20.0946 41.415 19.1204 41.3709 18.1397 41.2743C18.0256 41.0913 17.918 40.9609 17.7296 40.8311C16.225 40.8326 14.8011 40.8335 13.3364 40.8728C13.2813 40.9833 13.2669 41.0556 13.2525 41.1278C11.5373 41.4609 10.1252 42.195 9.42183 44.0354C10.2037 44.0354 10.9164 44.0354 11.7998 44.0354C11.1559 44.6224 10.6408 45.0919 10.0451 45.635C10.0251 45.3277 10.0133 45.146 9.99687 44.8924C9.35527 44.8924 8.71879 44.8924 8 44.8924C8.0465 44.4914 8.08376 44.1702 8.19842 43.7715C8.34031 43.5811 8.44034 43.4752 8.46364 43.3545C8.64793 42.3999 8.81759 41.4425 9.02231 40.4538C9.0424 40.3665 9.03193 40.3113 9.02147 40.256C9.02147 40.256 9.04546 40.2273 9.14024 40.2517C9.34615 40.2912 9.45726 40.3193 9.5684 40.3194C13.6992 40.3225 17.8301 40.3249 21.9609 40.3187C22.1791 40.3184 22.3971 40.2423 22.6152 40.2014C22.6152 40.2014 22.6487 40.2202 22.6428 40.281C22.7125 40.3952 22.7882 40.4486 22.8638 40.5021C22.7157 42.1608 22.5675 43.8195 22.4031 45.6607C22.0022 45.3768 21.7837 45.222 21.5346 45.0122Z" fill="#2F1F54"/>
<path d="M22.5621 40.1647C22.3971 40.2423 22.1791 40.3184 21.9609 40.3188C17.8301 40.3249 13.6992 40.3225 9.56839 40.3194C9.45725 40.3193 9.34614 40.2912 9.15619 40.242C9.37057 40.1387 9.66357 40.0106 9.957 40.0096C13.866 39.9964 17.7751 39.9983 21.6841 40.0064C21.9592 40.007 22.234 40.0856 22.5621 40.1647Z" fill="#312154"/>
<path d="M17.8103 40.8304C17.9179 40.9609 18.0256 41.0913 18.1355 41.3328C18.1374 41.5216 18.1369 41.5993 18.1364 41.677C18.0064 41.8019 17.8843 41.9366 17.7446 42.0497C17.4893 42.2564 17.2485 42.5421 16.9547 42.6218C16.7024 42.6901 16.374 42.5428 16.1037 42.4315C16.0397 42.4052 16.0106 42.0455 16.0734 42.0044C16.2899 41.8629 16.5574 41.8021 16.7994 41.6966C17.1571 41.5406 17.8475 42.1106 17.8282 41.0851C17.7979 40.9164 17.8041 40.8734 17.8103 40.8304Z" fill="#291D4D"/>
<path d="M25.9688 47.6609C24.6637 47.597 23.3185 47.4906 21.9224 47.3352C23.257 46.9934 24.6228 46.9389 25.9688 47.6609Z" fill="#12933A"/>
<path d="M50.9941 47.7357C49.7576 47.6554 48.5047 47.519 47.2012 47.3331C48.4744 46.9507 49.7578 47.008 50.9941 47.7357Z" fill="#12933A"/>
<path d="M73.4374 56.5105C73.5443 56.7325 73.6276 57.0165 73.7306 57.3674C74.2768 57.5297 74.8491 57.594 75.3877 57.0983C75.2773 57.3126 75.1399 57.6498 74.9593 57.6748C74.4205 57.7494 73.8648 57.7016 73.2256 57.7016C73.2977 57.2689 73.3557 56.9207 73.4374 56.5105Z" fill="#0C8B2B"/>
<path d="M8.99174 40.486C8.81758 41.4425 8.64791 42.4 8.46363 43.3546C8.44032 43.4753 8.34029 43.5812 8.21228 43.7051C8.32241 42.6602 8.49606 41.6041 8.77886 40.5186C8.92258 40.4881 8.95716 40.487 8.99174 40.486Z" fill="#1A0D41"/>
<path d="M18.2153 41.6882C18.1369 41.5992 18.1374 41.5215 18.1421 41.3853C19.1204 41.3709 20.0946 41.415 21.1322 41.5352C21.1948 41.6425 21.1941 41.6736 21.1933 41.7048C20.2269 41.703 19.2605 41.7012 18.2153 41.6882Z" fill="#221148"/>
<path d="M51.8776 52.9447C51.9367 53.6954 51.9698 54.5101 51.9537 55.375C51.8869 54.6198 51.8693 53.8142 51.8776 52.9447Z" fill="#12933A"/>
<path d="M17.7296 40.8311C17.8041 40.8734 17.7979 40.9164 17.7855 41.0242C16.3502 41.0966 14.9212 41.1043 13.4284 41.0422C13.3688 40.9265 13.373 40.8804 13.3771 40.8344C14.801 40.8335 16.225 40.8326 17.7296 40.8311Z" fill="#080133"/>
<path d="M26.9327 49.0887C26.7401 48.8213 26.5527 48.4947 26.3866 48.1091C26.5846 48.3766 26.7612 48.7031 26.9327 49.0887Z" fill="#12933A"/>
<path d="M75.4962 56.7215C75.4876 56.4832 75.5024 56.1883 75.5639 55.9126C75.5802 56.1761 75.55 56.4205 75.4962 56.7215Z" fill="#0C8B2B"/>
<path d="M21.639 41.9695C21.6939 41.9966 21.7718 42.0726 21.8494 42.2121C21.7866 42.1899 21.7243 42.1041 21.639 41.9695Z" fill="#291D4D"/>
<path d="M9.02232 40.4538C8.95719 40.487 8.92261 40.4881 8.83618 40.4869C8.83787 40.421 8.89141 40.3574 8.98322 40.2749C9.03195 40.3113 9.04241 40.3665 9.02232 40.4538Z" fill="#312154"/>
<path d="M22.8641 40.4592C22.7881 40.4486 22.7125 40.3951 22.6558 40.295C22.7379 40.3044 22.8012 40.3604 22.8641 40.4592Z" fill="#312154"/>
<path d="M21.4218 41.7865C21.4689 41.7636 21.5448 41.7875 21.6324 41.8737C21.5796 41.9018 21.5151 41.8675 21.4218 41.7865Z" fill="#291D4D"/>
<path d="M13.3364 40.8728C13.373 40.8805 13.3688 40.9265 13.345 41.0391C13.3253 41.1056 13.2912 41.1244 13.2719 41.1261C13.2669 41.0556 13.2813 40.9834 13.3364 40.8728Z" fill="#291D4D"/>
<path d="M21.2327 41.734C21.194 41.6737 21.1948 41.6426 21.1972 41.5648C21.2472 41.5697 21.2956 41.6211 21.3565 41.7257C21.3367 41.7736 21.3044 41.7683 21.2327 41.734Z" fill="#291D4D"/>
<path d="M26.3244 47.9693C26.3348 47.9873 26.2642 48.032 26.2642 48.032C26.2642 48.032 26.2049 47.9736 26.2267 47.9374C26.2485 47.9012 26.314 47.9513 26.3244 47.9693Z" fill="#12933A"/>
<path d="M26.1512 47.7995C26.1169 47.8204 26.0655 47.8147 26.0187 47.7628C26.0675 47.7211 26.1044 47.7399 26.1512 47.7995Z" fill="#12933A"/>
</svg>
