<svg width="100" height="100" viewBox="0 0 100 100" fill="none" xmlns="http://www.w3.org/2000/svg">
<rect width="100" height="100" rx="24" fill="#E1261B"/>
<path d="M16.4509 70.5316C15.5076 68.5853 14.6054 66.6806 13.6639 64.7956C13.5741 64.6158 13.2329 64.4493 13.0187 64.4614C10.8371 64.5844 8.71069 64.5522 6.86075 63.1145C5.77019 62.267 5.63846 61.0594 5.47108 59.8439C5.22561 58.0613 4.96842 56.2802 4.73382 54.4962C4.46301 52.4367 4.22035 50.3736 3.9485 48.3144C3.72287 46.6052 3.41459 44.9047 3.25441 43.1899C3.15322 42.1067 2.61399 40.9319 3.50301 39.9395C3.87548 39.5237 4.3395 39.0593 4.8461 38.9172C6.92909 38.3329 8.97488 38.5169 10.8123 39.7262C11.343 40.0755 11.6891 40.7053 12.0289 41.1007C12.722 39.1739 13.4363 37.0907 14.2195 35.0337C15.406 31.9174 17.1482 29.1048 19.1635 26.4703C22.5483 22.0457 26.6995 18.504 31.598 15.8284C35.6162 13.6337 39.8791 12.2292 44.3948 11.4886C47.3773 10.9995 50.3791 10.8933 53.3584 11.1C58.9911 11.4908 64.3473 13.0138 69.321 15.7403C71.8029 17.1008 74.1181 18.7012 76.2682 20.5598C79.5524 23.3987 82.339 26.6564 84.5004 30.4006C85.6988 32.4765 86.5761 34.7371 87.618 36.9049C87.7491 37.1776 87.9587 37.4549 88.2052 37.6223C89.2387 38.3245 89.6877 39.1126 89.2625 40.2234C88.826 41.364 89.2077 42.3923 89.3373 43.466C89.385 43.8605 89.5853 44.2519 89.5639 44.6363C89.5178 45.4626 89.7702 45.6593 90.6257 45.563C92.1412 45.3923 93.6391 45.6393 94.9899 46.4202C96.8287 47.4833 97.7267 49.1485 97.9445 51.2143C97.9893 51.6397 97.8855 52.0863 97.9642 52.5015C98.1439 53.4487 97.6264 53.9066 96.8605 54.1855C96.2321 54.4144 95.5794 54.5766 95.0788 54.7261C95.4307 55.1218 95.8543 55.6605 96.3417 56.1335C97.5511 57.3072 97.6889 58.8042 97.1443 60.1829C96.2804 62.3699 94.6907 63.9104 92.2417 64.3834C90.6839 64.6842 89.2036 64.47 87.719 63.9129C87.2816 64.9203 86.8642 65.9088 86.4253 66.8876C85.3352 69.3185 83.9984 71.6042 82.4209 73.7537C80.61 76.2214 78.5048 78.406 76.2097 80.4231C73.4768 82.8251 70.4342 84.7376 67.1528 86.2876C63.9431 87.8037 60.6025 88.9383 57.0814 89.3986C54.5983 89.7233 52.0836 90.0105 49.5872 89.98C46.1085 89.9375 42.6414 89.4898 39.3231 88.3512C37.1717 87.613 34.9675 86.9263 32.9684 85.8723C30.5439 84.5941 28.2145 83.0807 26.0245 81.4296C24.2251 80.073 22.5596 78.4805 21.0722 76.7843C19.4795 74.9677 18.1643 72.9077 16.7293 70.953C16.6408 70.8325 16.5636 70.7037 16.4509 70.5316ZM84.6092 53.0975C84.6612 52.5454 84.7132 51.9933 84.8615 51.3781C85.0136 50.6578 85.1657 49.9376 85.3317 49.1519C85.0983 49.2268 84.9155 49.2854 84.5944 49.3304C84.2414 49.3294 83.8883 49.3345 83.5355 49.3265C81.6703 49.284 80.4369 47.7971 80.6699 45.9512C80.9439 43.7807 81.1216 41.5974 81.4303 39.4324C81.5322 38.7174 81.9111 38.0419 82.2693 37.3266C82.9224 37.0396 83.5755 36.7525 84.2333 36.4633C79.6918 24.7589 66.1682 12.1436 46.5038 14.123C31.4289 15.6405 19.1216 26.714 15.4239 40.4001C16.1992 40.5037 16.9681 40.6064 17.8312 40.7696C20.8174 41.2606 21.1669 43.4572 21.0829 45.9556C21.5245 44.3923 21.8277 42.8734 22.1854 41.3675C22.6319 39.4885 23.8791 38.1842 25.5379 38.1656C26.5336 38.1544 27.5606 38.5145 28.5261 38.8458C29.7886 39.2789 30.4646 40.2928 30.3421 41.5959C30.2232 42.8587 29.8563 44.1007 29.5661 45.3443C29.289 46.5316 28.9703 47.7093 28.6699 48.8912C29.1147 48.408 29.3897 47.8739 29.6534 47.3343C30.5616 45.4762 32.0884 44.4746 34.1135 44.4886C35.3465 44.4971 36.5769 44.8822 37.882 45.171C38.591 45.5527 39.3203 45.9015 40.0047 46.3231C41.3673 47.1626 42.2455 48.345 42.3635 49.9882C42.4177 50.7433 42.4207 51.5027 42.4294 52.2604C42.4607 54.9873 42.4708 57.7144 42.5176 60.441C42.5381 61.6315 42.3873 62.7526 41.4907 63.742C41.0257 63.9781 40.5674 64.3989 40.0945 64.4161C38.6066 64.4703 37.113 64.3766 35.622 64.3286C35.457 64.3232 35.1696 64.2736 35.1503 64.1935C34.9953 63.5523 34.6173 63.7817 34.222 63.8883C33.861 63.9857 33.4763 64.063 33.1062 64.0481C30.8601 63.9574 29.3016 62.6985 28.1323 60.9259C26.7833 58.881 27.0273 56.5564 28.6739 54.7295C28.9095 54.4681 29.1587 54.2189 29.3817 53.985C28.8219 53.6488 28.2787 53.3227 27.7123 52.9825C26.9739 56.0727 26.2609 59.1364 25.5048 62.1893C25.0989 63.8284 23.6634 64.6664 22.0268 64.2948C20.978 64.0567 19.929 63.819 18.8226 63.5021C18.5835 63.4275 18.3423 63.359 18.1057 63.2774C16.9928 62.8935 16.1721 62.2064 15.8488 61.0345C15.7684 60.7433 15.759 60.4325 15.7169 60.1307C15.6353 60.1405 15.5536 60.1504 15.472 60.1602C15.517 60.5523 15.5026 60.9626 15.6158 61.334C19.8118 75.103 32.2287 85.5179 46.9655 86.8574C51.6462 87.2828 56.2691 86.9714 60.7646 85.6066C72.7081 81.9806 80.6957 74.1522 85.0382 62.5102C85.211 62.047 85.1306 61.7655 84.7974 61.3906C83.7637 60.2279 83.9394 58.8567 85.1881 57.9189C85.4473 57.7243 85.7451 57.5699 86.0443 57.4422C86.5966 57.2064 86.6692 56.9039 86.2115 56.5111C85.4217 55.8333 85.1035 54.9212 84.8875 53.9474C84.832 53.6972 84.7073 53.4624 84.6092 53.0975ZM14.2181 59.2087C14.5379 57.5119 14.8666 55.8168 15.1726 54.1175C15.2772 53.5367 15.4956 53.0796 16.1674 53.1441C16.8702 53.2115 17.0164 53.721 17.0333 54.3434C17.0852 56.2653 17.1503 58.1872 17.2424 60.1075C17.2905 61.1106 17.7273 61.6514 18.672 61.9017C19.8617 62.2169 21.0598 62.5023 22.2605 62.7729C23.2916 63.0054 23.9002 62.5902 24.1415 61.5527C24.6184 59.5017 25.0819 57.4473 25.5854 55.4029C26.6341 51.1449 27.7131 46.8944 28.7592 42.6359C28.9339 41.9245 29.1412 40.9724 28.4581 40.601C27.5523 40.1085 26.4322 39.7309 25.4248 39.775C24.1597 39.8302 23.7944 41.0582 23.5591 42.1432C22.972 44.8513 22.426 47.5684 21.8531 50.2796C21.6815 51.0919 21.5159 51.9099 21.2619 52.6976C21.1818 52.9461 20.8015 53.2845 20.5974 53.2599C20.332 53.2278 20.0726 52.9005 19.8748 52.6496C19.7644 52.5096 19.7569 52.2682 19.7489 52.0706C19.6413 49.4174 19.5411 46.764 19.4409 44.1105C19.4079 43.2373 19.0765 42.7634 18.2261 42.4977C17.6276 42.3108 17.0159 42.1507 16.399 42.0409C14.8047 41.757 14.1267 42.1747 13.8282 43.7698C13.3233 46.4686 12.8909 49.1812 12.4459 51.891C12.323 52.6393 11.9253 53.1902 11.4372 53.0968C10.7332 52.9619 10.7844 52.3809 10.7685 51.8427C10.6731 48.6063 10.5828 45.3697 10.4516 42.1348C10.4368 41.7712 10.2787 41.2647 10.0118 41.085C8.57554 40.1185 6.97611 39.9174 5.31673 40.3871C4.8159 40.5289 4.5224 40.9384 4.59352 41.4957C4.78512 42.9972 4.99668 44.4961 5.19727 45.9964C5.79916 50.4983 6.43159 54.9965 6.98265 59.5046C7.16702 61.013 7.6115 62.2733 9.25178 62.562C10.4558 62.7739 11.7013 62.7776 12.9296 62.8002C13.1696 62.8047 13.5774 62.5083 13.6311 62.2844C13.8642 61.3125 13.9949 60.3161 14.2181 59.2087ZM30.9333 52.6163C31.109 52.6034 31.2854 52.5742 31.4605 52.5804C32.202 52.6067 32.628 52.3264 32.8794 51.5591C33.084 50.9348 33.5524 50.3856 33.9549 49.8409C34.2954 49.38 34.863 49.0799 35.3404 49.3935C35.7173 49.6411 36.0406 50.2083 36.0895 50.6654C36.1793 51.5052 36.0495 52.3685 36.0107 53.2333C35.5597 53.3045 35.165 53.3626 34.7718 53.4297C32.8638 53.755 31.0204 54.2092 29.7162 55.8216C29.1105 56.5705 28.6878 57.3738 28.8049 58.3713C29.1378 61.2059 31.8996 62.9816 34.616 62.1744C35.0955 62.032 36.0299 62.0385 36.1316 62.2608C36.4624 62.9846 36.9856 62.821 37.5031 62.8406C38.1852 62.8665 38.8691 62.8595 39.5498 62.9036C40.2831 62.9511 40.6925 62.5827 40.8655 61.924C40.954 61.587 40.9958 61.2276 40.9938 60.8786C40.9846 59.2362 40.94 57.5939 40.9329 55.9515C40.9259 54.3333 40.9724 52.7147 40.9505 51.0969C40.9342 49.8897 40.7722 48.7141 39.6676 47.9351C38.423 47.0575 37.0983 46.307 35.5894 46.0529C33.6619 45.7283 31.8105 46.1076 30.9038 48.2579C30.574 49.0401 30.1446 49.7814 29.7424 50.5315C28.8229 52.2465 28.8391 52.2846 30.9333 52.6163ZM86.2584 52.8701C86.2592 54.3643 86.8678 55.4778 88.2322 56.1762C89.0159 56.5773 89.7776 57.0335 90.5011 57.5344C90.8364 57.7665 91.1374 58.1266 91.3112 58.4958C91.5922 59.0929 91.4348 59.7037 90.9848 60.173C90.5302 60.647 89.9878 60.4416 89.5258 60.1694C89.0509 59.8896 88.5988 59.5552 88.1862 59.1888C87.4893 58.5698 86.6212 58.5738 85.9456 59.2361C85.5463 59.6275 85.5132 60.0377 85.898 60.4265C86.2881 60.8208 86.7313 61.162 87.1417 61.5368C89.4482 63.6427 93.4269 63.5442 95.4127 60.2457C96.0722 59.1503 96.0135 57.948 95.0947 57.059C94.5023 56.4858 93.7811 56.0443 93.11 55.5543C92.2159 54.9013 91.234 54.3437 90.4352 53.5909C89.2857 52.5076 89.3672 51.0952 90.4849 49.982C91.2901 49.18 92.7411 49.533 93.0533 50.6265C93.1559 50.9859 93.1959 51.3755 93.1923 51.7506C93.184 52.6088 93.5152 53.0746 94.3741 53.0974C94.9104 53.1116 95.4701 52.9748 95.9823 52.7986C96.1806 52.7304 96.3975 52.3688 96.4022 52.1367C96.4869 47.9607 92.8825 46.4369 89.7984 47.3096C87.3937 47.9901 86.2597 49.7967 86.2584 52.8701ZM85.0181 47.7754C85.488 47.6372 85.9279 47.5874 86.0735 46.9154C86.5833 44.5607 87.2027 42.23 87.737 39.8803C87.7929 39.6344 87.6264 39.1347 87.4501 39.0724C86.3905 38.6978 85.3122 38.3413 84.211 38.1328C83.5611 38.0097 83.0425 38.395 82.9596 39.1461C82.6939 41.5542 82.4134 43.9608 82.1729 46.3714C82.0892 47.21 82.5303 47.7171 83.3746 47.804C83.8731 47.8553 84.3821 47.8045 85.0181 47.7754Z" fill="#02963C"/>
<path d="M18.8801 63.5811C19.929 63.819 20.978 64.0567 22.0268 64.2949C23.6634 64.6664 25.0989 63.8284 25.5048 62.1894C26.2608 59.1364 26.9739 56.0727 27.7123 52.9825C28.2787 53.3227 28.8218 53.6489 29.3816 53.985C29.1587 54.219 28.9095 54.4681 28.6739 54.7296C27.0273 56.5564 26.7833 58.881 28.1323 60.9259C29.3016 62.6985 30.86 63.9574 33.1062 64.0481C33.4763 64.063 33.861 63.9857 34.222 63.8884C34.6173 63.7818 34.9953 63.5523 35.1503 64.1935C35.1696 64.2736 35.4569 64.3233 35.622 64.3286C37.113 64.3766 38.6066 64.4703 40.0945 64.4162C40.5674 64.399 41.0257 63.9781 41.5615 63.7799C42.3288 67.0143 43.0899 70.1984 43.6996 73.4113C44.1267 75.6625 43.3754 76.8111 41.2475 77.6405C40.4946 77.934 39.7284 78.1955 38.988 78.5168C38.8066 78.5955 38.5793 78.856 38.5851 79.0258C38.6052 79.6147 38.7185 80.2004 38.8105 80.8941C50.4342 77.78 61.9486 74.6952 73.5513 71.5868C73.3127 71.1424 73.0896 70.7795 72.9184 70.3936C72.7375 69.9859 72.5063 69.8928 72.0391 69.9365C71.2943 70.0062 70.5062 70.0233 69.7851 69.8548C67.8308 69.3981 67.0507 67.8277 66.5463 66.097C66.215 64.9603 65.9904 63.7924 65.7403 62.5886C65.9086 61.9936 66.1105 61.456 66.1848 60.9013C66.2576 60.358 66.2007 59.7972 66.2007 59.2441C66.2755 59.242 66.3504 59.2399 66.4253 59.2378C66.479 59.3975 66.5344 59.5567 66.5862 59.717C67.2379 61.7317 68.5756 63.0814 70.5769 63.7426C71.3366 63.9936 72.1254 64.1799 72.9148 64.3129C74.6189 64.5999 76.3094 64.6519 77.7024 63.3792C78.4252 62.7188 79.1781 62.054 79.7449 61.2668C81.684 58.5738 81.7789 55.4757 81.443 52.3454C81.0957 49.1084 79.1099 47.1419 76.1946 45.9937C75.5864 45.7542 74.951 45.581 74.3228 45.3956C72.7677 44.9367 71.3787 45.3522 70.1051 46.2547C68.8376 47.1528 68.1012 48.4452 67.5876 49.8662C67.2442 50.8165 66.9892 51.7988 66.6735 52.8365C66.6014 52.7074 66.5375 52.6473 66.5409 52.5912C66.6303 51.11 66.7292 49.6293 66.8212 48.1482C66.9624 45.8782 67.0832 43.6067 67.2446 41.3381C67.3456 39.9172 66.9403 38.7398 65.7397 37.9136C65.263 37.5855 64.7661 37.2752 64.2462 37.0235C62.8985 36.3709 61.5792 36.3046 60.3468 37.2798C59.3421 31.5473 58.3522 25.879 57.3464 20.1199C48.0948 26.4669 38.159 31.1647 27.4893 34.3559C27.571 34.9782 27.6369 35.5258 27.7162 36.0715C27.7982 36.6355 27.8932 37.1977 27.982 37.7581C28.9277 37.5775 29.7849 37.3746 30.6535 37.2551C33.3302 36.8868 35.5039 37.5459 36.5843 40.3618C37.1647 41.8745 37.4113 43.5152 37.8085 45.0982C36.5769 44.8822 35.3465 44.4972 34.1134 44.4886C32.0884 44.4746 30.5616 45.4762 29.6534 47.3343C29.3897 47.8739 29.1147 48.408 28.6698 48.8912C28.9703 47.7093 29.289 46.5317 29.5661 45.3443C29.8563 44.1007 30.2232 42.8588 30.342 41.5959C30.4646 40.2928 29.7886 39.2789 28.5261 38.8458C27.5606 38.5145 26.5336 38.1544 25.5379 38.1656C23.8791 38.1842 22.6318 39.4885 22.1854 41.3675C21.8276 42.8734 21.5245 44.3923 21.0829 45.9556C21.1669 43.4572 20.8174 41.2607 17.7945 40.6781C19.7564 33.9458 23.4126 28.3626 28.8055 24.0366C37.7121 16.8921 47.8184 14.6288 58.9266 17.3045C66.0024 19.0089 71.8551 22.7982 76.5972 28.316C78.9328 31.0337 80.7333 34.0754 82.1633 37.3483C81.911 38.0419 81.5322 38.7174 81.4302 39.4325C81.1216 41.5975 80.9439 43.7808 80.6699 45.9512C80.4369 47.7971 81.6703 49.284 83.5354 49.3265C83.8883 49.3345 84.2414 49.3295 84.6646 49.4066C84.7449 50.1356 84.755 50.7884 84.7651 51.4412C84.7132 51.9933 84.6612 52.5454 84.6032 53.2295C84.3466 54.9773 84.1906 56.6146 83.8307 58.2058C80.6457 72.288 68.7673 82.9364 54.4396 84.529C47.4274 85.3085 40.7448 84.1218 34.5066 80.7762C27.275 76.8979 22.0494 71.1663 18.8801 63.5811Z" fill="#E1261B"/>
<path d="M65.718 62.6385C65.9904 63.7924 66.2151 64.9603 66.5464 66.0971C67.0507 67.8278 67.8309 69.3982 69.7851 69.8549C70.5063 70.0234 71.2944 70.0063 72.0391 69.9366C72.5064 69.8928 72.7376 69.9859 72.9184 70.3936C73.0896 70.7796 73.3128 71.1425 73.5514 71.5868C61.9487 74.6953 50.4343 77.78 38.8105 80.8941C38.7185 80.2004 38.6052 79.6147 38.5851 79.0258C38.5793 78.8561 38.8067 78.5955 38.988 78.5169C39.7285 78.1956 40.4946 77.934 41.2475 77.6406C43.3754 76.8112 44.1267 75.6625 43.6996 73.4114C43.09 70.1985 42.3288 67.0144 41.6104 63.7589C42.3873 62.7527 42.5381 61.6316 42.5176 60.4411C42.4708 57.7145 42.4607 54.9873 42.4294 52.2605C42.4207 51.5028 42.4177 50.7434 42.3635 49.9883C42.2455 48.3451 41.3673 47.1627 40.0047 46.3232C39.3203 45.9015 38.591 45.5528 37.8453 45.1346C37.4113 43.5153 37.1647 41.8745 36.5843 40.3618C35.5039 37.546 33.3302 36.8869 30.6535 37.2551C29.7849 37.3746 28.9277 37.5775 27.9821 37.7582C27.8932 37.1977 27.7982 36.6356 27.7162 36.0715C27.6369 35.5259 27.571 34.9783 27.4893 34.3559C38.159 31.1648 48.0948 26.4669 57.3464 20.12C58.3522 25.879 59.3421 31.5474 60.3201 37.3284C59.6727 38.2451 59.3841 39.1736 59.375 40.1841C59.3598 41.8486 59.3708 43.5133 59.3708 45.265C59.0252 45.1817 58.9075 45.1542 58.7902 45.1249C57.2106 44.7301 55.8124 45.045 54.5542 46.1077C53.0748 47.3572 51.9769 48.8697 51.2157 50.6396C51.1183 50.8661 51.0131 51.0892 50.9115 51.3139C50.8371 50.3539 50.906 49.4589 50.9508 48.5627C51.0847 45.8861 51.2103 43.209 51.3365 40.532C51.3802 39.6044 51.0211 38.7875 50.3031 38.2802C49.4108 37.6499 48.4403 37.0637 47.4177 36.6999C45.855 36.1439 44.4496 36.8636 43.8954 38.4283C43.6228 39.198 43.5009 40.0481 43.4625 40.8689C43.3373 43.5475 43.284 46.2294 43.199 48.91C43.0738 52.855 42.9095 56.7992 42.8319 60.7451C42.7878 62.9912 44.8958 64.7322 47.1068 64.3572C48.2915 64.1562 49.1474 63.3919 49.8879 62.5109C50.0938 62.2658 50.2181 61.8998 50.2551 61.5751C50.3551 60.6958 50.388 59.8088 50.4578 58.772C52.3981 64.1259 56.7738 64.9487 59.4574 62.9881C60.4366 64.0445 61.6014 64.6692 63.0936 64.352C64.1806 64.121 64.9537 63.3795 65.718 62.6385Z" fill="#FBE100"/>
<path d="M14.1905 59.2687C13.9949 60.3161 13.8642 61.3125 13.6311 62.2844C13.5774 62.5084 13.1696 62.8047 12.9296 62.8003C11.7013 62.7776 10.4558 62.7739 9.25179 62.562C7.61151 62.2733 7.16703 61.013 6.98266 59.5047C6.4316 54.9965 5.79917 50.4983 5.19728 45.9964C4.99669 44.4961 4.78513 42.9972 4.59353 41.4957C4.52242 40.9384 4.81591 40.5289 5.31674 40.3871C6.97612 39.9174 8.57555 40.1185 10.0118 41.0851C10.2787 41.2647 10.4369 41.7713 10.4516 42.1348C10.5828 45.3697 10.6731 48.6064 10.7685 51.8427C10.7844 52.3809 10.7332 52.9619 11.4372 53.0968C11.9253 53.1903 12.323 52.6393 12.4459 51.891C12.8909 49.1812 13.3233 46.4687 13.8283 43.7698C14.1267 42.1747 14.8048 41.757 16.399 42.0409C17.0159 42.1508 17.6276 42.3108 18.2261 42.4977C19.0765 42.7634 19.4079 43.2373 19.4409 44.1105C19.5411 46.764 19.6413 49.4174 19.7489 52.0706C19.7569 52.2682 19.7644 52.5096 19.8748 52.6497C20.0727 52.9005 20.332 53.2278 20.5974 53.2599C20.8015 53.2846 21.1818 52.9461 21.2619 52.6976C21.5159 51.9099 21.6815 51.0919 21.8532 50.2797C22.426 47.5684 22.972 44.8514 23.5592 42.1432C23.7944 41.0582 24.1598 39.8303 25.4248 39.775C26.4322 39.731 27.5523 40.1085 28.4581 40.601C29.1412 40.9724 28.9339 41.9245 28.7592 42.6359C27.7131 46.8945 26.6341 51.1449 25.5854 55.4029C25.0819 57.4473 24.6184 59.5017 24.1415 61.5527C23.9003 62.5902 23.2916 63.0054 22.2605 62.773C21.0598 62.5023 19.8617 62.2169 18.672 61.9017C17.7273 61.6514 17.2905 61.1106 17.2424 60.1075C17.1503 58.1872 17.0852 56.2653 17.0333 54.3434C17.0164 53.721 16.8702 53.2115 16.1674 53.1441C15.4957 53.0796 15.2772 53.5367 15.1726 54.1176C14.8667 55.8168 14.5379 57.512 14.1905 59.2687Z" fill="#FEFEFE"/>
<path d="M18.8514 63.5415C22.0495 71.1662 27.275 76.8978 34.5066 80.7762C40.7448 84.1217 47.4275 85.3084 54.4397 84.529C68.7673 82.9363 80.6457 72.288 83.8307 58.2058C84.1906 56.6146 84.3467 54.9773 84.6058 53.2909C84.7073 53.4623 84.832 53.6972 84.8875 53.9474C85.1035 54.9212 85.4217 55.8333 86.2115 56.5111C86.6693 56.9038 86.5966 57.2064 86.0443 57.4421C85.7451 57.5699 85.4473 57.7242 85.1881 57.9189C83.9394 58.8566 83.7637 60.2278 84.7974 61.3906C85.1306 61.7654 85.211 62.0469 85.0382 62.5101C80.6957 74.1521 72.7081 81.9805 60.7646 85.6066C56.2691 86.9714 51.6462 87.2828 46.9655 86.8573C32.2287 85.5178 19.8118 75.1029 15.6158 61.334C15.5026 60.9626 15.517 60.5523 15.472 60.1602C15.5536 60.1503 15.6353 60.1405 15.7169 60.1307C15.759 60.4325 15.7684 60.7432 15.8488 61.0344C16.1721 62.2064 16.9928 62.8934 18.1057 63.2773C18.3423 63.359 18.5835 63.4275 18.8514 63.5415Z" fill="#FDFDFC"/>
<path d="M82.2163 37.3376C80.7333 34.0755 78.9328 31.0337 76.5972 28.316C71.8551 22.7982 66.0025 19.0089 58.9266 17.3046C47.8184 14.6289 37.7122 16.8922 28.8055 24.0367C23.4126 28.3627 19.7564 33.9458 17.7473 40.648C16.968 40.6065 16.1992 40.5038 15.4239 40.4002C19.1216 26.714 31.4289 15.6405 46.5038 14.1231C66.1682 12.1437 79.6918 24.759 84.2333 36.4634C83.5755 36.7526 82.9224 37.0396 82.2163 37.3376Z" fill="#FEFDFD"/>
<path d="M30.8698 52.6098C28.8391 52.2847 28.8229 52.2465 29.7424 50.5316C30.1446 49.7814 30.5741 49.0401 30.9038 48.258C31.8105 46.1077 33.662 45.7283 35.5894 46.0529C37.0983 46.3071 38.423 47.0575 39.6676 47.9352C40.7722 48.7141 40.9342 49.8897 40.9505 51.0969C40.9724 52.7147 40.9259 54.3334 40.9329 55.9515C40.9401 57.594 40.9846 59.2362 40.9939 60.8786C40.9958 61.2276 40.954 61.587 40.8655 61.9241C40.6925 62.5828 40.2831 62.9512 39.5499 62.9037C38.8691 62.8596 38.1852 62.8666 37.5031 62.8407C36.9856 62.821 36.4624 62.9846 36.1316 62.2609C36.03 62.0385 35.0955 62.032 34.616 62.1745C31.8996 62.9816 29.1378 61.206 28.8049 58.3713C28.6878 57.3739 29.1105 56.5705 29.7162 55.8216C31.0204 54.2092 32.8638 53.755 34.7718 53.4297C35.165 53.3627 35.5597 53.3046 36.0107 53.2334C36.0495 52.3685 36.1793 51.5052 36.0895 50.6655C36.0406 50.2083 35.7173 49.6411 35.3404 49.3935C34.863 49.08 34.2954 49.3801 33.9549 49.8409C33.5524 50.3857 33.084 50.9348 32.8794 51.5591C32.628 52.3264 32.202 52.6067 31.4605 52.5804C31.2854 52.5742 31.109 52.6034 30.8698 52.6098ZM32.3796 59.2203C33.2168 59.9694 34.2037 59.9713 35.2272 59.7915C35.7701 59.6962 36.0804 59.4435 36.0037 58.8223C35.9514 58.3993 35.9976 57.9647 35.993 57.5353C35.9828 56.5718 35.5456 56.1837 34.5955 56.4322C33.9504 56.601 33.3193 56.8843 32.7355 57.212C31.9663 57.6439 31.8493 58.3175 32.3796 59.2203Z" fill="#FDFEFD"/>
<path d="M86.2584 52.7991C86.2597 49.7967 87.3937 47.9902 89.7984 47.3097C92.8825 46.437 96.4869 47.9607 96.4022 52.1368C96.3975 52.3688 96.1807 52.7304 95.9824 52.7986C95.4701 52.9749 94.9104 53.1117 94.3741 53.0974C93.5152 53.0747 93.184 52.6089 93.1923 51.7506C93.1959 51.3755 93.1559 50.986 93.0533 50.6266C92.7411 49.5331 91.2902 49.18 90.4849 49.9821C89.3673 51.0952 89.2857 52.5077 90.4352 53.591C91.234 54.3438 92.2159 54.9014 93.1101 55.5543C93.7811 56.0444 94.5023 56.4859 95.0947 57.0591C96.0136 57.9481 96.0723 59.1503 95.4128 60.2458C93.4269 63.5442 89.4482 63.6428 87.1418 61.5368C86.7313 61.162 86.2881 60.8209 85.898 60.4266C85.5132 60.0377 85.5464 59.6276 85.9457 59.2361C86.6212 58.5739 87.4893 58.5698 88.1863 59.1889C88.5988 59.5552 89.0509 59.8896 89.5259 60.1695C89.9878 60.4416 90.5302 60.6471 90.9848 60.173C91.4348 59.7038 91.5922 59.093 91.3112 58.4959C91.1374 58.1266 90.8364 57.7666 90.5011 57.5344C89.7776 57.0336 89.0159 56.5774 88.2323 56.1763C86.8679 55.4779 86.2593 54.3644 86.2584 52.7991Z" fill="#FCFEFD"/>
<path d="M84.9522 47.7876C84.3821 47.8046 83.8731 47.8554 83.3746 47.8041C82.5304 47.7172 82.0892 47.2101 82.1729 46.3715C82.4134 43.9609 82.6939 41.5543 82.9596 39.1462C83.0425 38.3951 83.5612 38.0097 84.211 38.1328C85.3122 38.3414 86.3905 38.6979 87.4501 39.0725C87.6264 39.1348 87.7929 39.6344 87.737 39.8804C87.2027 42.2301 86.5833 44.5608 86.0735 46.9154C85.928 47.5875 85.488 47.6373 84.9522 47.7876Z" fill="#FDFEFD"/>
<path d="M84.8133 51.4096C84.755 50.7884 84.745 50.1356 84.7338 49.4134C84.9155 49.2854 85.0982 49.2268 85.3317 49.1519C85.1657 49.9376 85.0136 50.6578 84.8133 51.4096Z" fill="#E9F5ED"/>
<path d="M65.7403 62.5887C64.9537 63.3795 64.1806 64.121 63.0936 64.352C61.6015 64.6692 60.4366 64.0446 59.4574 62.9881C56.7738 64.9487 52.3981 64.1259 50.4578 58.772C50.388 59.8088 50.3551 60.6958 50.2551 61.5751C50.2182 61.8998 50.0938 62.2659 49.8879 62.5109C49.1474 63.3919 48.2915 64.1562 47.1068 64.3572C44.8958 64.7323 42.7878 62.9912 42.8319 60.7452C42.9095 56.7992 43.0738 52.855 43.199 48.91C43.284 46.2295 43.3373 43.5475 43.4626 40.8689C43.5009 40.0481 43.6228 39.1981 43.8954 38.4283C44.4496 36.8636 45.855 36.1439 47.4177 36.6999C48.4403 37.0637 49.4108 37.6499 50.3031 38.2803C51.0211 38.7875 51.3802 39.6044 51.3365 40.532C51.2103 43.209 51.0847 45.8861 50.9508 48.5627C50.906 49.4589 50.8371 50.3539 50.9115 51.3139C51.0131 51.0892 51.1183 50.8661 51.2157 50.6396C51.9769 48.8697 53.0748 47.3572 54.5542 46.1077C55.8124 45.045 57.2106 44.7301 58.7902 45.1249C58.9075 45.1542 59.0252 45.1817 59.3709 45.265C59.3709 43.5134 59.3598 41.8486 59.375 40.1841C59.3841 39.1736 59.6727 38.2451 60.3349 37.3927C61.5793 36.3047 62.8985 36.371 64.2462 37.0235C64.7662 37.2753 65.263 37.5855 65.7397 37.9136C66.9403 38.7399 67.3457 39.9173 67.2446 41.3382C67.0833 43.6068 66.9624 45.8782 66.8213 48.1483C66.7292 49.6294 66.6304 51.1101 66.541 52.5913C66.5376 52.6474 66.6014 52.7075 66.6735 52.8365C66.9893 51.7989 67.2442 50.8166 67.5877 49.8663C68.1012 48.4453 68.8377 47.1529 70.1051 46.2548C71.3788 45.3523 72.7677 44.9368 74.3228 45.3957C74.9511 45.5811 75.5865 45.7543 76.1947 45.9938C79.1099 47.142 81.0957 49.1085 81.4431 52.3455C81.779 55.4758 81.684 58.5739 79.7449 61.2669C79.1781 62.054 78.4253 62.7189 77.7024 63.3793C76.3094 64.652 74.6189 64.6 72.9149 64.3129C72.1254 64.1799 71.3367 63.9937 70.577 63.7427C68.5756 63.0815 67.2379 61.7318 66.5862 59.7171C66.5344 59.5568 66.479 59.3976 66.4253 59.2379C66.3504 59.24 66.2756 59.2421 66.2007 59.2442C66.2007 59.7973 66.2577 60.358 66.1848 60.9014C66.1105 61.4561 65.9087 61.9937 65.7403 62.5887ZM64.8231 59.3852C64.9472 56.684 65.0588 53.982 65.1987 51.2815C65.3725 47.926 65.5371 44.5694 65.7747 41.2182C65.8585 40.0361 65.3681 39.2954 64.4045 38.7585C64.1185 38.5991 63.8387 38.4245 63.5405 38.2916C62.0241 37.616 61.029 38.1436 60.9109 39.7936C60.7504 42.0357 60.6751 44.2851 60.617 46.5327C60.5994 47.2126 60.2648 47.3015 59.7519 47.1995C59.5418 47.1578 59.3483 47.0104 59.1585 46.8931C58.0899 46.2325 56.7624 46.2648 55.7665 47.0524C52.8898 49.3274 51.6702 52.4051 51.5884 55.9806C51.5435 57.946 52.2229 59.6753 53.5324 61.1625C54.7373 62.5309 57.7057 63.1859 59.0493 61.2319C59.2835 60.8914 59.7018 60.6774 60.0987 60.353C60.228 61.8938 61.248 62.9908 62.4013 62.9687C63.5886 62.9459 64.6288 61.8407 64.7215 60.5095C64.7444 60.1818 64.7836 59.8552 64.8231 59.3852ZM67.8949 55.9673C67.8905 56.6498 67.8652 57.3328 67.8857 58.0145C67.9437 59.9363 68.8185 61.3932 70.6171 62.0721C71.751 62.5001 73.0031 62.6182 74.2043 62.8644C75.2537 63.0794 76.1601 62.7264 76.9254 62.0478C77.5069 61.5323 78.091 60.9848 78.5325 60.3528C80.2163 57.9428 80.2279 55.1928 79.9396 52.4319C79.6831 49.9748 78.1463 48.4571 75.9696 47.5228C75.3283 47.2476 74.6331 47.0998 73.9679 46.8777C72.886 46.5166 71.8789 46.7606 71.0649 47.4585C70.4306 48.0023 69.8527 48.6866 69.4577 49.4205C68.389 51.4057 68.1037 53.6115 67.8949 55.9673ZM44.9875 40.3656C44.903 43.2741 44.8252 46.1829 44.7323 49.0911C44.6097 52.9348 44.4777 56.7782 44.3442 60.6216C44.3101 61.6057 44.8429 62.2379 45.6394 62.6728C46.4107 63.0939 47.1396 62.8896 47.84 62.4257C48.607 61.9177 48.8525 61.2161 48.8936 60.3134C49.1785 54.0726 49.4515 47.8301 49.8567 41.5966C49.9579 40.0397 49.3752 39.1982 48.1022 38.5391C46.4455 37.6815 45.2497 37.8854 45.0527 40.0078C45.0457 40.0827 45.0203 40.156 44.9875 40.3656Z" fill="#04963C"/>
<path d="M32.3408 59.1762C31.8493 58.3175 31.9662 57.6439 32.7355 57.212C33.3192 56.8843 33.9503 56.601 34.5955 56.4322C35.5456 56.1837 35.9828 56.5718 35.993 57.5353C35.9976 57.9647 35.9514 58.3993 36.0037 58.8223C36.0804 59.4435 35.7701 59.6962 35.2272 59.7915C34.2037 59.9713 33.2167 59.9694 32.3408 59.1762Z" fill="#04973E"/>
<path d="M64.8191 59.4565C64.7836 59.855 64.7444 60.1816 64.7215 60.5094C64.6288 61.8406 63.5886 62.9457 62.4013 62.9685C61.248 62.9907 60.228 61.8937 60.0987 60.3529C59.7018 60.6773 59.2834 60.8912 59.0492 61.2318C57.7057 63.1858 54.7373 62.5307 53.5324 61.1623C52.2229 59.6751 51.5435 57.9458 51.5884 55.9804C51.6702 52.4049 52.8897 49.3272 55.7665 47.0523C56.7624 46.2647 58.0899 46.2324 59.1585 46.8929C59.3483 47.0103 59.5418 47.1576 59.7519 47.1994C60.2648 47.3014 60.5994 47.2124 60.617 46.5325C60.6751 44.2849 60.7504 42.0356 60.9109 39.7935C61.029 38.1434 62.0241 37.6159 63.5405 38.2915C63.8387 38.4243 64.1185 38.599 64.4045 38.7584C65.3681 39.2952 65.8585 40.0359 65.7747 41.2181C65.5371 44.5693 65.3725 47.9259 65.1987 51.2814C65.0587 53.9819 64.9472 56.6838 64.8191 59.4565ZM55.9817 53.9049C55.7555 54.9072 55.4675 55.9006 55.3209 56.9145C55.1809 57.8822 55.2352 58.9 56.2106 59.4594C57.146 59.9959 58.006 59.5565 58.8 59.0033C58.8826 58.9458 58.9627 58.8839 59.0394 58.8185C61.1202 57.0439 62.0654 53.275 61.0798 50.7099C60.7726 49.9105 60.3079 49.2708 59.3892 49.1841C58.4945 49.0997 57.8851 49.615 57.525 50.3529C56.9771 51.4755 56.5182 52.6414 55.9817 53.9049Z" fill="#FDFEFD"/>
<path d="M67.8977 55.8955C68.1036 53.6114 68.389 51.4057 69.4577 49.4204C69.8527 48.6866 70.4306 48.0022 71.0648 47.4584C71.8788 46.7605 72.886 46.5166 73.9678 46.8777C74.633 47.0997 75.3282 47.2475 75.9695 47.5228C78.1463 48.457 79.6831 49.9747 79.9396 52.4319C80.2278 55.1927 80.2163 57.9427 78.5325 60.3527C78.0909 60.9847 77.5068 61.5322 76.9254 62.0477C76.1601 62.7263 75.2536 63.0794 74.2043 62.8643C73.003 62.6181 71.751 62.5001 70.617 62.072C68.8185 61.3931 67.9437 59.9363 67.8857 58.0145C67.8652 57.3328 67.8905 56.6497 67.8977 55.8955ZM75.3315 59.1215C75.7339 57.7551 76.2395 56.4088 76.5107 55.0168C76.8072 53.4955 76.7395 51.9481 75.9678 50.5257C75.2389 49.1823 74.3848 49.105 73.4076 50.2847C73.2792 50.4398 73.1664 50.6084 73.0526 50.7749C71.6676 52.8001 71.118 55.0804 71.1186 57.4916C71.1188 58.2277 71.2837 59.0099 71.5672 59.6901C72.126 61.031 73.4677 61.251 74.4978 60.2342C74.7991 59.9368 75.0239 59.5619 75.3315 59.1215Z" fill="#FDFEFD"/>
<path d="M44.9955 40.2977C45.0203 40.1559 45.0457 40.0826 45.0527 40.0077C45.2497 37.8853 46.4455 37.6814 48.1022 38.5391C49.3752 39.1981 49.9579 40.0396 49.8567 41.5965C49.4515 47.8301 49.1785 54.0725 48.8936 60.3134C48.8524 61.216 48.607 61.9176 47.84 62.4256C47.1396 62.8895 46.4107 63.0939 45.6394 62.6727C44.8429 62.2378 44.3101 61.6056 44.3442 60.6215C44.4776 56.7781 44.6097 52.9347 44.7323 49.091C44.8252 46.1828 44.903 43.274 44.9955 40.2977Z" fill="#FDFEFE"/>
<path d="M56.0016 53.847C56.5182 52.6415 56.9771 51.4756 57.525 50.353C57.8851 49.6151 58.4944 49.0998 59.3892 49.1842C60.3079 49.2709 60.7726 49.9106 61.0797 50.71C62.0654 53.275 61.1202 57.044 59.0394 58.8186C58.9627 58.8839 58.8826 58.9459 58.8 59.0034C58.006 59.5566 57.146 59.9959 56.2106 59.4595C55.2352 58.9 55.1809 57.8822 55.3209 56.9146C55.4675 55.9007 55.7555 54.9073 56.0016 53.847ZM57.2821 54.6188C57.0344 55.7804 56.5983 56.9235 56.9053 58.2903C57.2893 58.1157 57.6276 58.0229 57.8943 57.8308C59.6095 56.5952 60.5347 53.217 59.7028 51.2421C59.615 51.0339 59.4106 50.8748 59.2603 50.693C59.0841 50.854 58.8337 50.9818 58.744 51.1816C58.2512 52.2798 57.7977 53.3955 57.2821 54.6188Z" fill="#05973D"/>
<path d="M75.3076 59.1719C75.0239 59.5618 74.7991 59.9367 74.4978 60.2341C73.4677 61.2509 72.126 61.031 71.5672 59.69C71.2838 59.0098 71.1188 58.2276 71.1186 57.4915C71.118 55.0803 71.6676 52.8 73.0526 50.7748C73.1665 50.6083 73.2792 50.4397 73.4076 50.2846C74.3848 49.1049 75.2389 49.1822 75.9678 50.5256C76.7395 51.948 76.8072 53.4954 76.5107 55.0167C76.2395 56.4087 75.7339 57.755 75.3076 59.1719ZM74.116 58.2017C75.0439 56.2934 75.6136 52.3189 74.5838 51.3354C72.7814 53.3025 71.9596 58.0236 73.2735 59.3872C73.5471 59.0176 73.8103 58.6618 74.116 58.2017Z" fill="#05963D"/>
<path d="M57.3064 54.5621C57.7977 53.3956 58.2512 52.2798 58.744 51.1817C58.8337 50.9818 59.0841 50.854 59.2603 50.693C59.4106 50.8749 59.615 51.0339 59.7028 51.2421C60.5347 53.2171 59.6095 56.5953 57.8943 57.8309C57.6276 58.023 57.2893 58.1158 56.9053 58.2903C56.5983 56.9235 57.0343 55.7804 57.3064 54.5621Z" fill="#F9E101"/>
<path d="M74.0948 58.254C73.8103 58.6619 73.5471 59.0176 73.2735 59.3873C71.9596 58.0236 72.7815 53.3026 74.5838 51.3354C75.6136 52.319 75.0439 56.2935 74.0948 58.254Z" fill="#DC281C"/>
</svg>
