<svg width="100" height="100" viewBox="0 0 100 100" fill="none" xmlns="http://www.w3.org/2000/svg">
<rect width="100" height="100" rx="24" fill="#1B74CE"/>
<path d="M17.8441 74.1508C15.0946 73.13 13.6904 71.0586 13.1112 68.3321C12.8943 67.3107 12.9922 66.3065 13.4263 65.3471C13.7531 64.625 14.3022 64.149 15.0222 63.8175C18.81 62.0742 22.5894 60.3124 26.3722 58.558C28.9633 57.3563 31.5705 56.188 34.1395 54.941C35.2432 54.4052 36.2268 54.5324 37.1341 55.2288C38.6841 56.4186 39.507 57.9675 39.2006 59.9814C39.107 60.597 38.7791 61.0752 38.2696 61.4308C33.9714 64.4308 29.6734 67.4311 25.3752 70.4312C23.8526 71.4939 22.3148 72.5358 20.8127 73.6266C19.9043 74.2862 18.949 74.4732 17.8441 74.1508Z" fill="#FEB818"/>
<path d="M65.2548 54.637C65.7088 54.6838 66.1665 54.6499 66.5315 54.8176C72.4826 57.5535 78.4221 60.3148 84.364 63.0706C84.826 63.2848 85.2744 63.5354 85.7508 63.7097C87.3154 64.2817 87.9037 65.5141 87.9907 67.0459C88.1495 69.8418 86.164 72.9624 83.5873 74.007C82.3973 74.4894 81.2859 74.3992 80.1916 73.6292C74.5216 69.6393 68.8433 65.6609 63.1356 61.7253C61.92 60.8871 61.5194 59.8392 61.8159 58.4697C62.1973 56.7082 63.1328 55.3762 64.8791 54.7203C64.9851 54.6805 65.103 54.6727 65.2548 54.637Z" fill="#FEB818"/>
<path d="M33.2462 35.0298C34.8123 36.1236 36.32 37.2425 37.8943 38.2582C39.1464 39.0661 39.4917 40.1584 39.1905 41.5244C38.8357 43.1341 37.9818 44.3886 36.4537 45.1055C35.7679 45.4272 35.0911 45.4362 34.3712 45.1004C28.0287 42.1427 21.6982 39.1576 15.3125 36.2956C13.5967 35.5265 12.668 33.7911 13.1305 31.5006C13.5947 29.2017 14.7915 27.3552 16.8795 26.1987C18.2275 25.4521 19.5498 25.4163 20.8967 26.3757C24.9813 29.2848 29.1069 32.1364 33.2462 35.0298Z" fill="#FEB818"/>
<path d="M74.7672 41.3345C72.0684 42.5879 69.3986 43.8159 66.7431 45.074C65.6947 45.5707 64.7538 45.3676 63.8795 44.7248C62.498 43.7092 61.7434 42.3329 61.7307 40.6059C61.7243 39.7273 62.0616 38.9994 62.8262 38.4675C68.0201 34.8539 73.2026 31.224 78.389 27.5997C78.9545 27.2046 79.5459 26.842 80.083 26.4116C81.3719 25.3789 82.7334 25.4276 84.0854 26.1776C86.2655 27.387 87.4832 29.2993 87.9119 31.7338C88.1057 32.8344 87.9945 33.8871 87.4303 34.8767C87.1344 35.3956 86.7291 35.7737 86.1883 36.0248C82.3917 37.7876 78.5972 39.5551 74.7672 41.3345Z" fill="#FEB818"/>
<path d="M52.2124 35.9891C50.4853 36.4929 48.9019 36.3621 47.4738 35.233C46.7295 34.6447 46.6823 33.8046 46.608 32.9677C46.4147 30.7923 46.2177 28.6172 46.0288 26.4414C45.8526 24.4124 45.6919 22.382 45.5117 20.3534C45.33 18.3087 45.1281 16.2659 44.9447 14.2214C44.8713 13.404 44.725 12.5768 44.7858 11.7671C44.8956 10.3037 45.8628 9.36908 47.111 8.81193C49.8422 7.59283 52.5224 7.6817 54.979 9.52194C55.902 10.2133 56.3427 11.1892 56.2137 12.4117C56.0001 14.4371 55.8653 16.4708 55.6847 18.4998C55.4707 20.9045 55.2377 23.3076 55.0235 25.7123C54.8428 27.741 54.6787 29.7711 54.504 31.8003C54.442 32.5203 54.42 33.2484 54.2911 33.9568C54.1159 34.9202 53.4038 35.455 52.5707 35.8511C52.4671 35.9003 52.3576 35.9372 52.2124 35.9891Z" fill="#FEB818"/>
<path d="M55.7893 82.6364C55.9283 84.3184 56.0348 85.9584 56.2141 87.5904C56.3445 88.7773 55.8724 89.6836 55.016 90.4006C53.493 91.6758 51.6822 92.0411 49.7506 91.8752C48.3671 91.7564 47.076 91.3462 46.0064 90.4114C45.1453 89.6588 44.6841 88.757 44.8 87.5539C45.1038 84.3994 45.3483 81.2391 45.6232 78.0818C45.8839 75.0887 46.1518 72.0963 46.4192 69.1038C46.5084 68.1065 46.5995 67.1092 46.7015 66.1131C46.7845 65.3028 47.2828 64.7424 47.9419 64.3718C49.5059 63.4924 51.1291 63.4605 52.7627 64.2024C53.9828 64.7565 54.3424 65.7787 54.4211 67.0398C54.554 69.1689 54.7858 71.2917 54.9722 73.4176C55.15 75.4457 55.3203 77.4745 55.499 79.5026C55.5897 80.5325 55.6913 81.5615 55.7893 82.6364Z" fill="#FEB818"/>
</svg>
